<?xml version="1.0" encoding="UTF-8" standalone="no"?>
<!DOCTYPE svg PUBLIC "-//W3C//DTD SVG 1.1//EN" "http://www.w3.org/Graphics/SVG/1.1/DTD/svg11.dtd">
<svg width="100%" height="100%" viewBox="0 0 1300 300" version="1.1" xmlns="http://www.w3.org/2000/svg" xmlns:xlink="http://www.w3.org/1999/xlink" xml:space="preserve" xmlns:serif="http://www.serif.com/" style="fill-rule:evenodd;clip-rule:evenodd;stroke-linejoin:round;stroke-miterlimit:1.41421;">
    <path d="M1255,0C1279.84,0 1300,20.164 1300,45L1300,255C1300,279.836 1279.84,300 1255,300L45,300C20.164,300 0,279.836 0,255L0,45C0,20.164 20.163,0 45,0L1255,0ZM275.041,41.615L119.509,41.615C108.67,41.616 100,50.286 100,61.124L100,238.876C100,249.714 108.671,258.385 119.509,258.385L275.041,258.385C285.88,258.385 294.551,249.714 294.551,238.876L294.551,61.124C294.551,50.286 285.88,41.616 275.041,41.615ZM275.041,247.546L119.509,247.546C114.632,247.546 110.838,243.753 110.838,238.876L110.838,61.124C110.838,56.247 114.632,52.454 119.509,52.454L275.041,52.454C279.919,52.454 283.712,56.247 283.712,61.124L283.712,238.876C283.712,243.753 279.919,247.546 275.041,247.546ZM148.773,225.869L173.16,204.192L148.773,182.515L148.773,225.869ZM169.908,74.131L148.773,74.131L148.773,167.883L163.947,160.838C163.947,160.838 188.876,149.458 210.552,149.458C221.391,149.458 224.101,155.419 224.101,160.838L224.101,225.869L245.778,225.869L245.778,160.838C245.778,159.213 245.778,147.29 236.565,138.078C232.229,133.742 224.101,128.323 210.552,128.323C195.921,128.323 180.747,132.117 169.908,135.91L169.908,74.131ZM245.778,74.131L224.101,74.131C221.933,86.595 216.513,97.976 207.843,109.356L229.52,109.356C239.274,97.976 244.152,86.595 245.778,74.131Z" style="fill:rgb(112,86,191);"/>
    <g transform="matrix(1,0,0,1,-47.8124,-92.3407)">
        <path d="M442.848,273.403L442.848,206.184L461.41,206.184C485.098,206.184 496.942,217.106 496.942,238.95C496.942,249.325 493.653,257.661 487.074,263.958C480.496,270.255 471.692,273.403 460.66,273.403L442.848,273.403ZM450.723,213.309L450.723,266.278L460.754,266.278C469.567,266.278 476.426,263.919 481.332,259.2C486.239,254.481 488.692,247.794 488.692,239.138C488.692,221.919 479.535,213.309 461.223,213.309L450.723,213.309Z" style="fill:white;fill-rule:nonzero;"/>
        <path d="M547.707,251.325L513.817,251.325C513.942,256.669 515.379,260.794 518.129,263.7C520.879,266.606 524.66,268.059 529.473,268.059C534.879,268.059 539.848,266.278 544.379,262.716L544.379,269.934C540.16,272.997 534.582,274.528 527.645,274.528C520.864,274.528 515.535,272.349 511.66,267.989C507.785,263.63 505.848,257.497 505.848,249.591C505.848,242.122 507.965,236.036 512.199,231.333C516.434,226.63 521.692,224.278 527.973,224.278C534.254,224.278 539.114,226.309 542.551,230.372C545.989,234.434 547.707,240.075 547.707,247.294L547.707,251.325ZM539.832,244.809C539.801,240.372 538.731,236.919 536.621,234.45C534.512,231.981 531.582,230.747 527.832,230.747C524.207,230.747 521.129,232.044 518.598,234.638C516.067,237.231 514.504,240.622 513.91,244.809L539.832,244.809Z" style="fill:white;fill-rule:nonzero;"/>
        <path d="M567.207,266.466L567.02,266.466L567.02,295.481L559.332,295.481L559.332,225.403L567.02,225.403L567.02,233.841L567.207,233.841C570.989,227.466 576.52,224.278 583.801,224.278C589.989,224.278 594.817,226.427 598.285,230.724C601.754,235.02 603.489,240.778 603.489,247.997C603.489,256.028 601.535,262.458 597.629,267.286C593.723,272.114 588.379,274.528 581.598,274.528C575.379,274.528 570.582,271.841 567.207,266.466ZM567.02,247.106L567.02,253.809C567.02,257.778 568.309,261.145 570.887,263.911C573.465,266.677 576.739,268.059 580.707,268.059C585.364,268.059 589.012,266.278 591.653,262.716C594.293,259.153 595.614,254.2 595.614,247.856C595.614,242.513 594.379,238.325 591.91,235.294C589.442,232.263 586.098,230.747 581.879,230.747C577.41,230.747 573.817,232.302 571.098,235.411C568.379,238.52 567.02,242.419 567.02,247.106Z" style="fill:white;fill-rule:nonzero;"/>
        <rect x="615.77" y="202.341" width="7.688" height="71.063" style="fill:white;fill-rule:nonzero;"/>
        <path d="M659.082,274.528C651.989,274.528 646.324,272.286 642.09,267.802C637.856,263.317 635.739,257.372 635.739,249.966C635.739,241.903 637.942,235.606 642.348,231.075C646.754,226.544 652.707,224.278 660.207,224.278C667.364,224.278 672.949,226.481 676.965,230.888C680.981,235.294 682.989,241.403 682.989,249.216C682.989,256.872 680.824,263.005 676.496,267.614C672.168,272.224 666.364,274.528 659.082,274.528ZM659.645,230.747C654.707,230.747 650.801,232.427 647.926,235.786C645.051,239.145 643.614,243.778 643.614,249.684C643.614,255.372 645.067,259.856 647.973,263.138C650.879,266.419 654.77,268.059 659.645,268.059C664.614,268.059 668.434,266.45 671.106,263.231C673.778,260.013 675.114,255.434 675.114,249.497C675.114,243.497 673.778,238.872 671.106,235.622C668.434,232.372 664.614,230.747 659.645,230.747Z" style="fill:white;fill-rule:nonzero;"/>
        <path d="M733.473,225.403L711.395,281.091C707.457,291.028 701.926,295.997 694.801,295.997C692.801,295.997 691.129,295.794 689.785,295.388L689.785,288.497C691.442,289.059 692.957,289.341 694.332,289.341C698.207,289.341 701.114,287.028 703.051,282.403L706.895,273.309L688.145,225.403L696.676,225.403L709.66,262.341C709.817,262.809 710.145,264.028 710.645,265.997L710.926,265.997C711.082,265.247 711.395,264.059 711.864,262.434L725.504,225.403L733.473,225.403Z" style="fill:white;fill-rule:nonzero;"/>
        <path d="M790.285,272.934C788.473,273.934 786.082,274.434 783.114,274.434C774.707,274.434 770.504,269.747 770.504,260.372L770.504,231.966L762.254,231.966L762.254,225.403L770.504,225.403L770.504,213.684L778.192,211.2L778.192,225.403L790.285,225.403L790.285,231.966L778.192,231.966L778.192,259.013C778.192,262.231 778.739,264.528 779.832,265.903C780.926,267.278 782.739,267.966 785.27,267.966C787.207,267.966 788.879,267.434 790.285,266.372L790.285,272.934Z" style="fill:white;fill-rule:nonzero;"/>
        <path d="M820.614,274.528C813.52,274.528 807.856,272.286 803.621,267.802C799.387,263.317 797.27,257.372 797.27,249.966C797.27,241.903 799.473,235.606 803.879,231.075C808.285,226.544 814.239,224.278 821.739,224.278C828.895,224.278 834.481,226.481 838.496,230.888C842.512,235.294 844.52,241.403 844.52,249.216C844.52,256.872 842.356,263.005 838.028,267.614C833.699,272.224 827.895,274.528 820.614,274.528ZM821.176,230.747C816.239,230.747 812.332,232.427 809.457,235.786C806.582,239.145 805.145,243.778 805.145,249.684C805.145,255.372 806.598,259.856 809.504,263.138C812.41,266.419 816.301,268.059 821.176,268.059C826.145,268.059 829.965,266.45 832.637,263.231C835.309,260.013 836.645,255.434 836.645,249.497C836.645,243.497 835.309,238.872 832.637,235.622C829.965,232.372 826.145,230.747 821.176,230.747Z" style="fill:white;fill-rule:nonzero;"/>
        <path d="M937.614,273.403L926.41,273.403L926.41,244.247L894.77,244.247L894.77,273.403L883.614,273.403L883.614,206.184L894.77,206.184L894.77,234.45L926.41,234.45L926.41,206.184L937.614,206.184L937.614,273.403Z" style="fill:white;fill-rule:nonzero;"/>
        <path d="M993.629,252.356L960.91,252.356C961.035,256.794 962.403,260.216 965.012,262.622C967.621,265.028 971.207,266.231 975.77,266.231C980.895,266.231 985.598,264.7 989.879,261.638L989.879,270.403C985.504,273.153 979.723,274.528 972.535,274.528C965.473,274.528 959.934,272.349 955.918,267.989C951.903,263.63 949.895,257.497 949.895,249.591C949.895,242.122 952.106,236.036 956.528,231.333C960.949,226.63 966.442,224.278 973.004,224.278C979.567,224.278 984.645,226.388 988.239,230.606C991.832,234.825 993.629,240.684 993.629,248.184L993.629,252.356ZM983.129,244.669C983.098,240.763 982.176,237.724 980.364,235.552C978.551,233.38 976.051,232.294 972.864,232.294C969.739,232.294 967.09,233.434 964.918,235.716C962.746,237.997 961.41,240.981 960.91,244.669L983.129,244.669Z" style="fill:white;fill-rule:nonzero;"/>
        <path d="M1031.83,235.763C1030.52,234.731 1028.63,234.216 1026.16,234.216C1022.94,234.216 1020.25,235.669 1018.1,238.575C1015.94,241.481 1014.86,245.434 1014.86,250.434L1014.86,273.403L1003.99,273.403L1003.99,225.403L1014.86,225.403L1014.86,235.294L1015.05,235.294C1016.11,231.919 1017.75,229.286 1019.95,227.395C1022.15,225.505 1024.61,224.559 1027.33,224.559C1029.3,224.559 1030.8,224.856 1031.83,225.45L1031.83,235.763Z" style="fill:white;fill-rule:nonzero;"/>
        <path d="M1059.96,274.528C1052.55,274.528 1046.64,272.286 1042.21,267.802C1037.79,263.317 1035.58,257.372 1035.58,249.966C1035.58,241.903 1037.89,235.606 1042.5,231.075C1047.11,226.544 1053.32,224.278 1061.13,224.278C1068.63,224.278 1074.47,226.481 1078.66,230.888C1082.85,235.294 1084.94,241.403 1084.94,249.216C1084.94,256.872 1082.68,263.005 1078.17,267.614C1073.65,272.224 1067.58,274.528 1059.96,274.528ZM1060.47,232.95C1056.22,232.95 1052.86,234.434 1050.39,237.403C1047.93,240.372 1046.69,244.466 1046.69,249.684C1046.69,254.716 1047.94,258.677 1050.44,261.567C1052.94,264.458 1056.29,265.903 1060.47,265.903C1064.75,265.903 1068.04,264.481 1070.34,261.638C1072.64,258.794 1073.79,254.747 1073.79,249.497C1073.79,244.216 1072.64,240.138 1070.34,237.263C1068.04,234.388 1064.75,232.95 1060.47,232.95Z" style="fill:white;fill-rule:nonzero;"/>
        <path d="M1139.55,273.403L1125.77,273.403L1107.11,250.341L1106.93,250.341L1106.93,273.403L1096,273.403L1096,202.341L1106.93,202.341L1106.93,247.388L1107.11,247.388L1124.74,225.403L1137.82,225.403L1117.99,248.559L1139.55,273.403Z" style="fill:white;fill-rule:nonzero;"/>
        <path d="M1188.25,273.403L1177.38,273.403L1177.38,265.809L1177.19,265.809C1174.04,271.622 1169.13,274.528 1162.47,274.528C1151.13,274.528 1145.46,267.716 1145.46,254.091L1145.46,225.403L1156.33,225.403L1156.33,252.966C1156.33,261.591 1159.66,265.903 1166.32,265.903C1169.54,265.903 1172.18,264.716 1174.26,262.341C1176.34,259.966 1177.38,256.856 1177.38,253.013L1177.38,225.403L1188.25,225.403L1188.25,273.403Z" style="fill:white;fill-rule:nonzero;"/>
    </g>
</svg>
