<?xml version="1.0" encoding="UTF-8" standalone="no"?>
<!DOCTYPE svg PUBLIC "-//W3C//DTD SVG 1.1//EN" "http://www.w3.org/Graphics/SVG/1.1/DTD/svg11.dtd">
<svg width="100%" height="100%" viewBox="0 0 1370 300" version="1.1" xmlns="http://www.w3.org/2000/svg" xmlns:xlink="http://www.w3.org/1999/xlink" xml:space="preserve" xmlns:serif="http://www.serif.com/" style="fill-rule:evenodd;clip-rule:evenodd;stroke-linejoin:round;stroke-miterlimit:1.41421;">
    <g transform="matrix(1.05385,0,0,1,1.5304e-15,0)">
        <path d="M1255,0C1279.84,0 1300,20.164 1300,45L1300,255C1300,279.836 1279.84,300 1255,300L45,300C20.164,300 0,279.836 0,255L0,45C0,20.164 20.163,0 45,0L1255,0ZM101.665,157.968L100.868,162.748C99.275,177.886 101.665,193.822 108.039,208.163L111.226,213.741L111.226,214.537C130.348,246.408 164.609,260.749 202.056,260.749C273.764,260.749 332.724,229.676 360.611,162.748C378.936,163.545 397.262,158.764 406.026,141.236L408.416,137.252L404.432,134.862C394.075,128.488 379.733,127.691 367.782,130.878C366.188,118.13 358.221,107.772 347.863,99.804L343.879,96.617L340.692,100.601C334.318,107.772 331.928,120.52 332.724,130.081C333.521,137.252 335.911,144.423 339.895,150C336.708,151.594 332.724,153.187 329.537,154.781C322.367,157.171 315.196,157.967 308.025,157.968L101.665,157.968ZM162.218,217.724C153.454,217.724 145.487,210.553 145.487,201.789C145.487,193.025 152.657,185.854 162.218,185.854C171.78,185.854 178.95,193.025 178.95,201.789C178.95,210.553 170.983,217.724 162.218,217.724ZM265,118.13L233.927,118.13L233.927,149.203L265,149.203L265,118.13ZM303.244,118.13L272.171,118.13L272.171,149.203L303.244,149.203L303.244,118.13ZM187.715,118.13L156.641,118.13L156.641,149.203L187.715,149.203L187.715,118.13ZM226.756,118.13L195.682,118.13L195.682,149.203L226.756,149.203L226.756,118.13ZM149.47,118.13L118.397,118.13L118.397,149.203L149.47,149.203L149.47,118.13ZM265,79.089L233.927,79.089L233.927,110.162L265,110.162L265,79.089ZM226.756,79.089L195.682,79.089L195.682,110.162L226.756,110.162L226.756,79.089ZM187.715,79.089L156.641,79.089L156.641,110.162L187.715,110.162L187.715,79.089ZM265,39.251L233.927,39.251L233.927,70.324L265,70.324L265,39.251Z" style="fill:rgb(34,184,235);"/>
    </g>
    <g transform="matrix(1,0,0,1,66.1876,-92.3407)">
        <path d="M442.848,273.403L442.848,206.184L461.41,206.184C485.098,206.184 496.942,217.106 496.942,238.95C496.942,249.325 493.653,257.661 487.074,263.958C480.496,270.255 471.692,273.403 460.66,273.403L442.848,273.403ZM450.723,213.309L450.723,266.278L460.754,266.278C469.567,266.278 476.426,263.919 481.332,259.2C486.239,254.481 488.692,247.794 488.692,239.138C488.692,221.919 479.535,213.309 461.223,213.309L450.723,213.309Z" style="fill:white;fill-rule:nonzero;"/>
        <path d="M547.707,251.325L513.817,251.325C513.942,256.669 515.379,260.794 518.129,263.7C520.879,266.606 524.66,268.059 529.473,268.059C534.879,268.059 539.848,266.278 544.379,262.716L544.379,269.934C540.16,272.997 534.582,274.528 527.645,274.528C520.864,274.528 515.535,272.349 511.66,267.989C507.785,263.63 505.848,257.497 505.848,249.591C505.848,242.122 507.965,236.036 512.199,231.333C516.434,226.63 521.692,224.278 527.973,224.278C534.254,224.278 539.114,226.309 542.551,230.372C545.989,234.434 547.707,240.075 547.707,247.294L547.707,251.325ZM539.832,244.809C539.801,240.372 538.731,236.919 536.621,234.45C534.512,231.981 531.582,230.747 527.832,230.747C524.207,230.747 521.129,232.044 518.598,234.638C516.067,237.231 514.504,240.622 513.91,244.809L539.832,244.809Z" style="fill:white;fill-rule:nonzero;"/>
        <path d="M567.207,266.466L567.02,266.466L567.02,295.481L559.332,295.481L559.332,225.403L567.02,225.403L567.02,233.841L567.207,233.841C570.989,227.466 576.52,224.278 583.801,224.278C589.989,224.278 594.817,226.427 598.285,230.724C601.754,235.02 603.489,240.778 603.489,247.997C603.489,256.028 601.535,262.458 597.629,267.286C593.723,272.114 588.379,274.528 581.598,274.528C575.379,274.528 570.582,271.841 567.207,266.466ZM567.02,247.106L567.02,253.809C567.02,257.778 568.309,261.145 570.887,263.911C573.465,266.677 576.739,268.059 580.707,268.059C585.364,268.059 589.012,266.278 591.653,262.716C594.293,259.153 595.614,254.2 595.614,247.856C595.614,242.513 594.379,238.325 591.91,235.294C589.442,232.263 586.098,230.747 581.879,230.747C577.41,230.747 573.817,232.302 571.098,235.411C568.379,238.52 567.02,242.419 567.02,247.106Z" style="fill:white;fill-rule:nonzero;"/>
        <rect x="615.77" y="202.341" width="7.688" height="71.063" style="fill:white;fill-rule:nonzero;"/>
        <path d="M659.082,274.528C651.989,274.528 646.324,272.286 642.09,267.802C637.856,263.317 635.739,257.372 635.739,249.966C635.739,241.903 637.942,235.606 642.348,231.075C646.754,226.544 652.707,224.278 660.207,224.278C667.364,224.278 672.949,226.481 676.965,230.888C680.981,235.294 682.989,241.403 682.989,249.216C682.989,256.872 680.824,263.005 676.496,267.614C672.168,272.224 666.364,274.528 659.082,274.528ZM659.645,230.747C654.707,230.747 650.801,232.427 647.926,235.786C645.051,239.145 643.614,243.778 643.614,249.684C643.614,255.372 645.067,259.856 647.973,263.138C650.879,266.419 654.77,268.059 659.645,268.059C664.614,268.059 668.434,266.45 671.106,263.231C673.778,260.013 675.114,255.434 675.114,249.497C675.114,243.497 673.778,238.872 671.106,235.622C668.434,232.372 664.614,230.747 659.645,230.747Z" style="fill:white;fill-rule:nonzero;"/>
        <path d="M733.473,225.403L711.395,281.091C707.457,291.028 701.926,295.997 694.801,295.997C692.801,295.997 691.129,295.794 689.785,295.388L689.785,288.497C691.442,289.059 692.957,289.341 694.332,289.341C698.207,289.341 701.114,287.028 703.051,282.403L706.895,273.309L688.145,225.403L696.676,225.403L709.66,262.341C709.817,262.809 710.145,264.028 710.645,265.997L710.926,265.997C711.082,265.247 711.395,264.059 711.864,262.434L725.504,225.403L733.473,225.403Z" style="fill:white;fill-rule:nonzero;"/>
        <path d="M790.285,272.934C788.473,273.934 786.082,274.434 783.114,274.434C774.707,274.434 770.504,269.747 770.504,260.372L770.504,231.966L762.254,231.966L762.254,225.403L770.504,225.403L770.504,213.684L778.192,211.2L778.192,225.403L790.285,225.403L790.285,231.966L778.192,231.966L778.192,259.013C778.192,262.231 778.739,264.528 779.832,265.903C780.926,267.278 782.739,267.966 785.27,267.966C787.207,267.966 788.879,267.434 790.285,266.372L790.285,272.934Z" style="fill:white;fill-rule:nonzero;"/>
        <path d="M820.614,274.528C813.52,274.528 807.856,272.286 803.621,267.802C799.387,263.317 797.27,257.372 797.27,249.966C797.27,241.903 799.473,235.606 803.879,231.075C808.285,226.544 814.239,224.278 821.739,224.278C828.895,224.278 834.481,226.481 838.496,230.888C842.512,235.294 844.52,241.403 844.52,249.216C844.52,256.872 842.356,263.005 838.028,267.614C833.699,272.224 827.895,274.528 820.614,274.528ZM821.176,230.747C816.239,230.747 812.332,232.427 809.457,235.786C806.582,239.145 805.145,243.778 805.145,249.684C805.145,255.372 806.598,259.856 809.504,263.138C812.41,266.419 816.301,268.059 821.176,268.059C826.145,268.059 829.965,266.45 832.637,263.231C835.309,260.013 836.645,255.434 836.645,249.497C836.645,243.497 835.309,238.872 832.637,235.622C829.965,232.372 826.145,230.747 821.176,230.747Z" style="fill:white;fill-rule:nonzero;"/>
        <path d="M883.614,273.403L883.614,206.184L903.02,206.184C927.801,206.184 940.192,217.106 940.192,238.95C940.192,249.325 936.754,257.661 929.879,263.958C923.004,270.255 913.785,273.403 902.223,273.403L883.614,273.403ZM894.723,215.653L894.723,263.981L903.629,263.981C911.473,263.981 917.574,261.825 921.934,257.513C926.293,253.2 928.473,247.106 928.473,239.231C928.473,223.513 920.332,215.653 904.051,215.653L894.723,215.653Z" style="fill:white;fill-rule:nonzero;"/>
        <path d="M972.535,274.528C965.129,274.528 959.215,272.286 954.793,267.802C950.371,263.317 948.16,257.372 948.16,249.966C948.16,241.903 950.465,235.606 955.074,231.075C959.684,226.544 965.895,224.278 973.707,224.278C981.207,224.278 987.051,226.481 991.239,230.888C995.426,235.294 997.52,241.403 997.52,249.216C997.52,256.872 995.262,263.005 990.746,267.614C986.231,272.224 980.16,274.528 972.535,274.528ZM973.051,232.95C968.801,232.95 965.442,234.434 962.973,237.403C960.504,240.372 959.27,244.466 959.27,249.684C959.27,254.716 960.52,258.677 963.02,261.567C965.52,264.458 968.864,265.903 973.051,265.903C977.332,265.903 980.621,264.481 982.918,261.638C985.215,258.794 986.364,254.747 986.364,249.497C986.364,244.216 985.215,240.138 982.918,237.263C980.621,234.388 977.332,232.95 973.051,232.95Z" style="fill:white;fill-rule:nonzero;"/>
        <path d="M1042.94,271.2C1039.1,273.419 1034.55,274.528 1029.3,274.528C1022.18,274.528 1016.43,272.302 1012.05,267.849C1007.68,263.395 1005.49,257.622 1005.49,250.528C1005.49,242.622 1007.84,236.27 1012.54,231.474C1017.25,226.677 1023.53,224.278 1031.41,224.278C1035.79,224.278 1039.64,225.044 1042.99,226.575L1042.99,236.7C1039.64,234.2 1036.08,232.95 1032.3,232.95C1027.71,232.95 1023.94,234.505 1021,237.614C1018.07,240.724 1016.6,244.794 1016.6,249.825C1016.6,254.794 1017.98,258.716 1020.75,261.591C1023.51,264.466 1027.22,265.903 1031.88,265.903C1035.79,265.903 1039.47,264.513 1042.94,261.731L1042.94,271.2Z" style="fill:white;fill-rule:nonzero;"/>
        <path d="M1097.27,273.403L1083.49,273.403L1064.83,250.341L1064.64,250.341L1064.64,273.403L1053.72,273.403L1053.72,202.341L1064.64,202.341L1064.64,247.388L1064.83,247.388L1082.46,225.403L1095.54,225.403L1075.71,248.559L1097.27,273.403Z" style="fill:white;fill-rule:nonzero;"/>
        <path d="M1143.07,252.356L1110.35,252.356C1110.47,256.794 1111.84,260.216 1114.45,262.622C1117.06,265.028 1120.64,266.231 1125.21,266.231C1130.33,266.231 1135.04,264.7 1139.32,261.638L1139.32,270.403C1134.94,273.153 1129.16,274.528 1121.97,274.528C1114.91,274.528 1109.37,272.349 1105.36,267.989C1101.34,263.63 1099.33,257.497 1099.33,249.591C1099.33,242.122 1101.54,236.036 1105.96,231.333C1110.39,226.63 1115.88,224.278 1122.44,224.278C1129,224.278 1134.08,226.388 1137.68,230.606C1141.27,234.825 1143.07,240.684 1143.07,248.184L1143.07,252.356ZM1132.57,244.669C1132.54,240.763 1131.61,237.724 1129.8,235.552C1127.99,233.38 1125.49,232.294 1122.3,232.294C1119.18,232.294 1116.53,233.434 1114.36,235.716C1112.18,237.997 1110.85,240.981 1110.35,244.669L1132.57,244.669Z" style="fill:white;fill-rule:nonzero;"/>
        <path d="M1181.27,235.763C1179.96,234.731 1178.07,234.216 1175.6,234.216C1172.38,234.216 1169.69,235.669 1167.54,238.575C1165.38,241.481 1164.3,245.434 1164.3,250.434L1164.3,273.403L1153.43,273.403L1153.43,225.403L1164.3,225.403L1164.3,235.294L1164.49,235.294C1165.55,231.919 1167.18,229.286 1169.39,227.395C1171.59,225.505 1174.05,224.559 1176.77,224.559C1178.74,224.559 1180.24,224.856 1181.27,225.45L1181.27,235.763Z" style="fill:white;fill-rule:nonzero;"/>
    </g>
</svg>
