<?xml version="1.0" standalone="no"?>
<!DOCTYPE svg PUBLIC "-//W3C//DTD SVG 20010904//EN"
 "http://www.w3.org/TR/2001/REC-SVG-20010904/DTD/svg10.dtd">
<svg version="1.0" xmlns="http://www.w3.org/2000/svg"
 width="700.000000pt" height="700.000000pt" viewBox="0 0 700.000000 700.000000"
 preserveAspectRatio="xMidYMid meet">
<metadata>
Created by potrace 1.11, written by Peter Selinger 2001-2013
</metadata>
<g transform="translate(0.000000,700.000000) scale(0.100000,-0.100000)"
fill="#000000" stroke="none">
<path d="M5905 6088 c-85 -102 -218 -230 -336 -323 -41 -33 -78 -63 -84 -67
-50 -41 -141 -108 -147 -108 -4 0 -14 26 -23 58 -21 71 -44 122 -57 122 -5 0
-14 -15 -20 -32 -19 -54 -86 -176 -151 -277 l-62 -93 -180 -121 c-273 -182
-383 -277 -524 -452 -31 -38 -58 -72 -61 -75 -14 -12 -139 -193 -267 -386
-116 -173 -160 -230 -249 -320 -60 -61 -134 -131 -164 -157 -30 -25 -89 -77
-130 -116 -41 -39 -78 -71 -81 -71 -3 0 -4 48 -2 108 1 59 -1 123 -6 144 l-9
36 47 12 c62 16 107 45 141 92 30 41 34 93 8 110 -12 7 -52 12 -71 9 -5 -1 -6
6 -3 16 3 10 17 58 31 108 68 236 188 467 297 572 57 54 117 85 154 78 43 -8
148 -8 173 0 28 8 28 46 0 71 -17 16 -36 19 -108 19 -101 0 -176 -23 -227 -67
-52 -46 -169 -206 -219 -300 -45 -85 -105 -249 -105 -287 0 -16 -6 -20 -25
-19 -14 1 -25 7 -25 13 0 24 41 365 50 415 5 30 12 73 16 95 10 70 54 257 80
345 59 195 158 340 221 323 41 -11 107 -7 139 9 53 25 48 105 -9 134 -60 31
-166 -5 -243 -82 -18 -17 -53 -74 -77 -126 -113 -237 -192 -603 -204 -948 -4
-110 -10 -178 -17 -183 -10 -7 -184 -3 -191 5 -1 2 -5 67 -9 145 -4 79 -9 162
-12 185 -16 125 -47 303 -70 392 -49 195 -161 499 -201 546 -67 80 -194 111
-247 61 -47 -44 -37 -113 19 -131 41 -14 100 -16 137 -7 23 6 32 1 63 -36 101
-117 206 -490 280 -997 8 -58 18 -117 21 -131 4 -22 1 -27 -20 -31 -22 -5 -25
-1 -32 35 -25 149 -124 340 -265 513 -78 96 -159 133 -289 134 -64 0 -100 -15
-117 -50 -10 -20 -10 -28 1 -38 15 -15 105 -19 173 -8 104 18 228 -104 343
-339 55 -112 130 -312 149 -397 8 -35 7 -38 -13 -38 -46 0 -59 -49 -32 -114
15 -36 78 -86 108 -86 16 0 16 -3 2 -42 -10 -28 -15 -74 -14 -128 3 -134 6
-127 -37 -94 -21 15 -74 65 -119 110 -80 81 -81 82 -237 395 -214 430 -264
504 -459 679 -417 375 -605 570 -697 723 -12 20 -25 37 -28 37 -3 0 -21 -9
-39 -21 -41 -25 -84 -79 -115 -142 -13 -26 -25 -47 -28 -47 -4 1 -18 17 -32
38 -14 20 -55 78 -91 127 -87 121 -196 303 -238 398 -18 43 -38 76 -44 74 -17
-6 -55 -110 -86 -236 -44 -181 -54 -267 -55 -471 0 -173 8 -262 34 -392 l19
-89 -77 7 c-42 3 -85 8 -96 10 -10 2 -64 7 -120 10 -55 4 -118 8 -140 9 -22 2
-136 7 -254 11 l-214 7 7 -29 c25 -102 227 -323 501 -549 33 -27 65 -54 72
-60 18 -14 33 -26 78 -60 58 -43 76 -57 101 -81 13 -12 25 -19 28 -17 3 3 8
-2 12 -11 3 -9 12 -16 19 -16 6 0 20 -9 30 -20 10 -11 23 -20 29 -20 7 0 18
-9 26 -19 7 -11 17 -18 22 -15 4 3 8 0 8 -5 0 -6 3 -10 8 -9 4 1 28 -11 54
-27 35 -22 46 -34 42 -47 -5 -17 47 -73 69 -73 7 0 18 -4 25 -8 7 -5 12 -3 12
4 0 7 3 9 6 6 4 -3 15 -2 25 4 15 7 22 4 35 -16 9 -15 23 -24 30 -21 8 3 14 1
14 -4 0 -5 6 -7 14 -4 7 3 20 -1 27 -8 8 -7 21 -13 29 -13 8 0 21 -5 28 -12 8
-7 18 -11 23 -7 5 3 8 0 7 -7 -2 -6 3 -14 11 -17 9 -3 11 0 6 8 -5 9 -4 11 4
6 6 -4 8 -12 5 -18 -5 -7 -1 -9 9 -5 27 10 50 -2 36 -19 -8 -9 -8 -14 -1 -14
6 0 14 5 17 11 5 6 13 3 22 -10 8 -12 17 -19 21 -17 4 2 18 -2 32 -10 14 -7
20 -13 13 -14 -6 0 -11 -9 -10 -20 1 -22 22 -22 22 0 0 7 7 15 15 17 12 4 12
3 2 -5 -8 -5 -14 -13 -14 -18 0 -5 -3 -15 -5 -22 -9 -21 -31 6 -28 34 2 18 -2
24 -11 20 -7 -3 -16 -1 -19 4 -8 13 -25 13 -25 1 0 -5 9 -13 20 -16 11 -3 20
-10 20 -15 0 -5 -8 -7 -17 -4 -15 5 -15 3 2 -10 19 -16 19 -16 -5 -12 -14 2
-31 5 -39 5 -8 1 -11 7 -7 18 4 10 4 14 0 10 -4 -4 -14 -1 -23 5 -13 10 -14
10 -4 -2 18 -20 16 -29 -7 -27 -11 1 -20 4 -20 7 0 3 -15 6 -32 6 -56 0 -148
13 -168 24 -12 7 -20 7 -20 1 0 -12 -73 7 -82 23 -6 8 -8 8 -8 -1 0 -9 -7 -10
-23 -4 -13 5 -37 12 -53 14 -46 8 -149 36 -292 79 -74 22 -136 37 -139 34 -4
-3 2 -22 13 -41 64 -119 266 -335 439 -469 61 -46 120 -93 132 -104 12 -11 23
-18 25 -17 2 2 14 -5 28 -17 14 -11 19 -16 11 -12 -9 4 -12 3 -7 -4 4 -6 14
-8 23 -5 12 5 14 3 8 -7 -5 -9 -4 -11 3 -6 11 7 62 -20 62 -33 0 -3 -10 -11
-23 -17 -38 -18 -131 -69 -142 -77 -5 -4 -57 -40 -114 -79 -107 -73 -345 -297
-426 -400 -22 -28 -45 -56 -50 -62 -38 -41 -166 -234 -223 -336 -61 -110 -138
-311 -158 -415 -2 -11 -6 -30 -8 -42 -3 -13 -1 -25 4 -28 14 -9 265 -20 455
-19 418 0 707 39 1060 140 290 84 607 249 845 440 96 77 310 286 310 303 0 6
3 11 8 11 4 0 25 22 47 49 21 28 43 47 48 44 6 -3 7 -2 4 4 -7 11 19 53 34 53
7 0 7 -29 -1 -50 -1 -3 -2 -13 -1 -22 1 -10 -4 -18 -11 -18 -8 0 -9 -3 -3 -8
14 -9 13 -135 0 -144 -7 -5 -7 -8 0 -8 6 0 11 -21 11 -48 1 -26 5 -76 10 -112
4 -36 8 -77 9 -92 0 -14 3 -24 8 -21 4 2 7 -4 7 -13 0 -11 3 -14 9 -9 16 19
77 141 96 193 10 28 21 52 24 52 4 0 7 15 8 32 2 18 7 34 13 36 6 2 8 8 4 13
-3 5 1 23 10 39 8 17 10 27 4 24 -7 -4 -7 0 0 12 6 11 10 22 11 27 1 4 2 10 2
15 1 4 1 15 0 25 -1 9 1 17 6 17 4 0 9 15 9 34 1 18 5 51 9 72 8 44 19 33 30
-31 4 -22 8 -44 9 -50 2 -5 6 -23 10 -40 4 -16 11 -39 16 -50 4 -11 25 -63 45
-115 110 -285 359 -635 583 -819 198 -162 468 -308 803 -434 125 -48 192 -70
431 -143 116 -35 665 -164 699 -164 25 0 47 192 43 390 -2 91 -5 181 -8 200
-20 131 -31 188 -56 290 -106 424 -338 835 -630 1113 -50 48 -117 105 -150
127 -55 37 -72 53 -52 48 4 -1 27 8 52 20 25 12 154 70 287 129 133 60 252
117 266 128 29 25 48 72 50 124 1 23 7 41 12 41 6 0 5 4 -1 8 -7 4 -14 24 -17
45 -4 30 -2 37 9 33 7 -3 16 -1 19 4 4 6 11 10 17 10 6 0 6 -6 -2 -15 -10 -12
-10 -19 -2 -27 7 -7 12 -8 12 -2 0 5 5 2 11 -6 9 -13 10 -13 6 0 -2 8 -10 14
-16 12 -13 -3 -15 14 -2 23 5 3 12 1 16 -5 3 -5 12 -10 18 -10 7 0 5 5 -5 10
-9 6 -14 18 -11 29 3 10 0 22 -5 25 -6 4 -8 -3 -5 -16 4 -22 4 -22 -10 -5 -14
17 -15 16 -20 -4 -5 -18 -8 -19 -27 -9 -17 9 -19 14 -10 23 10 9 14 9 17 0 3
-8 11 -5 24 8 13 13 27 18 41 13 14 -4 18 -2 14 5 -5 7 -1 8 10 4 16 -6 15 -7
-1 -20 -10 -7 -16 -15 -13 -18 9 -10 37 25 32 39 -8 21 27 28 47 10 11 -10 19
-22 19 -27 0 -6 -11 0 -25 13 -14 13 -25 19 -25 14 0 -5 9 -16 19 -24 11 -7
18 -17 15 -22 -3 -4 -1 -8 4 -8 19 0 22 31 6 56 -10 15 -12 24 -5 24 6 0 13
-1 14 -2 2 -2 11 3 20 11 15 12 17 11 17 -3 0 -11 -5 -15 -12 -10 -10 6 -10 4
0 -7 6 -7 12 -18 12 -23 -1 -6 -10 0 -20 13 -11 13 -20 19 -20 14 0 -13 40
-48 42 -37 0 5 2 14 3 19 2 6 3 20 4 33 0 12 5 22 11 22 5 0 35 12 67 27 32
14 64 25 72 24 8 -1 10 2 5 10 -4 8 -3 10 4 5 7 -4 12 -3 12 2 0 5 12 14 28
21 l27 12 -25 -21 c-14 -11 -20 -20 -15 -20 6 0 3 -5 -5 -11 -10 -7 -11 -9 -2
-7 8 2 12 6 11 8 -5 8 45 57 54 52 4 -2 5 -8 2 -13 -4 -5 1 -12 9 -15 9 -3 14
-9 12 -13 -3 -4 5 -8 17 -8 20 -2 20 -1 -3 15 -33 22 -38 52 -11 59 12 3 21
10 21 15 0 5 5 6 10 3 6 -3 10 -1 10 5 0 6 5 8 10 5 6 -3 10 -1 10 4 0 6 7 11
15 11 8 0 15 3 15 8 0 4 18 18 40 32 22 14 40 28 40 33 0 4 4 6 8 3 5 -3 15 4
22 15 8 10 18 19 22 19 9 0 102 85 166 152 25 26 50 44 55 41 6 -3 7 -1 4 4
-6 9 20 52 43 73 3 3 19 25 35 50 16 25 32 47 35 50 15 15 50 104 43 110 -6 6
-187 41 -333 65 -8 1 -31 5 -50 8 -19 4 -57 9 -85 12 -27 3 -63 9 -80 12 -16
4 -37 7 -45 8 -54 5 -178 21 -187 24 -1 1 12 31 28 67 113 250 170 529 164
809 -4 169 -7 200 -35 303 -29 107 -77 197 -137 258 -30 30 -57 54 -62 54 -5
0 -21 -15 -36 -32z m-4805 -2133 c7 -8 16 -12 21 -9 5 3 12 -2 15 -10 3 -9 10
-13 15 -10 5 3 9 0 9 -6 0 -6 5 -8 12 -4 6 4 8 3 5 -3 -7 -11 -73 -11 -84 0
-13 13 6 18 26 8 17 -9 20 -9 15 3 -3 8 -16 13 -32 11 -27 -3 -52 10 -52 26 0
15 37 10 50 -6z m150 -69 c0 -3 -4 -8 -10 -11 -5 -3 -10 -1 -10 4 0 6 5 11 10
11 6 0 10 -2 10 -4z m325 -154 c-3 -3 -11 0 -18 7 -9 10 -8 11 6 5 10 -3 15
-9 12 -12z m71 -32 c0 -12 -4 -16 -9 -11 -5 5 -6 14 -3 20 10 15 12 14 12 -9z
m-22 -18 c2 -4 0 -14 -6 -22 -8 -12 -9 -12 -5 2 3 9 1 19 -6 22 -9 3 -9 5 0 5
6 1 14 -3 17 -7z m3009 -230 c-10 12 -10 15 2 15 8 0 15 -6 15 -14 0 -7 4 -13
10 -13 5 0 8 6 6 13 -1 6 -1 8 2 3 2 -4 8 -2 13 5 6 9 9 10 9 2 0 -6 -6 -15
-12 -20 -18 -11 -68 -11 -68 0 0 5 -6 4 -14 -2 -10 -8 -16 -9 -21 -1 -3 6 -11
8 -16 5 -5 -4 -9 -1 -9 4 0 15 13 14 29 -1 11 -11 13 -10 8 5 -6 16 -5 16 26
1 26 -14 30 -14 20 -2z m-173 2 c0 -8 -19 -13 -24 -6 -3 5 1 9 9 9 8 0 15 -2
15 -3z m54 -5 c3 -3 -5 -5 -19 -5 -13 0 -22 3 -19 7 4 8 30 6 38 -2z"/>
<path d="M773 4105 c0 -8 4 -12 9 -9 5 3 6 10 3 15 -9 13 -12 11 -12 -6z"/>
<path d="M6490 4100 c0 -5 5 -10 11 -10 5 0 7 5 4 10 -3 6 -8 10 -11 10 -2 0
-4 -4 -4 -10z"/>
<path d="M6460 4060 c-12 -7 -10 -9 7 -7 12 0 19 5 17 9 -6 10 -6 10 -24 -2z"/>
<path d="M953 4025 c0 -8 4 -15 9 -15 4 0 8 4 8 9 0 6 -4 12 -8 15 -5 3 -9 -1
-9 -9z"/>
<path d="M816 4022 c-2 -4 -1 -14 4 -22 7 -11 9 -9 7 8 -1 24 -3 26 -11 14z"/>
<path d="M6476 4007 c3 -10 9 -15 12 -12 3 3 0 11 -7 18 -10 9 -11 8 -5 -6z"/>
<path d="M919 3992 c-13 -15 -12 -16 3 -4 13 10 17 10 21 0 4 -9 6 -9 6 -1 2
20 -16 24 -30 5z"/>
<path d="M980 4006 c0 -2 7 -7 16 -10 8 -3 12 -2 9 4 -6 10 -25 14 -25 6z"/>
<path d="M855 3980 c3 -5 8 -10 11 -10 2 0 4 5 4 10 0 6 -5 10 -11 10 -5 0 -7
-4 -4 -10z"/>
<path d="M975 3980 c-3 -6 1 -13 9 -16 9 -3 16 -10 16 -16 0 -5 -5 -6 -12 -2
-7 5 -8 3 -3 -5 5 -10 10 -10 19 -1 8 8 7 15 -6 24 -10 7 -15 16 -11 19 3 4 4
7 0 7 -3 0 -9 -5 -12 -10z"/>
<path d="M1015 3980 c-3 -5 -1 -10 4 -10 6 0 11 5 11 10 0 6 -2 10 -4 10 -3 0
-8 -4 -11 -10z"/>
<path d="M946 3960 c5 -8 9 -21 10 -28 2 -8 5 -17 8 -20 4 -3 5 4 3 16 -2 12
-9 28 -17 35 -10 10 -11 9 -4 -3z"/>
<path d="M6360 3966 c0 -2 8 -10 18 -17 15 -13 16 -12 3 4 -13 16 -21 21 -21
13z"/>
<path d="M895 3940 c3 -5 8 -10 11 -10 2 0 4 5 4 10 0 6 -5 10 -11 10 -5 0 -7
-4 -4 -10z"/>
<path d="M6291 3931 c-8 -5 -9 -11 -3 -15 5 -3 12 1 16 9 6 17 6 18 -13 6z"/>
<path d="M1010 3918 c0 -6 7 -7 16 -4 11 4 15 2 11 -8 -6 -15 17 -16 30 -1 4
4 3 5 -4 2 -6 -4 -13 -2 -15 5 -5 14 -38 20 -38 6z"/>
<path d="M6355 3921 c-3 -5 -2 -12 3 -15 5 -3 9 1 9 9 0 17 -3 19 -12 6z"/>
<path d="M1184 3885 c-4 -8 -11 -12 -17 -8 -6 3 -7 1 -3 -5 9 -14 1 -15 -23
-3 -23 13 -44 -1 -47 -31 -2 -13 0 -17 2 -11 3 7 5 15 4 19 -4 15 23 21 46 10
27 -12 32 -26 10 -26 -20 0 -29 -17 -15 -26 8 -5 9 -3 4 6 -6 10 -4 12 8 7 16
-6 32 18 21 34 -3 5 -1 9 5 9 16 0 23 -20 12 -34 -6 -7 -8 -21 -5 -30 6 -15 7
-15 19 1 8 10 17 14 22 9 4 -5 2 -11 -4 -13 -7 -3 -13 -9 -13 -14 0 -5 9 -4
19 3 15 9 17 15 9 25 -7 9 -7 13 0 13 6 0 16 -9 22 -19 8 -16 6 -21 -10 -26
-11 -3 -20 -14 -20 -23 0 -14 2 -13 13 2 11 15 17 16 35 7 12 -6 26 -10 33 -9
6 2 13 -2 16 -9 4 -12 -15 -11 -59 3 -14 4 -18 2 -14 -5 4 -6 15 -11 25 -11
10 0 24 -7 31 -15 7 -8 16 -12 22 -9 5 3 16 0 24 -7 9 -8 18 -9 22 -3 9 12 32
16 32 5 0 -5 7 -12 16 -15 12 -5 14 -3 8 6 -5 7 -9 20 -9 28 1 21 20 24 20 2
0 -9 6 -18 13 -18 37 -4 37 -4 24 -13 -11 -7 -11 -9 1 -14 15 -6 17 9 4 30 -4
6 -4 18 -1 27 5 12 1 16 -17 14 -18 -2 -23 1 -21 15 5 29 -13 19 -36 -20 -14
-23 -22 -30 -20 -18 2 11 10 25 18 32 13 9 11 13 -13 24 -15 7 -27 16 -27 20
0 7 -34 22 -52 24 -4 0 -13 6 -19 13 -19 18 -32 15 -25 -5 5 -15 4 -15 -9 1
-8 11 -15 14 -15 8 0 -7 -5 -12 -11 -12 -5 0 -8 4 -5 9 6 9 -22 26 -36 23 -5
-1 -8 5 -8 14 0 9 5 12 12 8 7 -4 8 -3 4 4 -10 16 -15 15 -22 -3z m28 -71
c-21 -15 -29 -9 -13 10 7 8 10 21 6 28 -4 7 0 4 9 -6 14 -17 14 -20 -2 -32z
m112 3 c4 4 4 -1 0 -12 -7 -18 -6 -18 9 -6 15 12 21 9 18 -11 0 -5 4 -9 9 -9
6 -1 15 -3 20 -4 6 -1 16 -3 23 -4 9 -1 8 -4 -2 -10 -8 -5 -16 -17 -17 -27 -4
-27 -22 -40 -30 -20 -5 12 -10 14 -19 6 -10 -8 -15 -8 -21 1 -4 7 -3 9 4 5 15
-9 26 14 13 27 -12 12 -16 13 -48 16 -9 0 -13 4 -10 8 4 3 0 18 -10 32 -15 24
-15 25 0 12 16 -13 22 -8 17 14 -1 5 7 2 18 -8 10 -9 22 -14 26 -10z m156 -81
c0 -2 -8 -10 -17 -17 -16 -13 -17 -12 -4 4 13 16 21 21 21 13z"/>
<path d="M1285 3810 c-6 -9 -4 -11 4 -6 8 5 11 3 9 -6 -2 -7 0 -13 4 -13 3 0
17 -9 30 -21 23 -21 59 -44 46 -29 -4 4 -2 15 4 24 7 9 9 13 4 9 -13 -11 -48
11 -40 25 5 8 2 8 -7 -1 -11 -10 -16 -9 -30 9 -12 17 -18 19 -24 9z m79 -59
c-2 -3 -12 3 -22 13 -16 17 -16 18 5 5 12 -7 20 -15 17 -18z"/>
<path d="M1074 3881 c4 -5 1 -12 -4 -14 -6 -3 -5 -4 2 -3 15 3 23 26 8 26 -6
0 -9 -4 -6 -9z"/>
<path d="M6255 3880 c3 -5 8 -10 11 -10 2 0 4 5 4 10 0 6 -5 10 -11 10 -5 0
-7 -4 -4 -10z"/>
<path d="M1027 3866 c-4 -10 -1 -13 8 -9 8 3 12 9 9 14 -7 12 -11 11 -17 -5z"/>
<path d="M916 3853 c-6 -14 -5 -15 5 -6 7 7 10 15 7 18 -3 3 -9 -2 -12 -12z"/>
<path d="M6190 3860 c0 -5 5 -10 10 -10 6 0 10 5 10 10 0 6 -4 10 -10 10 -5 0
-10 -4 -10 -10z"/>
<path d="M6306 3862 c-3 -5 1 -9 9 -9 8 0 15 4 15 9 0 4 -4 8 -9 8 -6 0 -12
-4 -15 -8z"/>
<path d="M6157 3849 c7 -7 15 -10 18 -7 3 3 -2 9 -12 12 -14 6 -15 5 -6 -5z"/>
<path d="M6240 3851 l-25 -7 26 -5 c17 -4 26 -1 26 8 0 7 -1 13 -1 12 -1 -1
-12 -4 -26 -8z"/>
<path d="M1046 3838 c3 -5 10 -6 15 -3 13 9 11 12 -6 12 -8 0 -12 -4 -9 -9z"/>
<path d="M1116 3833 c-6 -14 -5 -15 5 -6 7 7 10 15 7 18 -3 3 -9 -2 -12 -12z"/>
<path d="M6353 3835 c0 -8 4 -12 9 -9 4 3 8 9 8 15 0 5 -4 9 -8 9 -5 0 -9 -7
-9 -15z"/>
<path d="M6170 3826 c0 -3 9 -10 20 -16 11 -6 20 -8 20 -6 0 3 -9 10 -20 16
-11 6 -20 8 -20 6z"/>
<path d="M1114 3793 c2 -10 -2 -25 -8 -33 -9 -13 -9 -13 6 -2 16 12 18 35 6
48 -4 3 -5 -2 -4 -13z"/>
<path d="M6245 3799 c-3 -4 2 -6 10 -5 21 3 28 13 10 13 -9 0 -18 -4 -20 -8z"/>
<path d="M6416 3802 c-3 -5 1 -9 9 -9 8 0 12 4 9 9 -3 4 -7 8 -9 8 -2 0 -6 -4
-9 -8z"/>
<path d="M6019 3778 c-1 -7 -1 -19 0 -27 2 -8 -2 -10 -10 -5 -8 4 -10 3 -5 -5
11 -17 24 -5 24 24 0 26 -7 35 -9 13z"/>
<path d="M6099 3783 c-1 -5 -1 -10 -1 -14 0 -3 -9 -11 -20 -18 -18 -11 -20
-11 -15 4 4 9 3 14 -3 10 -6 -3 -10 -1 -10 6 0 7 -3 10 -6 7 -3 -4 0 -16 6
-28 9 -16 15 -19 23 -11 15 15 30 14 21 -1 -4 -6 -3 -8 4 -5 5 4 9 15 8 25 -2
10 5 20 18 24 21 6 20 6 -1 7 -13 1 -24 -2 -24 -6z"/>
<path d="M6370 3780 c0 -5 5 -10 11 -10 5 0 7 5 4 10 -3 6 -8 10 -11 10 -2 0
-4 -4 -4 -10z"/>
<path d="M1066 3758 c3 -5 10 -6 15 -3 13 9 11 12 -6 12 -8 0 -12 -4 -9 -9z"/>
<path d="M1159 3759 c-10 -7 -5 -8 14 -5 23 4 28 2 23 -10 -3 -9 -2 -12 5 -9
5 4 8 12 6 18 -4 14 -31 17 -48 6z"/>
<path d="M6125 3760 c-3 -6 1 -7 9 -4 18 7 21 14 7 14 -6 0 -13 -4 -16 -10z"/>
<path d="M5970 3753 c0 -6 4 -14 10 -18 5 -3 7 -12 4 -20 -8 -20 -37 -6 -31
16 3 12 0 16 -9 12 -16 -6 -7 -31 17 -43 26 -15 44 20 24 46 -8 11 -15 14 -15
7z"/>
<path d="M6137 3725 c3 -8 9 -12 14 -9 12 7 11 11 -5 17 -10 4 -13 1 -9 -8z"/>
<path d="M6175 3729 c-4 -6 -5 -12 -2 -15 2 -3 7 2 10 11 7 17 1 20 -8 4z"/>
<path d="M6216 3727 c3 -10 9 -15 12 -12 3 3 0 11 -7 18 -10 9 -11 8 -5 -6z"/>
<path d="M1247 3719 c7 -7 15 -10 18 -7 3 3 -2 9 -12 12 -14 6 -15 5 -6 -5z"/>
<path d="M5910 3723 c5 -2 10 -9 10 -14 0 -6 -4 -7 -10 -4 -5 3 -10 1 -10 -5
0 -7 6 -10 13 -7 16 5 16 30 -1 33 -7 1 -8 0 -2 -3z"/>
<path d="M6030 3726 c0 -2 7 -7 16 -10 8 -3 12 -2 9 4 -6 10 -25 14 -25 6z"/>
<path d="M6113 3723 c4 -3 1 -13 -6 -22 -11 -14 -10 -14 5 -2 16 12 16 31 1
31 -4 0 -3 -3 0 -7z"/>
<path d="M6253 3711 c0 -11 5 -18 9 -15 4 3 5 11 1 19 -7 21 -12 19 -10 -4z"/>
<path d="M6067 3707 c-3 -8 1 -14 8 -14 7 0 11 6 8 14 -3 7 -6 13 -8 13 -2 0
-5 -6 -8 -13z"/>
<path d="M6030 3700 c0 -5 5 -10 11 -10 5 0 7 5 4 10 -3 6 -8 10 -11 10 -2 0
-4 -4 -4 -10z"/>
<path d="M6124 3678 l-19 -23 23 19 c12 11 22 21 22 23 0 8 -8 2 -26 -19z"/>
<path d="M5948 3672 c9 -10 19 -17 21 -16 6 5 -20 34 -30 34 -5 0 -1 -8 9 -18z"/>
<path d="M5984 3678 c-4 -5 -3 -12 0 -15 3 -4 6 -1 6 6 0 7 4 10 9 6 5 -3 12
-2 15 3 3 5 -2 9 -10 9 -8 0 -17 -4 -20 -9z"/>
<path d="M5901 3666 c-8 -10 -8 -16 4 -26 8 -7 12 -16 9 -21 -3 -5 0 -9 5 -9
16 0 13 16 -4 30 -18 15 -10 31 10 24 8 -4 12 -11 8 -17 -3 -6 -1 -7 5 -3 16
10 15 14 -7 25 -14 8 -22 7 -30 -3z"/>
<path d="M6070 3656 c7 -7 13 -7 20 0 6 6 3 10 -10 10 -13 0 -16 -4 -10 -10z"/>
<path d="M6175 3660 c3 -5 8 -10 11 -10 2 0 4 5 4 10 0 6 -5 10 -11 10 -5 0
-7 -4 -4 -10z"/>
<path d="M5791 3648 c-1 -9 -6 -18 -13 -20 -8 -3 -8 -9 1 -24 10 -14 11 -15 7
-2 -3 10 -1 20 4 23 6 4 10 1 10 -6 0 -7 2 -10 5 -7 3 3 1 16 -4 29 -7 16 -10
18 -10 7z"/>
<path d="M5867 3633 c5 -12 3 -14 -7 -8 -9 5 -11 4 -6 -4 4 -6 12 -9 17 -6 12
8 12 35 -1 35 -5 0 -6 -7 -3 -17z"/>
<path d="M5975 3641 c-3 -5 -2 -12 3 -15 5 -3 9 1 9 9 0 17 -3 19 -12 6z"/>
<path d="M6026 3638 c3 -4 9 -8 15 -8 5 0 9 4 9 8 0 5 -7 9 -15 9 -8 0 -12 -4
-9 -9z"/>
<path d="M6073 3625 c0 -8 4 -12 9 -9 5 3 6 10 3 15 -9 13 -12 11 -12 -6z"/>
<path d="M6140 3620 c8 -5 20 -10 25 -10 6 0 3 5 -5 10 -8 5 -19 10 -25 10 -5
0 -3 -5 5 -10z"/>
<path d="M5816 3601 c-4 -5 3 -7 14 -4 23 6 26 13 6 13 -8 0 -17 -4 -20 -9z"/>
<path d="M5673 3571 c0 -11 5 -18 9 -15 4 3 5 11 1 19 -7 21 -12 19 -10 -4z"/>
<path d="M5825 3579 c-3 -4 2 -6 10 -5 21 3 28 13 10 13 -9 0 -18 -4 -20 -8z"/>
<path d="M5950 3580 c0 -5 5 -10 11 -10 5 0 7 5 4 10 -3 6 -8 10 -11 10 -2 0
-4 -4 -4 -10z"/>
<path d="M5758 3573 c7 -3 16 -2 19 1 4 3 -2 6 -13 5 -11 0 -14 -3 -6 -6z"/>
<path d="M5790 3576 c0 -2 8 -10 18 -17 15 -13 16 -12 3 4 -13 16 -21 21 -21
13z"/>
<path d="M5735 3550 c-3 -6 1 -7 9 -4 18 7 21 14 7 14 -6 0 -13 -4 -16 -10z"/>
<path d="M5710 3541 c0 -6 4 -13 10 -16 6 -3 7 1 4 9 -7 18 -14 21 -14 7z"/>
<path d="M5813 3525 c0 -8 4 -12 9 -9 5 3 6 10 3 15 -9 13 -12 11 -12 -6z"/>
<path d="M5770 3499 c0 -5 5 -7 10 -4 6 3 10 8 10 11 0 2 -4 4 -10 4 -5 0 -10
-5 -10 -11z"/>
</g>
</svg>
