<svg xmlns="http://www.w3.org/2000/svg" viewBox="0 0 100 100" width="100px" height="100px"><circle cx="13" cy="29" r="2" fill="#ee3e54"/><circle cx="77" cy="13" r="1" fill="#f1bc19"/><circle cx="50" cy="50" r="37" fill="#fce0a2"/><circle cx="83" cy="15" r="4" fill="#f1bc19"/><circle cx="87" cy="24" r="2" fill="#ee3e54"/><circle cx="81" cy="76" r="2" fill="#fbcd59"/><circle cx="15" cy="63" r="4" fill="#fbcd59"/><circle cx="25" cy="87" r="2" fill="#ee3e54"/><circle cx="19.5" cy="54.5" r="2.5" fill="#fff"/><circle cx="21" cy="67" r="1" fill="#f1bc19"/><circle cx="80" cy="34" r="1" fill="#fff"/><g><circle cx="50" cy="50" r="24.25" fill="#ef8f70"/><path fill="#472b29" d="M50,74.95c-13.758,0-24.95-11.192-24.95-24.95S36.242,25.05,50,25.05S74.95,36.242,74.95,50 S63.758,74.95,50,74.95z M50,26.45c-12.985,0-23.55,10.564-23.55,23.55S37.015,73.55,50,73.55S73.55,62.986,73.55,50 S62.985,26.45,50,26.45z"/></g><g><path fill="#472b29" d="M70.135,46.635c-0.235,0-0.444-0.167-0.49-0.406c-0.49-2.575-1.472-4.996-2.917-7.196 c-0.151-0.231-0.087-0.541,0.144-0.692c0.23-0.151,0.54-0.088,0.692,0.144c1.518,2.31,2.548,4.853,3.063,7.558 c0.052,0.271-0.126,0.533-0.397,0.585C70.197,46.632,70.166,46.635,70.135,46.635z"/></g><g><path fill="#472b29" d="M50,71c-11.579,0-21-9.421-21-21s9.421-21,21-21c5.525,0,10.742,2.128,14.688,5.992 c0.197,0.193,0.201,0.51,0.008,0.707c-0.191,0.197-0.51,0.201-0.707,0.007C60.23,32.027,55.262,30,50,30c-11.028,0-20,8.972-20,20 s8.972,20,20,20s20-8.972,20-20c0-0.276,0.224-0.5,0.5-0.5S71,49.724,71,50C71,61.579,61.579,71,50,71z"/></g><g><rect width="4" height="19" x="41" y="40" fill="#472b29"/><circle cx="54.5" cy="47.5" r="7.5" fill="#fff"/><path fill="#472b29" d="M61.592,45.304c-0.104,0-0.201-0.065-0.236-0.168c-0.48-1.394-1.364-2.595-2.558-3.475 c-0.111-0.082-0.135-0.239-0.053-0.35c0.082-0.111,0.239-0.134,0.35-0.053c1.275,0.94,2.22,2.225,2.733,3.715 c0.045,0.131-0.024,0.273-0.155,0.318C61.646,45.3,61.619,45.304,61.592,45.304z"/><path fill="#472b29" d="M54.5,55.25c-4.273,0-7.75-3.477-7.75-7.75s3.477-7.75,7.75-7.75c0.866,0,1.718,0.142,2.53,0.422 c0.13,0.045,0.199,0.187,0.154,0.318c-0.046,0.131-0.187,0.2-0.318,0.155c-0.759-0.262-1.556-0.395-2.366-0.395 c-3.998,0-7.25,3.252-7.25,7.25s3.252,7.25,7.25,7.25s7.25-3.252,7.25-7.25c0-0.138,0.112-0.25,0.25-0.25s0.25,0.112,0.25,0.25 C62.25,51.773,58.773,55.25,54.5,55.25z"/></g></svg>