<svg xmlns="http://www.w3.org/2000/svg" viewBox="0 0 100 100" width="100px" height="100px"><circle cx="77" cy="13" r="1" fill="#f1bc19"/><circle cx="50" cy="50" r="37" fill="#e6edb7"/><circle cx="83" cy="15" r="4" fill="#f1bc19"/><circle cx="87" cy="24" r="2" fill="#9f8066"/><circle cx="81" cy="76" r="2" fill="#fbcd59"/><circle cx="15" cy="64" r="4" fill="#fbcd59"/><circle cx="25" cy="87" r="2" fill="#9f8066"/><circle cx="29.5" cy="24.5" r="2.5" fill="#fff"/><circle cx="67.5" cy="21.5" r="1.5" fill="#fff"/><path fill="#fddbbc" d="M49.885,70.731l16.912-8.528c1.879-0.867,3.035-3.325,2.313-5.348 c-0.578-1.735-2.168-2.746-3.903-2.746c-0.578,0-1.012,0.145-1.59,0.289l-13.876,5.637"/><path fill="#472b29" d="M49.887,71.431c-0.257,0-0.503-0.141-0.626-0.385c-0.174-0.346-0.035-0.767,0.31-0.94l16.911-8.527 c1.644-0.759,2.554-2.852,1.969-4.488c-0.464-1.392-1.735-2.281-3.243-2.281c-0.389,0-0.698,0.081-1.127,0.192l-0.293,0.075 l-13.782,5.606c-0.359,0.148-0.767-0.026-0.912-0.385s0.026-0.767,0.385-0.912l14.249-5.739c0.469-0.122,0.911-0.238,1.48-0.238 c2.121,0,3.913,1.266,4.566,3.225c0.823,2.306-0.403,5.153-2.684,6.206l-16.889,8.517C50.1,71.406,49.992,71.431,49.887,71.431z"/><path fill="#fddbbc" d="M54.222,72.176l16.912-8.528c1.879-0.867,3.035-3.325,2.313-5.348 c-0.578-1.735-2.168-2.746-3.903-2.746c-0.578,0-1.012,0.145-1.59,0.289L54.077,61.48"/><path fill="#472b29" d="M54.223,72.877c-0.257,0-0.503-0.141-0.626-0.385c-0.174-0.346-0.035-0.767,0.31-0.94l16.912-8.528 c1.644-0.759,2.554-2.852,1.969-4.488c-0.464-1.392-1.735-2.281-3.244-2.281c-0.389,0-0.698,0.081-1.127,0.192l-0.293,0.075 l-13.782,5.607c-0.358,0.146-0.767-0.027-0.912-0.385c-0.146-0.358,0.026-0.767,0.385-0.912l14.249-5.74 c0.469-0.122,0.911-0.238,1.48-0.238c2.122,0,3.914,1.266,4.567,3.225c0.823,2.306-0.403,5.153-2.684,6.206l-16.89,8.518 C54.436,72.853,54.328,72.877,54.223,72.877z"/><path fill="#fddbbc" d="M23.723,52.374l7.805-2.891c1.445-0.578,2.891-0.723,4.336-0.723c2.024,0,4.047,0.434,5.782,1.445 l13.732,7.227c1.735,0.867,2.313,3.035,1.445,4.77l-0.289,0.578l1.735,1.156l14.165-5.782c0.434-0.145,0.867-0.289,1.301-0.289 c1.445,0,2.746,0.867,3.18,2.168c0.578,1.59-0.289,3.614-1.879,4.336l-16.912,8.528c-0.434,0.289-1.156,0.434-1.735,0.434 s-1.156-0.145-1.735-0.434L32.829,62.781l-9.106,3.614"/><path fill="#472b29" d="M56.39,74.033c-0.686,0-1.374-0.171-2.048-0.508l-21.534-9.982l-8.827,3.502 c-0.354,0.146-0.766-0.031-0.908-0.393c-0.143-0.359,0.033-0.766,0.393-0.908l9.106-3.613c0.178-0.072,0.378-0.067,0.552,0.016 l21.826,10.118c0.496,0.247,0.975,0.368,1.44,0.368c0.505,0,1.071-0.133,1.346-0.315l16.985-8.571 c1.27-0.577,1.989-2.227,1.536-3.473c-0.338-1.013-1.372-1.707-2.521-1.707c-0.32,0-0.688,0.123-1.079,0.253l-14.123,5.767 c-0.214,0.086-0.459,0.063-0.653-0.066l-1.734-1.156c-0.293-0.195-0.396-0.579-0.237-0.896l0.289-0.578 c0.72-1.44,0.212-3.159-1.133-3.831L41.32,50.824c-1.54-0.897-3.418-1.364-5.456-1.364c-1.656,0-2.913,0.207-4.076,0.673 l-7.822,2.897c-0.361,0.139-0.765-0.051-0.899-0.413s0.051-0.766,0.413-0.899l7.806-2.892c1.319-0.528,2.736-0.767,4.579-0.767 c2.286,0,4.407,0.533,6.135,1.541l13.705,7.213c2.021,1.011,2.811,3.571,1.745,5.702l-0.013,0.026l0.911,0.607l13.822-5.643 c0.522-0.176,1.019-0.341,1.565-0.341c1.771,0,3.316,1.063,3.844,2.646c0.702,1.933-0.326,4.32-2.253,5.196l-16.887,8.516 C57.902,73.889,57.017,74.033,56.39,74.033z"/><path fill="#fddbbc" d="M44.458,60.083c-0.79-0.398-2-1-2-1"/><path fill="#472b29" d="M44.458,60.583c-0.076,0-0.153-0.018-0.226-0.054c-0.788-0.397-1.997-0.998-1.997-0.999l0.445-0.895 c0,0,1.212,0.602,2.003,1.001c0.246,0.124,0.345,0.425,0.221,0.672C44.816,60.482,44.641,60.583,44.458,60.583z"/><g><path fill="#fddbbc" d="M56.5,62.5c-0.708,1.25-2.484,2.217-5,1c-1.081-0.523-3.308-1.637-5.138-2.558"/><path fill="#472b29" d="M53.709,64.56c-0.729,0-1.546-0.184-2.427-0.609c-1.082-0.523-3.312-1.64-5.145-2.562 c-0.247-0.124-0.346-0.424-0.222-0.671c0.123-0.248,0.425-0.35,0.671-0.222c1.827,0.918,4.051,2.032,5.131,2.554 c2.258,1.095,3.754,0.254,4.347-0.796c0.138-0.243,0.444-0.325,0.682-0.189c0.24,0.137,0.325,0.441,0.189,0.682 C56.349,63.782,55.212,64.56,53.709,64.56z"/></g><g><circle cx="55.5" cy="36.5" r="11.8" fill="#fbcd59"/><path fill="#472b29" d="M55.5,25.4c6.121,0,11.1,4.979,11.1,11.1s-4.979,11.1-11.1,11.1s-11.1-4.979-11.1-11.1 S49.379,25.4,55.5,25.4 M55.5,24C48.596,24,43,29.597,43,36.5S48.596,49,55.5,49S68,43.403,68,36.5S62.404,24,55.5,24L55.5,24z"/></g><g><path fill="#472b29" d="M64.163,34.302c-0.109,0-0.21-0.072-0.24-0.182c-0.404-1.433-1.178-2.749-2.235-3.808 c-0.098-0.098-0.098-0.256,0-0.354c0.098-0.099,0.256-0.097,0.354,0c1.118,1.119,1.936,2.511,2.362,4.024 c0.038,0.134-0.039,0.271-0.172,0.309C64.208,34.299,64.186,34.302,64.163,34.302z"/></g><g><path fill="#472b29" d="M46.5,36.75c-0.138,0-0.25-0.112-0.25-0.25c0-2.101,0.686-4.08,1.983-5.725 c0.087-0.108,0.244-0.126,0.352-0.041c0.108,0.086,0.127,0.243,0.041,0.352c-1.228,1.555-1.876,3.428-1.876,5.414 C46.75,36.638,46.638,36.75,46.5,36.75z"/></g><g><path fill="#472b29" d="M48.653,42.592c-0.07,0-0.141-0.029-0.19-0.088c-0.908-1.063-1.571-2.338-1.92-3.685 c-0.034-0.134,0.046-0.27,0.18-0.305c0.133-0.029,0.27,0.047,0.305,0.18c0.329,1.273,0.957,2.479,1.816,3.485 c0.089,0.104,0.077,0.263-0.028,0.353C48.769,42.572,48.711,42.592,48.653,42.592z"/></g><g><path fill="#472b29" d="M62.32,42.623c-0.058,0-0.116-0.02-0.163-0.061c-0.104-0.09-0.116-0.248-0.026-0.353 c1.366-1.586,2.119-3.613,2.119-5.71c0-0.138,0.112-0.25,0.25-0.25s0.25,0.112,0.25,0.25c0,2.216-0.796,4.36-2.24,6.036 C62.46,42.594,62.391,42.623,62.32,42.623z"/></g><g><path fill="#472b29" d="M51,42.288V30.729c0-0.224,0.098-0.402,0.291-0.533C51.485,30.067,51.714,30,51.978,30h4.27 c2.297,0,3.444,1.043,3.444,3.13c0,1.447-0.485,2.389-1.456,2.828c0.582,0.237,1.022,0.572,1.319,1.004 C59.852,37.395,60,38.027,60,38.857v0.373c0,1.315-0.308,2.274-0.925,2.871C58.458,42.7,57.624,43,56.574,43h-4.596 c-0.286,0-0.52-0.071-0.703-0.213C51.092,42.644,51,42.479,51,42.288z M53.21,35.051h2.884c0.445,0,0.785-0.136,1.019-0.408 c0.234-0.274,0.351-0.647,0.351-1.122c0-0.462-0.123-0.826-0.368-1.093c-0.247-0.268-0.586-0.401-1.021-0.401H53.21V35.051z M53.21,40.973h2.901c1.107,0,1.662-0.645,1.662-1.938V38.75c0-0.664-0.141-1.143-0.42-1.44c-0.28-0.297-0.694-0.444-1.242-0.444 H53.21V40.973z"/></g><g><path fill="#472b29" d="M53,28L53,28c-0.552,0-1,0.448-1,1v2h2v-2C54,28.448,53.552,28,53,28z"/></g><g><path fill="#472b29" d="M56,28L56,28c-0.552,0-1,0.448-1,1v2h2v-2C57,28.448,56.552,28,56,28z"/></g><g><path fill="#472b29" d="M56,45L56,45c0.552,0,1-0.448,1-1v-2h-2v2C55,44.552,55.448,45,56,45z"/></g><g><path fill="#472b29" d="M53,45L53,45c0.552,0,1-0.448,1-1v-2h-2v2C52,44.552,52.448,45,53,45z"/></g></svg>