<?xml version="1.0" encoding="UTF-8"?>
<svg xmlns="http://www.w3.org/2000/svg" xmlns:xlink="http://www.w3.org/1999/xlink" viewBox="0 0 48 48" version="1.1" width="96px" height="96px">
<g id="surface1">
<path style=" fill:#78909C;" d="M 40 44 L 8 44 C 5.789063 44 4 42.210938 4 40 L 4 19.082031 C 4 17.777344 4.636719 16.554688 5.707031 15.808594 L 24 3 L 42.292969 15.808594 C 43.363281 16.554688 44 17.777344 44 19.082031 L 44 40 C 44 42.210938 42.210938 44 40 44 "/>
<path style=" fill:#FFFFFF;" d="M 12 14 L 36 14 L 36 36 L 12 36 Z "/>
<path style=" fill:#CFD8DC;" d="M 40 44 L 8 44 C 5.789063 44 4 42.210938 4 40 L 4 20 L 24 33 L 44 20 L 44 40 C 44 42.210938 42.210938 44 40 44 "/>
<path style=" fill:#2196F3;" d="M 15 19 L 33 19 L 33 21 L 15 21 Z "/>
<path style=" fill:#2196F3;" d="M 15 23 L 27 23 L 27 25 L 15 25 Z "/>
</g>
</svg>
