<svg xmlns="http://www.w3.org/2000/svg" viewBox="0 0 48 48" width="96px" height="96px"><path fill="#4caf50" d="M36,15c0,5.5-4.5,10-10,10s-10-4.5-10-10S20.5,5,26,5S36,9.5,36,15"/><path fill="#e8f5e9" d="M29.4,17.5c0,2.5-2.4,2.8-2.8,2.8v1.4h-1v-1.4c-0.4,0-3-0.3-3-3.3h2c0,0.3,0,1.7,1.5,1.7 c1.3,0,1.3-1,1.3-1.2c0-2.2-4.5-1.3-4.5-4.8c0-2.1,1.9-2.8,2.8-2.8V8.4h1.1v1.5c0.7,0.1,2.6,0.6,2.6,3.2h-2c0-0.6-0.1-1.7-1.3-1.7 C25,11.5,25,12.5,25,12.7C25,14.8,29.4,14,29.4,17.5"/><path fill="#e89531" d="M38.818,31.692c-0.412-0.921-1.348-1.461-2.322-1.449c-0.325,0.004-0.653,0.069-0.968,0.202 l-1.14,0.483c-0.02-0.068-0.04-0.126-0.06-0.193c-0.412-0.921-1.342-1.466-2.318-1.461c-0.325,0.002-0.655,0.065-0.972,0.195 l-3.34,1.392l-7.93,3.306l-5.55-1.73c-0.18,0.074-3.243,1.199-5.246,1.962l16.792,6.828l12.514-5.184l-0.75-1.17 C38.799,34.341,39.369,32.91,38.818,31.692z"/><path fill="#ffb74d" d="M43.79,32.5c-0.41-0.95-1.35-1.51-2.32-1.5c-0.33,0-0.66,0.07-0.97,0.21l-8.51,3.72 c0.04,0.63-0.07,1.26-0.31,1.86c-0.17,0.43-0.4,0.82-0.68,1.17c-0.84,1.04-2.11,1.67-3.5,1.67c-0.09,0-0.19,0-0.28-0.01 c-0.47-0.03-0.94-0.13-1.38-0.31l-0.2-0.08c-0.291-0.116-5.427-2.143-9.022-3.562c-0.492-0.214-0.734-0.776-0.536-1.278 c0.203-0.514,0.784-0.767,1.297-0.564l1.784,0.702c0.016,0.005,0.029,0.003,0.045,0.009c2.746,1.076,6.089,2.403,7.074,2.794 l0.094,0.037c0,0,0.001,0.001,0.001,0.001c0.122,0.048,0.191,0.076,0.198,0.079c0.303,0.121,0.616,0.178,0.923,0.178 c0.994,0,1.934-0.597,2.324-1.577c0.511-1.283-0.116-2.736-1.399-3.247c-0.322-0.128-7.912-3.147-10.541-4.141 C17.076,28.356,15.705,28,14.5,28c-3.523,0-8.342,1.836-10.5,2.75L7.375,39l3.77-1.55l13.425,5.37c0.3,0.12,0.62,0.18,0.93,0.18 c0.34,0,0.68-0.07,1-0.21l16-7C43.77,35.24,44.34,33.76,43.79,32.5z"/></svg>