<svg xmlns="http://www.w3.org/2000/svg" viewBox="0 0 48 48" width="96px" height="96px"><path fill="#bbdefb" d="M30,44v-4.6l2.6,0.5c2.9,0.6,5.6-1.5,5.8-4.4L39,29l2.9-1.2c1-0.4,1.4-1.6,0.8-2.6L39,19 c-0.6-7.6-4.9-15-16-15C11.6,4,6,12.4,6,21c0,3.6,1.3,6.9,3.3,9.6c1.8,2.5,2.7,5.5,2.7,8.5V44H30z"/><path fill="#3f51b5" d="M29.5 26.9L28 25.6 31.4 21.5 28 17.4 29.5 16.1 34.1 21.5zM16.5 26.9L11.9 21.5 16.5 16.1 18 17.4 14.6 21.5 18 25.6z"/><path fill="#3f51b5" d="M14.9 20.4H31V22.4H14.9z" transform="rotate(-71.137 22.917 21.4)"/></svg>