<svg xmlns="http://www.w3.org/2000/svg" viewBox="0 0 48 48" width="96px" height="96px"><path fill="#2196F3" d="M39,6H9C7.343,6,6,7.343,6,9v33l8.556-8H39c1.656,0,3-1.344,3-3V9C42,7.343,40.656,6,39,6z"/><path fill="#E3F2FD" d="M22.687,23.46c0-1.13,0.138-2.031,0.415-2.7c0.277-0.67,0.784-1.33,1.521-1.98c0.736-0.648,1.227-1.178,1.472-1.586c0.244-0.408,0.365-0.838,0.365-1.291c0-1.365-0.635-2.047-1.904-2.047c-0.603,0-1.084,0.184-1.446,0.551c-0.363,0.368-0.552,0.875-0.568,1.521H19c0.016-1.541,0.519-2.748,1.507-3.621C21.496,11.437,22.845,11,24.555,11c1.726,0,3.064,0.414,4.018,1.242C29.523,13.069,30,14.236,30,15.746c0,0.687-0.154,1.334-0.464,1.943c-0.31,0.61-0.851,1.286-1.624,2.029l-0.988,0.932c-0.619,0.59-0.973,1.279-1.063,2.071l-0.049,0.738H22.687z M22.333,27.167c0-0.538,0.186-0.981,0.556-1.333c0.371-0.349,0.844-0.524,1.422-0.524c0.578,0,1.052,0.176,1.422,0.524c0.371,0.352,0.557,0.795,0.557,1.333c0,0.53-0.182,0.969-0.544,1.313c-0.362,0.346-0.84,0.52-1.435,0.52s-1.072-0.174-1.435-0.52C22.514,28.136,22.333,27.697,22.333,27.167z"/></svg>