<?xml version="1.0"?>
<svg xmlns="http://www.w3.org/2000/svg" viewBox="0 0 100 100" width="100px" height="100px">
    <path d="M 48.585938 27.335938 C 48.142434 27.345848 47.695672 27.379094 47.248047 27.433594 C 41.724047 28.109594 37.157531 32.390656 36.144531 37.847656 C 35.984531 38.711656 35.910922 39.5775 35.919922 40.4375 C 34.641922 39.6985 33.179547 39.294922 31.685547 39.294922 C 27.612547 39.294922 24.155859 42.212281 23.380859 46.113281 C 21.570859 45.885281 19.788406 46.095187 18.066406 46.742188 C 13.722406 48.372188 10.686766 52.50725 10.509766 57.03125 C 10.386766 60.18325 11.520172 63.1695 13.701172 65.4375 C 15.884172 67.7065 18.818797 68.955078 21.966797 68.955078 L 46.746094 68.955078 L 46.746094 71.050781 C 46.731094 71.630781 46.950328 72.182469 47.361328 72.605469 C 47.761328 73.015469 48.313219 73.277 48.949219 73.375 L 48.949219 81.824219 C 47.393219 82.067219 46.195313 83.404344 46.195312 85.027344 C 46.195312 85.044344 46.201172 85.060125 46.201172 85.078125 L 31.275391 85.078125 C 30.999391 85.078125 30.775391 85.302125 30.775391 85.578125 C 30.775391 85.521125 30.934938 85.984375 31.210938 85.984375 L 46.384766 85.953125 C 46.824766 87.230125 48.025219 88.28125 49.449219 88.28125 C 50.873219 88.28125 52.058047 87.2145 52.498047 85.9375 L 68.710938 85.9375 C 68.986937 85.9375 69.224609 85.855125 69.224609 85.578125 C 69.224609 85.301125 69.000609 85.078125 68.724609 85.078125 L 52.697266 85.078125 C 52.697266 85.061125 52.703125 85.045344 52.703125 85.027344 C 52.703125 83.404344 51.505219 82.067219 49.949219 81.824219 L 49.949219 73.388672 C 51.279219 73.229672 52.132344 72.359453 52.152344 71.064453 L 52.152344 68.957031 L 52.851562 68.957031 C 73.873562 68.946031 77.041875 68.936594 77.546875 68.933594 L 77.685547 68.941406 C 77.800547 68.949406 77.915203 68.957031 78.033203 68.957031 C 84.355203 68.957031 89.5 63.813234 89.5 57.490234 C 89.5 52.391234 86.085766 47.899328 81.259766 46.486328 C 81.271766 46.284328 81.277344 46.090344 81.277344 45.902344 C 81.277344 39.373344 75.9655 34.0625 69.4375 34.0625 C 66.4295 34.0625 63.611312 35.175828 61.445312 37.173828 C 60.774313 34.483828 59.246125 32.038719 57.078125 30.261719 C 54.664 28.282469 51.690465 27.266566 48.585938 27.335938 z M 48.621094 29.335938 C 51.250072 29.274113 53.766141 30.136469 55.806641 31.808594 C 58.115641 33.701594 59.569922 36.488078 59.794922 39.455078 C 59.825922 39.870078 60.110766 40.222844 60.509766 40.339844 C 60.912766 40.456844 61.338844 40.314422 61.589844 39.982422 C 63.472844 37.490422 66.331547 36.0625 69.435547 36.0625 C 74.861547 36.0625 79.275391 40.477344 79.275391 45.902344 C 79.275391 46.272344 79.249406 46.661 79.191406 47.125 C 79.189406 47.14 79.194359 47.154922 79.193359 47.169922 C 76.325359 47.050922 73.630828 48.425828 72.423828 50.923828 C 72.217828 51.349828 72.060078 51.797812 71.955078 52.257812 C 71.893078 52.527813 72.062031 52.795422 72.332031 52.857422 C 72.369031 52.865422 72.407359 52.869141 72.443359 52.869141 C 72.672359 52.869141 72.877688 52.712469 72.929688 52.480469 C 73.017687 52.093469 73.151219 51.715422 73.324219 51.357422 C 74.494219 48.937422 77.321063 47.755437 80.164062 48.273438 C 84.423063 49.254438 87.498047 53.097234 87.498047 57.490234 C 87.500047 62.709234 83.25125 67.134766 78.03125 67.134766 C 77.96025 67.134766 77.889313 67.13 77.820312 67.125 L 77.552734 67.113281 C 77.136734 67.120281 21.964844 67.125 21.964844 67.125 C 19.365844 67.125 16.943578 65.923781 15.142578 64.050781 C 13.341578 62.177781 12.406813 59.713375 12.507812 57.109375 C 12.653813 53.379375 15.169531 49.964281 18.769531 48.613281 C 20.485531 47.968281 22.202578 47.850906 24.017578 48.253906 C 24.300578 48.315906 24.599984 48.251172 24.833984 48.076172 C 25.066984 47.901172 25.211469 47.632797 25.230469 47.341797 C 25.452469 43.950797 28.287594 41.294922 31.683594 41.294922 C 33.497594 41.294922 35.181828 42.031094 36.423828 43.371094 C 36.729828 43.699094 37.214328 43.785078 37.611328 43.580078 C 38.010328 43.375078 38.225719 42.931188 38.136719 42.492188 C 37.851719 41.090187 37.842375 39.649891 38.109375 38.212891 C 38.964375 33.606891 42.821281 29.990922 47.488281 29.419922 C 47.867406 29.373047 48.245525 29.34477 48.621094 29.335938 z M 46.050781 44.388672 C 42.252028 44.501545 39.085625 47.256719 38.84375 50.839844 C 38.83975 50.899844 38.835031 50.959531 38.832031 51.019531 C 38.099031 50.527531 37.233594 50.232875 36.308594 50.171875 C 33.954594 50.026875 31.840484 51.462156 31.271484 53.535156 C 30.968484 53.475156 30.667141 53.435016 30.369141 53.416016 C 26.698141 53.187016 23.553219 55.729422 23.324219 59.107422 C 23.305219 59.383422 23.515016 59.621625 23.791016 59.640625 C 23.802016 59.640625 23.812219 59.640625 23.824219 59.640625 C 24.085219 59.640625 24.304266 59.439781 24.322266 59.175781 C 24.512266 56.346781 27.191688 54.207062 30.304688 54.414062 C 30.706688 54.440063 31.117391 54.510094 31.525391 54.621094 C 31.666391 54.659094 31.810641 54.635641 31.931641 54.556641 C 32.051641 54.477641 32.132344 54.350031 32.152344 54.207031 C 32.408344 52.370031 34.196141 51.028922 36.244141 51.169922 C 37.339141 51.241922 38.326437 51.713953 39.023438 52.501953 C 39.169438 52.668953 39.412375 52.717047 39.609375 52.623047 C 39.810375 52.529047 39.923625 52.314703 39.890625 52.095703 C 39.830625 51.704703 39.815797 51.30325 39.841797 50.90625 C 40.062797 47.63525 43.159953 45.166438 46.751953 45.398438 C 47.035953 45.406438 47.265203 45.209594 47.283203 44.933594 C 47.301203 44.657594 47.094359 44.418391 46.818359 44.400391 C 46.560172 44.383891 46.304031 44.381147 46.050781 44.388672 z M 47.746094 68.955078 L 51.150391 68.955078 L 51.150391 71.056641 L 51.152344 71.056641 C 51.138344 71.937641 50.554812 72.421875 49.507812 72.421875 C 48.908813 72.421875 48.400172 72.23825 48.076172 71.90625 C 47.851172 71.67625 47.737094 71.3885 47.746094 71.0625 L 47.746094 68.955078 z M 49.449219 82.775391 C 50.691219 82.775391 51.703125 83.784344 51.703125 85.027344 C 51.703125 86.270344 50.691219 87.28125 49.449219 87.28125 C 48.206219 87.28125 47.195312 86.269344 47.195312 85.027344 C 47.195312 83.785344 48.206219 82.775391 49.449219 82.775391 z"/>
</svg>
