<?xml version="1.0"?>
<svg xmlns="http://www.w3.org/2000/svg" viewBox="0 0 100 100" width="100px" height="100px">
    <path d="M 36.642578 12 C 34.079578 12 31.992188 14.085437 31.992188 16.648438 L 31.992188 68.351562 C 31.992188 70.914563 34.079578 73 36.642578 73 L 46.945312 73 L 46.945312 75.158203 C 46.945313 76.250494 47.883098 77.14993 49.101562 77.3125 L 49.101562 81.292969 C 47.69899 81.504075 46.615234 82.743474 46.615234 84.25 L 33.65625 84.25 C 33.38025 84.25 33.15625 84.411375 33.15625 84.609375 C 33.15625 84.808375 33.38025 84.96875 33.65625 84.96875 L 46.708984 84.96875 C 47.023028 86.274795 48.159688 87.25 49.519531 87.25 C 50.880224 87.25 52.014497 86.274795 52.328125 84.96875 L 66.34375 84.96875 C 66.61975 84.96875 66.84375 84.807375 66.84375 84.609375 C 66.84375 84.410375 66.61975 84.25 66.34375 84.25 L 52.421875 84.25 C 52.421875 82.689349 51.258986 81.417581 49.783203 81.277344 L 49.783203 77.320312 C 51.048792 77.194303 52.039062 76.279404 52.039062 75.158203 L 52.039062 73 L 62.34375 73 C 64.90675 73 66.992188 70.913609 66.992188 68.349609 L 66.992188 16.648438 C 66.992188 14.085437 64.90675 12 62.34375 12 L 36.642578 12 z M 36.642578 14 L 62.34375 14 C 63.80475 14 64.992188 15.187437 64.992188 16.648438 L 64.992188 68.349609 C 64.992188 69.810609 63.80475 70.998047 62.34375 70.998047 L 36.642578 70.998047 C 35.181578 70.998047 33.992188 69.810609 33.992188 68.349609 L 33.992188 16.648438 C 33.992188 15.187437 35.181578 14 36.642578 14 z M 36.492188 18 C 36.216187 18 35.992188 18.224 35.992188 18.5 L 35.992188 22.5 C 35.992188 22.776 36.216187 23 36.492188 23 L 61.492188 23 C 61.768188 23 61.992188 22.776 61.992188 22.5 L 61.992188 18.5 C 61.992187 18.224 61.768188 18 61.492188 18 L 42.492188 18 C 42.216187 18 41.992188 18.224 41.992188 18.5 C 41.992188 18.776 42.216187 19 42.492188 19 L 60.992188 19 L 60.992188 22 L 36.992188 22 L 36.992188 19 L 38.492188 19 C 38.768188 19 38.992188 18.776 38.992188 18.5 C 38.992188 18.224 38.768188 18 38.492188 18 L 36.492188 18 z M 36.492188 26 C 36.216187 26 35.992188 26.224 35.992188 26.5 L 35.992188 30.5 C 35.992188 30.776 36.216187 31 36.492188 31 L 61.492188 31 C 61.768188 31 61.992188 30.776 61.992188 30.5 L 61.992188 26.5 C 61.992187 26.224 61.768188 26 61.492188 26 L 40.492188 26 C 40.216187 26 39.992188 26.224 39.992188 26.5 C 39.992188 26.776 40.216187 27 40.492188 27 L 60.992188 27 L 60.992188 30 L 36.992188 30 L 36.992188 27 L 38.492188 27 C 38.768188 27 38.992188 26.776 38.992188 26.5 C 38.992188 26.224 38.768188 26 38.492188 26 L 36.492188 26 z M 36.492188 34 C 36.216187 34 35.992188 34.224 35.992188 34.5 L 35.992188 38.5 C 35.992188 38.776 36.216187 39 36.492188 39 L 52.492188 39 C 52.768188 39 52.992188 38.776 52.992188 38.5 C 52.992187 38.224 52.768188 38 52.492188 38 L 36.992188 38 L 36.992188 35 L 60.992188 35 L 60.992188 38 L 59.492188 38 C 59.216187 38 58.992188 38.224 58.992188 38.5 C 58.992188 38.776 59.216187 39 59.492188 39 L 61.492188 39 C 61.768188 39 61.992188 38.776 61.992188 38.5 L 61.992188 34.5 C 61.992187 34.224 61.768188 34 61.492188 34 L 36.492188 34 z M 54.492188 38 C 54.216187 38 53.992188 38.224 53.992188 38.5 C 53.992188 38.776 54.216187 39 54.492188 39 L 57.492188 39 C 57.768188 39 57.992188 38.776 57.992188 38.5 C 57.992187 38.224 57.768188 38 57.492188 38 L 54.492188 38 z M 49.492188 54.25 C 47.011188 54.25 44.992188 56.269 44.992188 58.75 C 44.992187 61.231 47.011187 63.25 49.492188 63.25 C 51.974187 63.25 53.992188 61.231 53.992188 58.75 C 53.992188 56.269 51.973188 54.25 49.492188 54.25 z M 49.492188 55.25 C 51.422188 55.25 52.992188 56.82 52.992188 58.75 C 52.992187 60.68 51.422187 62.25 49.492188 62.25 C 47.562187 62.25 45.992188 60.68 45.992188 58.75 C 45.992188 56.82 47.562188 55.25 49.492188 55.25 z M 49.492188 64.25 C 48.389187 64.25 47.492188 65.147 47.492188 66.25 C 47.492188 67.353 48.389187 68.25 49.492188 68.25 C 50.595188 68.25 51.492188 67.353 51.492188 66.25 C 51.492187 65.147 50.595188 64.25 49.492188 64.25 z M 49.492188 65.25 C 50.043187 65.25 50.492188 65.699 50.492188 66.25 C 50.492188 66.801 50.043188 67.25 49.492188 67.25 C 48.941188 67.25 48.492188 66.801 48.492188 66.25 C 48.492188 65.699 48.941187 65.25 49.492188 65.25 z M 47.945312 73.095703 L 51.039062 73.095703 L 51.039062 75.158203 C 51.039062 75.802203 50.331187 76.345703 49.492188 76.345703 C 48.653188 76.345703 47.945312 75.802203 47.945312 75.158203 L 47.945312 73.095703 z M 49.519531 82.25 C 50.569531 82.25 51.421875 83.147 51.421875 84.25 C 51.421875 85.353 50.568531 86.25 49.519531 86.25 C 48.469531 86.25 47.615234 85.353 47.615234 84.25 C 47.615234 83.147 48.469531 82.25 49.519531 82.25 z"/>
</svg>
