<svg xmlns="http://www.w3.org/2000/svg" viewBox="0 0 512 512" width="128px" height="128px"><path fill="#4ABC96" d="M256,7.9C119,7.9,7.9,119,7.9,256C7.9,393,119,504.1,256,504.1c137,0,248.1-111.1,248.1-248.1C504.1,119,393,7.9,256,7.9z"/><path fill="#E5E2D1" d="M300.5,111.4c-5.1,3.8-22.2,21.8-45.6,21.8c-23.5,0-36.8-18.5-45.6-21.8c-1.3-0.5-3.4-0.6-5.9-0.6c2.8,2.9,5.9,6.2,5.9,6.2c6.7,5.2,22.2,21.7,45.6,21.7c23.4,0,40.5-18,45.6-21.7c0,0,3.1-3.2,5.3-6.9C303.5,110.2,301.6,110.6,300.5,111.4z"/><path fill="#EFEDE6" d="M403.6,135c0,0-89.8-25.1-97.8-24.8c-9.9,11-27.4,28.6-50.9,28.6c-23.5,0-43-19.7-51.6-27.9c-8.9,0.3-94.7,24.1-94.7,24.1c-9.4,2.5-6.2,10.7-4.2,18.3l10.6,39.9c2,7.6,2.2,11.8,11.5,9.3l29.2-7.8v189.6c0,22.3,18.1,16.8,40.4,16.8H313c22.3,0,40.4,5.5,40.4-16.8V194l32.2,8.5c0.9,0.2,1.6,0.4,2.4,0.5l16.9-67.5C404.4,135.3,404.1,135.1,403.6,135z"/><path fill="#E5E2D1" d="M404.9 135.5L388 203c7 1.1 7.3-2.9 9.2-9.8l10.6-39.9C409.7 146.1 412.5 138.4 404.9 135.5zM107.1 135.5c-7.6 2.9-4.8 10.6-2.9 17.8l10.6 39.9c1.8 6.9 2.2 10.9 9.2 9.8L107.1 135.5z"/></svg>