<?xml version="1.0"?>
<svg xmlns="http://www.w3.org/2000/svg" xmlns:xlink="http://www.w3.org/1999/xlink" version="1.1" viewBox="0 0 192 192" width="50px" height="50px"><g fill="none" fill-rule="nonzero" stroke="none" stroke-width="1" stroke-linecap="butt" stroke-linejoin="miter" stroke-miterlimit="10" stroke-dasharray="" stroke-dashoffset="0" font-family="none" font-weight="none" font-size="none" text-anchor="none" style="mix-blend-mode: normal"><path d="M0,192v-192h192v192z" fill="none"/><g fill="#ffffff"><g id="surface1"><path d="M11.16,53.64c-0.165,0.03 -0.33,0.075 -0.48,0.12c-1.785,0.405 -3.045,2.01 -3,3.84v76.8c-0.015,1.38 0.705,2.67 1.905,3.375c1.2,0.69 2.67,0.69 3.87,0c1.2,-0.705 1.92,-1.995 1.905,-3.375v-76.8c0.045,-1.11 -0.405,-2.175 -1.2,-2.925c-0.81,-0.765 -1.905,-1.14 -3,-1.035zM180.12,53.64c-0.165,0.03 -0.33,0.075 -0.48,0.12c-1.785,0.405 -3.045,2.01 -3,3.84v76.8c-0.015,1.38 0.705,2.67 1.905,3.375c1.2,0.69 2.67,0.69 3.87,0c1.2,-0.705 1.92,-1.995 1.905,-3.375v-76.8c0.045,-1.11 -0.405,-2.175 -1.2,-2.925c-0.81,-0.765 -1.905,-1.14 -3,-1.035zM26.88,53.76c-2.115,0 -3.84,1.725 -3.84,3.84c0,2.115 1.725,3.84 3.84,3.84c2.115,0 3.84,-1.725 3.84,-3.84c0,-2.115 -1.725,-3.84 -3.84,-3.84zM42.24,53.76c-2.115,0 -3.84,1.725 -3.84,3.84c0,2.115 1.725,3.84 3.84,3.84c2.115,0 3.84,-1.725 3.84,-3.84c0,-2.115 -1.725,-3.84 -3.84,-3.84zM57.6,53.76c-2.115,0 -3.84,1.725 -3.84,3.84c0,2.115 1.725,3.84 3.84,3.84c2.115,0 3.84,-1.725 3.84,-3.84c0,-2.115 -1.725,-3.84 -3.84,-3.84zM72.96,53.76c-2.115,0 -3.84,1.725 -3.84,3.84c0,2.115 1.725,3.84 3.84,3.84c2.115,0 3.84,-1.725 3.84,-3.84c0,-2.115 -1.725,-3.84 -3.84,-3.84zM88.32,53.76c-2.115,0 -3.84,1.725 -3.84,3.84c0,2.115 1.725,3.84 3.84,3.84c2.115,0 3.84,-1.725 3.84,-3.84c0,-2.115 -1.725,-3.84 -3.84,-3.84zM103.68,53.76c-2.115,0 -3.84,1.725 -3.84,3.84c0,2.115 1.725,3.84 3.84,3.84c2.115,0 3.84,-1.725 3.84,-3.84c0,-2.115 -1.725,-3.84 -3.84,-3.84zM119.04,53.76c-2.115,0 -3.84,1.725 -3.84,3.84c0,2.115 1.725,3.84 3.84,3.84c2.115,0 3.84,-1.725 3.84,-3.84c0,-2.115 -1.725,-3.84 -3.84,-3.84zM134.4,53.76c-2.115,0 -3.84,1.725 -3.84,3.84c0,2.115 1.725,3.84 3.84,3.84c2.115,0 3.84,-1.725 3.84,-3.84c0,-2.115 -1.725,-3.84 -3.84,-3.84zM149.76,53.76c-2.115,0 -3.84,1.725 -3.84,3.84c0,2.115 1.725,3.84 3.84,3.84c2.115,0 3.84,-1.725 3.84,-3.84c0,-2.115 -1.725,-3.84 -3.84,-3.84zM165.12,53.76c-2.115,0 -3.84,1.725 -3.84,3.84c0,2.115 1.725,3.84 3.84,3.84c2.115,0 3.84,-1.725 3.84,-3.84c0,-2.115 -1.725,-3.84 -3.84,-3.84zM43.32,76.68c-0.165,0.03 -0.33,0.075 -0.48,0.12c-0.615,0.105 -1.185,0.345 -1.68,0.72l-20.4,15.36c-1.005,0.72 -1.605,1.89 -1.605,3.12c0,1.23 0.6,2.4 1.605,3.12l20.4,15.36c1.725,1.29 4.17,0.945 5.46,-0.78c1.29,-1.725 0.945,-4.17 -0.78,-5.46l-11.16,-8.4h122.64l-11.16,8.4c-1.725,1.29 -2.07,3.735 -0.78,5.46c1.29,1.725 3.735,2.07 5.46,0.78l20.4,-15.36c1.005,-0.72 1.605,-1.89 1.605,-3.12c0,-1.23 -0.6,-2.4 -1.605,-3.12l-20.4,-15.36c-0.855,-0.645 -1.95,-0.915 -3,-0.72c-1.575,0.21 -2.85,1.365 -3.225,2.91c-0.375,1.53 0.24,3.15 1.545,4.05l11.16,8.4h-122.64l11.16,-8.4c1.545,-0.945 2.22,-2.85 1.605,-4.56c-0.6,-1.71 -2.325,-2.76 -4.125,-2.52zM26.88,130.56c-2.115,0 -3.84,1.725 -3.84,3.84c0,2.115 1.725,3.84 3.84,3.84c2.115,0 3.84,-1.725 3.84,-3.84c0,-2.115 -1.725,-3.84 -3.84,-3.84zM42.24,130.56c-2.115,0 -3.84,1.725 -3.84,3.84c0,2.115 1.725,3.84 3.84,3.84c2.115,0 3.84,-1.725 3.84,-3.84c0,-2.115 -1.725,-3.84 -3.84,-3.84zM57.6,130.56c-2.115,0 -3.84,1.725 -3.84,3.84c0,2.115 1.725,3.84 3.84,3.84c2.115,0 3.84,-1.725 3.84,-3.84c0,-2.115 -1.725,-3.84 -3.84,-3.84zM72.96,130.56c-2.115,0 -3.84,1.725 -3.84,3.84c0,2.115 1.725,3.84 3.84,3.84c2.115,0 3.84,-1.725 3.84,-3.84c0,-2.115 -1.725,-3.84 -3.84,-3.84zM88.32,130.56c-2.115,0 -3.84,1.725 -3.84,3.84c0,2.115 1.725,3.84 3.84,3.84c2.115,0 3.84,-1.725 3.84,-3.84c0,-2.115 -1.725,-3.84 -3.84,-3.84zM103.68,130.56c-2.115,0 -3.84,1.725 -3.84,3.84c0,2.115 1.725,3.84 3.84,3.84c2.115,0 3.84,-1.725 3.84,-3.84c0,-2.115 -1.725,-3.84 -3.84,-3.84zM119.04,130.56c-2.115,0 -3.84,1.725 -3.84,3.84c0,2.115 1.725,3.84 3.84,3.84c2.115,0 3.84,-1.725 3.84,-3.84c0,-2.115 -1.725,-3.84 -3.84,-3.84zM134.4,130.56c-2.115,0 -3.84,1.725 -3.84,3.84c0,2.115 1.725,3.84 3.84,3.84c2.115,0 3.84,-1.725 3.84,-3.84c0,-2.115 -1.725,-3.84 -3.84,-3.84zM149.76,130.56c-2.115,0 -3.84,1.725 -3.84,3.84c0,2.115 1.725,3.84 3.84,3.84c2.115,0 3.84,-1.725 3.84,-3.84c0,-2.115 -1.725,-3.84 -3.84,-3.84zM165.12,130.56c-2.115,0 -3.84,1.725 -3.84,3.84c0,2.115 1.725,3.84 3.84,3.84c2.115,0 3.84,-1.725 3.84,-3.84c0,-2.115 -1.725,-3.84 -3.84,-3.84z"/></g></g></g></svg>
