<?xml version="1.0"?>
<svg xmlns="http://www.w3.org/2000/svg" xmlns:xlink="http://www.w3.org/1999/xlink" version="1.1" viewBox="0 0 172 172" width="100px" height="100px"><g fill="none" fill-rule="nonzero" stroke="none" stroke-width="1" stroke-linecap="butt" stroke-linejoin="miter" stroke-miterlimit="10" stroke-dasharray="" stroke-dashoffset="0" font-family="none" font-weight="none" font-size="none" text-anchor="none" style="mix-blend-mode: normal"><path d="M0,172v-172h172v172z" fill="none"/><g fill="#ffffff"><g id="surface1"><path d="M121.5825,-0.3225c-12.20125,0 -22.575,7.00094 -27.95,17.0925c-2.62031,-1.54531 -5.56312,-2.58 -8.815,-2.58c-9.05687,0 -16.29969,6.9875 -17.2,15.8025c-2.66062,1.04813 -5.10625,2.55313 -7.2025,4.4075c-0.25531,-0.02687 -0.49719,-0.02687 -0.7525,0h-33.2175c-3.21156,0 -5.71094,2.19031 -6.3425,5.2675h-0.1075v0.215l-19.565,81.7c-0.04031,0.1075 -0.08062,0.215 -0.1075,0.3225c-0.18812,0.61813 -0.3225,1.26313 -0.3225,1.935v41.28c0,3.7625 3.1175,6.88 6.88,6.88h158.24c3.7625,0 6.88,-3.1175 6.88,-6.88v-41.28c0,-0.87344 -0.22844,-1.70656 -0.5375,-2.4725v-0.215c-0.02687,-0.06719 -0.06719,-0.14781 -0.1075,-0.215l-11.5025,-47.6225c7.17563,-3.64156 12.1475,-11.12625 12.1475,-19.6725c0,-10.8575 -8.11625,-19.41719 -18.49,-21.1775c0.01344,-0.29562 0,-0.56437 0,-0.86c0,-17.61656 -14.31094,-31.9275 -31.9275,-31.9275zM121.5825,6.5575c13.89438,0 25.0475,11.15313 25.0475,25.0475c0,1.00781 -0.08062,2.0425 -0.215,3.1175l-0.43,3.87h3.9775c8.39844,0 15.1575,6.665 15.1575,15.05c0,6.49031 -4.05812,12.02656 -9.7825,14.19c-0.1075,0.02688 -0.215,0.06719 -0.3225,0.1075c-1.58562,0.56438 -3.27875,0.86 -5.0525,0.86h-73.745c-9.39281,0 -16.8775,-7.49812 -16.8775,-16.8775c0,-7.80719 5.21375,-14.36469 12.3625,-16.34l2.58,-0.7525l-0.1075,-2.6875c-0.01344,-0.40312 0,-0.51062 0,-0.43c0,-5.93937 4.70313,-10.6425 10.6425,-10.6425c2.96969,0 5.6975,1.1825 7.6325,3.1175l3.7625,3.7625l1.8275,-5.0525c3.53406,-9.5675 12.71188,-16.34 23.5425,-16.34zM26.66,41.28h28.38c-1.65281,3.18469 -2.58,6.79938 -2.58,10.6425c0,13.10156 10.65594,23.7575 23.7575,23.7575h73.745c1.14219,0 2.24406,-0.14781 3.3325,-0.3225l9.9975,41.6025h-154.6925zM6.88,123.84h158.1325c0.02688,0.06719 0.06719,0.14781 0.1075,0.215v41.065h-158.24zM137.6,137.6c-3.80281,0 -6.88,3.07719 -6.88,6.88c0,3.80281 3.07719,6.88 6.88,6.88c3.80281,0 6.88,-3.07719 6.88,-6.88c0,-3.80281 -3.07719,-6.88 -6.88,-6.88z"/></g></g></g></svg>
