<?xml version="1.0"?>
<svg xmlns="http://www.w3.org/2000/svg" xmlns:xlink="http://www.w3.org/1999/xlink" version="1.1" viewBox="0 0 172 172" width="100px" height="100px"><g fill="none" fill-rule="nonzero" stroke="none" stroke-width="1" stroke-linecap="butt" stroke-linejoin="miter" stroke-miterlimit="10" stroke-dasharray="" stroke-dashoffset="0" font-family="none" font-weight="none" font-size="none" text-anchor="none" style="mix-blend-mode: normal"><path d="M0,172v-172h172v172z" fill="none"/><g fill="#ffffff"><g id="surface1"><path d="M86,0c-19.41719,0 -37.04719,3.48031 -50.095,9.3525c-6.51719,2.92938 -11.89219,6.47688 -15.8025,10.6425c-3.91031,4.16563 -6.3425,9.09719 -6.3425,14.405v33.755c-0.02687,0.215 -0.02687,0.43 0,0.645v33.755c-0.02687,0.215 -0.02687,0.43 0,0.645v30.96c0,5.30781 2.43219,10.23938 6.3425,14.405c3.91031,4.16563 9.28531,7.71313 15.8025,10.6425c13.04781,5.87219 30.67781,9.3525 50.095,9.3525c19.41719,0 37.04719,-3.48031 50.095,-9.3525c6.51719,-2.92937 11.89219,-6.47687 15.8025,-10.6425c3.91031,-4.16562 6.3425,-9.09719 6.3425,-14.405v-99.76c0,-5.30781 -2.43219,-10.23937 -6.3425,-14.405c-3.91031,-4.16562 -9.28531,-7.71312 -15.8025,-10.6425c-13.04781,-5.87219 -30.67781,-9.3525 -50.095,-9.3525zM86,6.88c18.58406,0 35.34063,3.48031 47.1925,8.815c5.92594,2.66063 10.60219,5.77813 13.6525,9.03c3.05031,3.25188 4.515,6.43656 4.515,9.675c0,3.23844 -1.46469,6.42313 -4.515,9.675c-3.05031,3.25188 -7.72656,6.36938 -13.6525,9.03c-11.85187,5.33469 -28.60844,8.815 -47.1925,8.815c-18.58406,0 -35.34062,-3.48031 -47.1925,-8.815c-5.92594,-2.66062 -10.60219,-5.77812 -13.6525,-9.03c-3.05031,-3.25187 -4.515,-6.43656 -4.515,-9.675c0,-3.23844 1.46469,-6.42312 4.515,-9.675c3.05031,-3.25187 7.72656,-6.36937 13.6525,-9.03c11.85188,-5.33469 28.60844,-8.815 47.1925,-8.815zM20.64,49.3425c3.85656,3.93719 9.01656,7.29656 15.265,10.105c13.04781,5.87219 30.67781,9.3525 50.095,9.3525c19.41719,0 37.04719,-3.48031 50.095,-9.3525c6.24844,-2.80844 11.40844,-6.16781 15.265,-10.105v18.92c0,0.1075 0,0.215 0,0.3225v0.215c0,3.23844 -1.46469,6.42313 -4.515,9.675c-3.05031,3.25188 -7.72656,6.36938 -13.6525,9.03c-11.85187,5.33469 -28.60844,8.815 -47.1925,8.815c-18.58406,0 -35.34062,-3.48031 -47.1925,-8.815c-5.92594,-2.66062 -10.60219,-5.77812 -13.6525,-9.03c-3.05031,-3.25187 -4.515,-6.43656 -4.515,-9.675c0.02688,-0.215 0.02688,-0.43 0,-0.645zM20.64,83.7425c3.85656,3.93719 9.01656,7.29656 15.265,10.105c13.04781,5.87219 30.67781,9.3525 50.095,9.3525c19.41719,0 37.04719,-3.48031 50.095,-9.3525c6.24844,-2.80844 11.40844,-6.16781 15.265,-10.105v18.92c0,0.1075 0,0.215 0,0.3225v0.215c0,3.23844 -1.46469,6.42313 -4.515,9.675c-3.05031,3.25188 -7.72656,6.36938 -13.6525,9.03c-11.85187,5.33469 -28.60844,8.815 -47.1925,8.815c-18.58406,0 -35.34062,-3.48031 -47.1925,-8.815c-5.92594,-2.66062 -10.60219,-5.77812 -13.6525,-9.03c-3.05031,-3.25187 -4.515,-6.43656 -4.515,-9.675c0.02688,-0.215 0.02688,-0.43 0,-0.645zM20.64,118.1425c3.85656,3.93719 9.01656,7.29656 15.265,10.105c13.04781,5.87219 30.67781,9.3525 50.095,9.3525c19.41719,0 37.04719,-3.48031 50.095,-9.3525c6.24844,-2.80844 11.40844,-6.16781 15.265,-10.105v16.0175c0,3.23844 -1.46469,6.42313 -4.515,9.675c-3.05031,3.25188 -7.72656,6.36938 -13.6525,9.03c-11.85187,5.33469 -28.60844,8.815 -47.1925,8.815c-18.58406,0 -35.34062,-3.48031 -47.1925,-8.815c-5.92594,-2.66062 -10.60219,-5.77812 -13.6525,-9.03c-3.05031,-3.25187 -4.515,-6.43656 -4.515,-9.675z"/></g></g></g></svg>
