<?xml version="1.0"?>
<svg xmlns="http://www.w3.org/2000/svg" xmlns:xlink="http://www.w3.org/1999/xlink" version="1.1" viewBox="0 0 172 172" width="100px" height="100px"><g fill="none" fill-rule="nonzero" stroke="none" stroke-width="1" stroke-linecap="butt" stroke-linejoin="miter" stroke-miterlimit="10" stroke-dasharray="" stroke-dashoffset="0" font-family="none" font-weight="none" font-size="none" text-anchor="none" style="mix-blend-mode: normal"><path d="M0,172v-172h172v172z" fill="none"/><g fill="#ffffff"><path d="M24.08,13.76c-5.66036,0 -10.32,4.65964 -10.32,10.32v123.84c0,5.66037 4.65964,10.32 10.32,10.32h123.84c5.66037,0 10.32,-4.65963 10.32,-10.32v-123.84c0,-5.66036 -4.65963,-10.32 -10.32,-10.32zM24.08,20.64h123.84c1.90763,0 3.44,1.53236 3.44,3.44v123.84c0,1.90763 -1.53237,3.44 -3.44,3.44h-123.84c-1.90764,0 -3.44,-1.53237 -3.44,-3.44v-123.84c0,-1.90764 1.53236,-3.44 3.44,-3.44zM77.4,44.72c-18.00792,0 -32.68,14.67208 -32.68,32.68c0,18.00792 14.67208,32.68 32.68,32.68c7.76827,0 14.90234,-2.74594 20.51906,-7.29656l26.92875,26.92875l4.86437,-4.86437l-26.92875,-26.92875c4.55062,-5.61672 7.29656,-12.75079 7.29656,-20.51906c0,-18.00792 -14.67208,-32.68 -32.68,-32.68zM77.4,51.6c14.28969,0 25.8,11.51031 25.8,25.8c0,14.28969 -11.51031,25.8 -25.8,25.8c-14.28969,0 -25.8,-11.51031 -25.8,-25.8c0,-14.28969 11.51031,-25.8 25.8,-25.8z"/></g></g></svg>
