<?xml version="1.0" encoding="UTF-8"?>
<svg xmlns="http://www.w3.org/2000/svg" xmlns:xlink="http://www.w3.org/1999/xlink" viewBox="0 0 50 50" version="1.1" width="50px" height="50px">
<g id="surface1">
<path style="fill:#FFFFFF;" d="M 39.921875 7.988281 C 39.558594 7.980469 39.21875 8.171875 39.035156 8.492188 L 30.394531 23.054688 C 27.769531 23.3125 25.894531 24.34375 24.632813 25.808594 C 23.285156 27.375 22.605469 29.320313 21.984375 31.234375 C 21.367188 33.144531 20.8125 35.046875 19.902344 36.59375 C 19.015625 38.101563 17.839844 39.285156 15.816406 40 L 3 40 C 2.640625 39.996094 2.304688 40.183594 2.121094 40.496094 C 1.941406 40.808594 1.941406 41.191406 2.121094 41.503906 C 2.304688 41.816406 2.640625 42.003906 3 42 L 16 42 C 23 42 28.371094 41.519531 32.183594 39.476563 C 35.929688 37.464844 37.921875 33.792969 37.984375 28.273438 L 47.886719 9.464844 C 48.140625 8.976563 47.953125 8.371094 47.464844 8.113281 C 46.976563 7.859375 46.371094 8.046875 46.113281 8.535156 L 36.402344 26.988281 C 35.585938 27.007813 34.410156 26.777344 33.46875 26.234375 C 32.929688 25.921875 32.488281 25.539063 32.238281 25.179688 C 32.011719 24.847656 31.964844 24.574219 32.003906 24.265625 L 40.753906 9.507813 C 40.941406 9.203125 40.953125 8.824219 40.78125 8.507813 C 40.609375 8.195313 40.28125 7.996094 39.921875 7.988281 Z M 30.050781 25.097656 C 30.15625 25.542969 30.34375 25.957031 30.59375 26.316406 C 31.070313 27.007813 31.738281 27.546875 32.46875 27.96875 C 33.554688 28.59375 34.78125 28.996094 35.957031 29.054688 C 35.753906 33.601563 34.222656 36.113281 31.238281 37.714844 C 28.707031 39.074219 24.660156 39.582031 19.824219 39.789063 C 20.527344 39.117188 21.160156 38.398438 21.625 37.605469 C 22.710938 35.761719 23.285156 33.71875 23.890625 31.847656 C 24.492188 29.976563 25.128906 28.296875 26.148438 27.113281 C 27.023438 26.097656 28.164063 25.371094 30.050781 25.097656 Z "/>
</g>
</svg>
