<?xml version="1.0" encoding="UTF-8"?>
<svg xmlns="http://www.w3.org/2000/svg" xmlns:xlink="http://www.w3.org/1999/xlink" viewBox="0 0 50 50" version="1.1" width="32px" height="32px">
<g id="surface1">
<path style="fill:#FFF;" d="M 8 3 L 8 16.1875 L 5.484375 15.5625 L 3 14.9375 L 3 23 L 11 23 L 11 27 L 3 27 L 3 35.0625 L 8 33.8125 L 8 47 L 15.15625 47 C 16.957031 47 18.660156 46.191406 19.800781 44.796875 L 29.453125 33 L 36.585938 33 C 43.667969 33 48 25 48 25 C 48 25 43.628906 17 36.585938 17 L 29.453125 17 L 19.800781 5.203125 C 18.660156 3.808594 16.957031 3 15.15625 3 Z M 10 5 L 15.15625 5 C 16.359375 5 17.492188 5.535156 18.253906 6.46875 L 26.871094 17 L 18 17 L 18 19 L 36.585938 19 C 41.019531 19 44.339844 23.101563 45.640625 25.007813 C 44.355469 26.914063 41.074219 31 36.585938 31 L 18 31 L 18 33 L 26.871094 33 L 18.25 43.53125 C 17.488281 44.464844 16.359375 45 15.15625 45 L 10 45 L 10 33.3125 L 13 32.5625 L 13 17.4375 L 10 16.6875 Z M 5 17.5 L 11 19 L 11 21 L 5 21 Z M 35 21 L 35 29 L 37 29 C 39.207031 29 41 27.207031 41 25 C 41 22.792969 39.207031 21 37 21 Z M 37 23 C 38.101563 23 39 23.898438 39 25 C 39 26.101563 38.101563 27 37 27 Z M 5 29 L 11 29 L 11 31 L 5 32.5 Z M 13 36 L 13 42 L 15 42 L 15 36 Z "/>
</g>
</svg>
