<?xml version="1.0"?>
<svg xmlns="http://www.w3.org/2000/svg" xmlns:xlink="http://www.w3.org/1999/xlink" version="1.1" viewBox="0 0 172 172" width="100px" height="100px"><g fill="none" fill-rule="nonzero" stroke="none" stroke-width="1" stroke-linecap="butt" stroke-linejoin="miter" stroke-miterlimit="10" stroke-dasharray="" stroke-dashoffset="0" font-family="none" font-weight="none" font-size="none" text-anchor="none" style="mix-blend-mode: normal"><path d="M0,172v-172h172v172z" fill="none"/><g fill="#ffffff"><g id="surface1"><path d="M116.96,0c-30.34187,0 -55.04,24.68469 -55.04,55.04c0,6.74563 1.31688,13.15531 3.5475,19.135l-64.5,64.3925l-0.9675,1.075v23.435l0.9675,1.075l6.88,6.88l1.075,0.9675h23.435l1.075,-0.9675l10.32,-10.32l0.9675,-1.075v-8.2775h8.2775l1.075,-0.9675l10.32,-10.32l0.9675,-1.075v-4.8375h4.8375l1.075,-0.9675l6.88,-6.88l0.9675,-1.075v-4.8375h4.8375l1.075,-0.9675l12.7925,-12.9c5.97969,2.23063 12.38938,3.5475 19.135,3.5475c30.34188,0 55.04,-24.69812 55.04,-55.04c0,-30.35531 -24.69812,-55.04 -55.04,-55.04zM116.96,6.88c26.61969,0 48.16,21.52688 48.16,48.16c0,26.61969 -21.54031,48.16 -48.16,48.16c-6.61125,0 -12.87312,-1.24969 -18.5975,-3.655c-0.04031,-0.04031 -0.06719,-0.06719 -0.1075,-0.1075c-17.29406,-7.31 -29.455,-24.42937 -29.455,-44.3975c0,-26.63312 21.54031,-48.16 48.16,-48.16zM116.96,17.2c-9.68844,0 -19.39031,3.69531 -26.7675,11.0725l-2.4725,2.4725l2.4725,2.365l48.6975,48.6975l2.365,2.4725l2.4725,-2.4725c14.75438,-14.74094 14.75438,-38.79406 0,-53.535c-7.37719,-7.37719 -17.07906,-11.0725 -26.7675,-11.0725zM116.96,24.08c7.91469,0 15.86969,2.96969 21.93,9.03c11.26063,11.26063 11.61,28.79656 1.935,40.9575l-42.8925,-42.8925c5.61688,-4.46125 12.22813,-7.095 19.0275,-7.095zM68.37,80.9475c5.14656,9.62125 13.06125,17.53594 22.6825,22.6825l-9.9975,9.89h-8.815v8.815l-4.945,4.945h-8.815v8.815l-8.385,8.385h-12.255v12.255l-8.385,8.385h-17.63l-3.44,-3.44l56.975,-56.975c1.23625,-1.06156 1.57219,-2.83531 0.79281,-4.25969c-0.77938,-1.43781 -2.45906,-2.12313 -4.01781,-1.65281c-0.65844,0.14781 -1.24969,0.48375 -1.72,0.9675l-53.535,53.6425v-10.8575z"/></g></g></g></svg>
