<?xml version="1.0"?>
<svg xmlns="http://www.w3.org/2000/svg" xmlns:xlink="http://www.w3.org/1999/xlink" version="1.1" viewBox="0 0 192 192" width="50px" height="50px"><g fill="none" fill-rule="nonzero" stroke="none" stroke-width="1" stroke-linecap="butt" stroke-linejoin="miter" stroke-miterlimit="10" stroke-dasharray="" stroke-dashoffset="0" font-family="none" font-weight="none" font-size="none" text-anchor="none" style="mix-blend-mode: normal"><path d="M0,192v-192h192v192z" fill="none"/><g fill="#ffffff"><path d="M93.36,7.68c-3.42353,0 -6.46093,2.36059 -7.29,5.6925l-1.65,6.6c-5.70204,0.86599 -11.18505,2.33648 -16.41,4.38l-4.7175,-4.875c-2.38093,-2.4668 -6.18549,-2.99401 -9.15,-1.29h-0.0075l-4.575,2.64c-2.97572,1.71495 -4.42063,5.28115 -3.4725,8.58l1.89,6.585c-4.42467,3.54839 -8.43026,7.55559 -11.9775,11.9775l-6.5925,-1.8825c-3.29642,-0.94518 -6.86007,0.49367 -8.5725,3.465l-2.64,4.575c-1.70838,2.96432 -1.18078,6.77319 1.2825,9.1575l4.8825,4.725c-2.04441,5.22595 -3.5225,10.71065 -4.3875,16.41l-6.6,1.65c-3.31954,0.83302 -5.6925,3.86867 -5.6925,7.29v5.28c0,3.42133 2.35647,6.45863 5.685,7.29l6.6,1.6425c0.86547,5.70238 2.34438,11.18467 4.3875,16.41l-4.875,4.725c-2.46982,2.38384 -3.00015,6.19012 -1.29,9.1575l2.64,4.575c1.71495,2.97572 5.28115,4.42063 8.58,3.4725l6.5775,-1.89c3.55119,4.42889 7.55881,8.43526 11.985,11.985l-1.89,6.585c-0.94518,3.29642 0.50117,6.86008 3.4725,8.5725l4.575,2.64c2.96738,1.71014 6.77366,1.17982 9.1575,-1.29l4.725,-4.875c5.22627,2.04282 10.70809,3.52199 16.41,4.3875l1.65,6.6v0.0075c0.83683,3.31614 3.86647,5.685 7.29,5.685h5.28c3.42353,0 6.4625,-2.36658 7.29,-5.7l1.65,-6.5925c5.70262,-0.86669 11.18643,-2.33867 16.41,-4.38l4.7175,4.875c2.38093,2.4668 6.18549,2.99401 9.15,1.29h0.0075l4.575,-2.64l0.0075,-0.0075c2.96691,-1.71577 4.40773,-5.27183 3.465,-8.565l-1.89,-6.5925c4.42486,-3.54839 8.43026,-7.55559 11.9775,-11.9775l6.5925,1.8825c3.29642,0.94518 6.86008,-0.49367 8.5725,-3.465l2.64,-4.575c1.70839,-2.96432 1.18078,-6.77319 -1.2825,-9.1575l-0.0075,-0.0075l-4.875,-4.7175c2.04223,-5.22457 3.5218,-10.71006 4.3875,-16.41l6.5925,-1.65c3.32307,-0.83055 5.7,-3.86647 5.7,-7.29v-5.28c0,-3.42342 -2.36522,-6.45616 -5.685,-7.29l-6.6,-1.65c-0.86566,-5.70041 -2.34498,-11.18637 -4.3875,-16.41l4.875,-4.7175c2.4668,-2.38093 3.00151,-6.19299 1.2975,-9.1575h-0.0075l-2.64,-4.5825c-1.71364,-2.97344 -5.27576,-4.40875 -8.5725,-3.465h-0.0075l-6.585,1.8825c-3.54833,-4.42461 -7.55534,-8.43056 -11.9775,-11.9775l1.89,-6.585v-0.0075c0.93979,-3.29074 -0.50246,-6.85174 -3.465,-8.565l-4.5825,-2.6475c-2.96738,-1.71015 -6.77366,-1.17982 -9.1575,1.29l-4.7175,4.8825c-5.22827,-2.04416 -10.71316,-3.52162 -16.4175,-4.3875l-1.65,-6.6v-0.0075c-0.83683,-3.31633 -3.86647,-5.685 -7.29,-5.685zM93.495,15.36h5.0175l2.805,11.2125l2.6475,0.3c6.94393,0.79016 13.56088,2.58843 19.725,5.265l2.445,1.0575l8.01,-8.2875l4.35,2.5125l-3.18,11.145l2.13,1.5825c5.48385,4.0783 10.33063,8.92943 14.4075,14.415l1.5825,2.13l11.1525,-3.1875l2.505,4.35l-8.28,8.0175l1.0575,2.4375c2.67599,6.15913 4.47482,12.78842 5.265,19.7325l0.3,2.64l11.205,2.805v5.025l-11.2125,2.805l-0.3,2.64c-0.79016,6.94393 -2.58842,13.56838 -5.265,19.7325l-1.0575,2.4375l8.28,8.0175l-2.505,4.35l-11.145,-3.1875l-1.59,2.13c-4.0783,5.48385 -8.92193,10.33813 -14.4075,14.415l-2.13,1.5825l3.18,11.145l-4.35,2.5125l-8.01,-8.2875l-2.4375,1.0575c-6.16132,2.6733 -12.78973,4.48247 -19.7325,5.2725l-2.6475,0.3l-2.805,11.205h-5.0175l-2.805,-11.2125l-2.6475,-0.3c-6.94393,-0.79016 -13.56088,-2.58842 -19.725,-5.265l-2.445,-1.0575l-8.01,8.28l-4.35,-2.505l3.18,-11.145l-2.13,-1.59c-5.48385,-4.0783 -10.33063,-8.92193 -14.4075,-14.4075l-1.5825,-2.13l-11.1525,3.18l-2.505,-4.35l8.28,-8.01l-1.0575,-2.445c-2.67598,-6.15912 -4.47482,-12.78091 -5.265,-19.725l-0.3,-2.6475l-11.205,-2.805v-5.0175l11.2125,-2.805l0.3,-2.64c0.79031,-6.94525 2.58574,-13.57057 5.265,-19.7325l1.0575,-2.4375l-8.28,-8.0175l2.505,-4.35l11.145,3.1875l1.59,-2.13c4.0783,-5.48385 8.92193,-10.33813 14.4075,-14.415l2.13,-1.5825l-3.18,-11.145l4.35,-2.5125l8.01,8.2875l2.445,-1.0575c6.15912,-2.67598 12.78091,-4.48232 19.725,-5.2725l2.6475,-0.3zM92.16,42.255l-4.425,0.6825c-13.50349,2.09145 -25.36363,9.16745 -33.5775,19.35l-2.82,3.495l30.1425,17.4l2.0625,-1.77c1.76199,-1.51028 3.80948,-2.69881 6.06,-3.495l2.5575,-0.9v-2.715zM99.84,42.255v34.755l2.5575,0.9075c2.24726,0.79617 4.29233,1.98259 6.06,3.495l2.07,1.77l2.3475,-1.3575l27.7875,-16.0425l-2.82,-3.495c-8.21347,-10.18206 -20.07022,-17.2586 -33.5775,-19.35zM84.48,52.095v20.0625c-1.17617,0.56884 -2.29319,1.21304 -3.3675,1.9425l-17.415,-10.05c5.68905,-5.73688 12.72506,-9.83343 20.7825,-11.955zM107.52,52.095c8.05901,2.1212 15.09369,6.21809 20.7825,11.955l-17.4075,10.05c-1.07618,-0.73079 -2.19753,-1.37263 -3.375,-1.9425zM47.5125,72.4425l-1.62,4.185c-2.32142,5.9994 -3.6525,12.52431 -3.6525,19.3725c0,6.84819 1.33108,13.3731 3.6525,19.3725l1.62,4.185l30.1125,-17.385l-0.4875,-2.6625c-0.21463,-1.17219 -0.3375,-2.34079 -0.3375,-3.51c0,-1.16921 0.12288,-2.33782 0.3375,-3.51l0.4875,-2.6625zM144.4875,72.4425l-30.1125,17.385l0.4875,2.6625c0.21463,1.17219 0.3375,2.34079 0.3375,3.51c0,1.16921 -0.12288,2.33782 -0.3375,3.51l-0.4875,2.6625l30.1125,17.385l1.62,-4.185c2.32141,-5.9994 3.6525,-12.52431 3.6525,-19.3725c0,-6.84819 -1.33108,-13.3731 -3.6525,-19.3725zM52.185,84.0075l17.1375,9.8925c-0.05992,0.70541 -0.2025,1.36851 -0.2025,2.1c0,0.73149 0.14259,1.39459 0.2025,2.1l-17.1375,9.8925c-1.08279,-3.89136 -2.265,-7.76418 -2.265,-11.9925c0,-4.22832 1.1822,-8.10114 2.265,-11.9925zM139.815,84.0075c1.0828,3.89136 2.265,7.76418 2.265,11.9925c0,4.22832 -1.1822,8.10114 -2.265,11.9925l-17.1375,-9.8925c0.05992,-0.70541 0.2025,-1.36851 0.2025,-2.1c0,-0.73149 -0.14259,-1.39459 -0.2025,-2.1zM81.4725,108.8175l-2.3475,1.3575l-27.7875,16.0425l2.82,3.495c8.21347,10.18206 20.07022,17.2586 33.5775,19.35l4.425,0.6825v-34.755l-2.5575,-0.9075c-2.24726,-0.79617 -4.29233,-1.98259 -6.06,-3.495zM110.52,108.8175l-2.0625,1.77c-1.76199,1.51028 -3.80948,2.69881 -6.06,3.495l-2.5575,0.9v2.715v32.0475l4.425,-0.6825c13.50349,-2.09145 25.36363,-9.16745 33.5775,-19.35l2.82,-3.495zM81.105,117.9c1.07617,0.73079 2.19753,1.37263 3.375,1.9425v20.0625c-8.05901,-2.1212 -15.09369,-6.21809 -20.7825,-11.955zM110.8875,117.9l17.415,10.05c-5.68904,5.73688 -12.72506,9.83343 -20.7825,11.955v-20.0625c1.17617,-0.56884 2.29319,-1.21304 3.3675,-1.9425z"/></g></g></svg>
