<?xml version="1.0"?>
<svg xmlns="http://www.w3.org/2000/svg" viewBox="0 0 30 30" width="30px" height="30px">
    <path style="fill:#677294;line-height:normal;text-indent:0;text-align:start;text-decoration-line:none;text-decoration-style:solid;text-decoration-color:#000;text-transform:none;block-progression:tb;isolation:auto;mix-blend-mode:normal" d="M 15 3 C 8.383 3 3 8.383 3 15 C 3 21.617 8.383 27 15 27 C 16.038 27 17.039 26.854469 18 26.605469 L 18 21.361328 C 17.212 23.604328 16.073 25 15 25 C 13.722 25 12.344938 23.039 11.585938 20 L 18 20 L 18 18 L 11.201172 18 C 11.072172 17.061 11 16.055 11 15 C 11 13.935949 11.091747 12.94581 11.222656 12 L 18.777344 12 C 18.908253 12.94581 19 13.935949 19 15 C 19 15.274 18.981656 15.534734 18.972656 15.802734 C 19.507656 15.308734 20.216 15 21 15 C 21 13.953941 20.933063 12.954186 20.818359 12 L 24.537109 12 C 24.836002 12.947479 25 13.954905 25 15 C 25 15.695 24.921156 16.370391 24.785156 17.025391 L 26.535156 18.273438 C 26.831156 17.231438 27 16.136 27 15 C 27 8.383 21.617 3 15 3 z M 15 5 C 16.274833 5 17.634576 6.9742201 18.394531 10 L 11.605469 10 C 12.365424 6.9742201 13.725167 5 15 5 z M 11.0625 5.8105469 C 10.39859 6.9380498 9.8705849 8.364904 9.5136719 10 L 6.3457031 10 C 7.4223535 8.1452689 9.0770161 6.6647343 11.0625 5.8105469 z M 18.9375 5.8105469 C 20.922984 6.6647343 22.577646 8.1452689 23.654297 10 L 20.486328 10 C 20.129415 8.364904 19.60141 6.9380498 18.9375 5.8105469 z M 5.4628906 12 L 9.1816406 12 C 9.0669367 12.954186 9 13.953941 9 15 C 9 16.046 9.0676406 17.045 9.1816406 18 L 5.4609375 18 C 5.1629375 17.052 5 16.045 5 15 C 5 13.954905 5.1639984 12.947479 5.4628906 12 z M 21.015625 16.988281 A 1.0001 1.0001 0 0 0 20 18.095703 L 20 27 C 20 27.552 20.448 28 21 28 C 21.288 28 21.542609 27.874688 21.724609 27.679688 L 21.730469 27.681641 L 23.611328 25.458984 L 25.605469 29.447266 A 1.0001163 1.0001163 0 1 0 27.394531 28.552734 L 25.359375 24.484375 L 28.275391 23.960938 L 28.277344 23.943359 C 28.691344 23.822359 29 23.454 29 23 C 29 22.651 28.809109 22.358687 28.537109 22.179688 L 28.541016 22.160156 L 21.701172 17.28125 A 1.0001 1.0001 0 0 0 21.015625 16.988281 z M 6.3535156 20 L 9.5117188 20 C 9.8677187 21.638 10.396547 23.061453 11.060547 24.189453 C 9.0775469 23.335453 7.4305156 21.854 6.3535156 20 z" font-weight="400" font-family="sans-serif" white-space="normal" overflow="visible"/>
</svg>
