<?xml version="1.0" encoding="UTF-8" standalone="no"?><!DOCTYPE svg PUBLIC "-//W3C//DTD SVG 1.1//EN" "http://www.w3.org/Graphics/SVG/1.1/DTD/svg11.dtd"><svg width="100%" height="100%" viewBox="0 0 63 63" version="1.1" xmlns="http://www.w3.org/2000/svg" xmlns:xlink="http://www.w3.org/1999/xlink" xml:space="preserve" xmlns:serif="http://www.serif.com/" style="fill-rule:evenodd;clip-rule:evenodd;stroke-linejoin:round;stroke-miterlimit:1.41421;"><path d="M4.5,4.5c-2.467,0 -4.5,2.033 -4.5,4.5l0,45c0,2.467 2.033,4.5 4.5,4.5l54,0c2.467,0 4.5,-2.033 4.5,-4.5l0,-45c0,-2.467 -2.033,-4.5 -4.5,-4.5l-54,0Zm0,3l54,0c0.848,0 1.5,0.652 1.5,1.5l0,4.5l-57,0l0,-4.5c0,-0.848 0.652,-1.5 1.5,-1.5Zm1.5,1.5c-0.828,0 -1.5,0.672 -1.5,1.5c0,0.828 0.672,1.5 1.5,1.5c0.828,0 1.5,-0.672 1.5,-1.5c0,-0.828 -0.672,-1.5 -1.5,-1.5Zm4.5,0c-0.828,0 -1.5,0.672 -1.5,1.5c0,0.828 0.672,1.5 1.5,1.5c0.828,0 1.5,-0.672 1.5,-1.5c0,-0.828 -0.672,-1.5 -1.5,-1.5Zm4.5,0c-0.828,0 -1.5,0.672 -1.5,1.5c0,0.828 0.672,1.5 1.5,1.5c0.828,0 1.5,-0.672 1.5,-1.5c0,-0.828 -0.672,-1.5 -1.5,-1.5Zm-12,7.5l57,0l0,37.5c0,0.848 -0.652,1.5 -1.5,1.5l-54,0c-0.848,0 -1.5,-0.652 -1.5,-1.5l0,-37.5Zm45,9c-1.657,0 -3,1.343 -3,3c0,0.373 0.07,0.742 0.205,1.09l-8.757,10.948c-0.148,-0.024 -0.298,-0.037 -0.448,-0.038c-0.203,0.001 -0.405,0.023 -0.604,0.064l-8.551,-9.621c0.102,-0.304 0.154,-0.622 0.155,-0.943c0,-1.657 -1.343,-3 -3,-3c-1.657,0 -3,1.343 -3,3c0.001,0.261 0.037,0.521 0.105,0.773l-5.329,5.33c-0.253,-0.068 -0.514,-0.103 -0.776,-0.103c-1.657,0 -3,1.343 -3,3c0,1.657 1.343,3 3,3c1.657,0 3,-1.343 3,-3c-0.001,-0.261 -0.037,-0.521 -0.105,-0.773l5.329,-5.33c0.253,0.068 0.514,0.103 0.776,0.103c0.204,0 0.407,-0.02 0.606,-0.062l8.549,9.619c-0.102,0.304 -0.154,0.622 -0.155,0.943c0,1.657 1.343,3 3,3c1.657,0 3,-1.343 3,-3c0,-0.373 -0.07,-0.742 -0.205,-1.09l8.757,-10.948c0.148,0.024 0.298,0.037 0.448,0.038c1.657,0 3,-1.343 3,-3c0,-1.657 -1.343,-3 -3,-3l0,0Z" style="fill:#fff;fill-rule:nonzero;"/></svg>