<?xml version="1.0"?>
<svg xmlns="http://www.w3.org/2000/svg" xmlns:xlink="http://www.w3.org/1999/xlink" version="1.1" viewBox="0 0 172 172" width="100px" height="100px"><g fill="none" fill-rule="nonzero" stroke="none" stroke-width="1" stroke-linecap="butt" stroke-linejoin="miter" stroke-miterlimit="10" stroke-dasharray="" stroke-dashoffset="0" font-family="none" font-weight="none" font-size="none" text-anchor="none" style="mix-blend-mode: normal"><path d="M0,172v-172h172v172z" fill="none"/><g fill="#333333"><g id="surface1"><path d="M151.0375,6.7725c-0.1075,0.02688 -0.215,0.06719 -0.3225,0.1075h-13.115c-0.92719,0 -1.8275,0.41656 -2.4725,1.075l-48.375,49.1275l4.1925,5.375l13.0075,-13.115l2.365,22.4675l-3.7625,5.59l3.87,5.0525c0.17469,0.22844 0.37625,0.41656 0.5375,0.645l40.9575,-61.3825v75.5725c-2.05594,1.19594 -3.44,3.37281 -3.44,5.9125c0,2.53969 1.38406,4.71656 3.44,5.9125v4.3c0,3.225 2.09625,6.26188 5.375,7.2025c3.23844,0.92719 5.50938,4.13875 4.8375,7.955c-0.47031,2.66063 -2.80844,5.01219 -5.4825,5.4825c-4.515,0.79281 -8.17,-2.51281 -8.17,-6.7725c0.01344,-1.23625 -0.63156,-2.39187 -1.70656,-3.02344c-1.075,-0.61813 -2.39187,-0.61813 -3.46687,0c-1.075,0.63156 -1.72,1.78719 -1.70656,3.02344c0,8.37156 7.69969,15.03656 16.2325,13.545c5.63031,-0.99437 10.09156,-5.44219 11.0725,-11.0725c1.26313,-7.2025 -3.25187,-13.84062 -9.7825,-15.695c-0.13437,-0.04031 -0.3225,-0.3225 -0.3225,-0.645v-4.3c2.05594,-1.19594 3.44,-3.37281 3.44,-5.9125c0,-2.53969 -1.38406,-4.71656 -3.44,-5.9125v-86.7525c0.01344,-0.16125 0.01344,-0.37625 0,-0.5375c-0.08062,-0.76594 -0.43,-1.49156 -0.9675,-2.0425c-0.69875,-0.80625 -1.73344,-1.23625 -2.795,-1.1825zM138.9975,13.76h5.9125l-11.7175,17.63l-0.9675,-10.8575zM125.8825,27.09l0.86,10.535l-12.04,0.7525zM124.3775,44.6125l-12.1475,18.1675l-1.8275,-17.2zM27.52,55.04c-5.65719,0 -10.32,4.66281 -10.32,10.32v41.28c0,5.65719 4.66281,10.32 10.32,10.32h10.32v6.88h-10.32c-11.35469,0 -20.64,9.28531 -20.64,20.64c0,11.35469 9.28531,20.64 20.64,20.64h75.68c11.35469,0 20.64,-9.28531 20.64,-20.64c0,-11.35469 -9.28531,-20.64 -20.64,-20.64h-10.32v-6.88h3.44c5.65719,0 10.32,-4.66281 10.32,-10.32v-13.6525c0,-3.06375 -1.02125,-6.07375 -2.9025,-8.4925l-19.8875,-25.4775c-1.94844,-2.51281 -4.87781,-3.9775 -8.0625,-3.9775zM27.52,61.92h28.38l9.5675,35.26l0.7525,2.58h33.54v6.88c0,1.94844 -1.49156,3.44 -3.44,3.44h-68.8c-1.94844,0 -3.44,-1.49156 -3.44,-3.44v-41.28c0,-1.94844 1.49156,-3.44 3.44,-3.44zM62.995,61.92h12.7925c1.06156,0 2.02906,0.45688 2.6875,1.29l19.8875,25.585c0.91375,1.1825 1.37063,2.59344 1.3975,4.085h-28.38zM44.72,116.96h41.28v6.88h-41.28zM27.52,130.72h75.68c7.6325,0 13.76,6.1275 13.76,13.76c0,7.6325 -6.1275,13.76 -13.76,13.76h-75.68c-7.6325,0 -13.76,-6.1275 -13.76,-13.76c0,-7.6325 6.1275,-13.76 13.76,-13.76zM27.52,137.6c-3.80281,0 -6.88,3.07719 -6.88,6.88c0,3.80281 3.07719,6.88 6.88,6.88c3.80281,0 6.88,-3.07719 6.88,-6.88c0,-3.80281 -3.07719,-6.88 -6.88,-6.88zM48.16,137.6c-3.80281,0 -6.88,3.07719 -6.88,6.88c0,3.80281 3.07719,6.88 6.88,6.88c3.80281,0 6.88,-3.07719 6.88,-6.88c0,-3.80281 -3.07719,-6.88 -6.88,-6.88zM82.56,137.6c-3.80281,0 -6.88,3.07719 -6.88,6.88c0,3.80281 3.07719,6.88 6.88,6.88c3.80281,0 6.88,-3.07719 6.88,-6.88c0,-3.80281 -3.07719,-6.88 -6.88,-6.88zM103.2,137.6c-3.80281,0 -6.88,3.07719 -6.88,6.88c0,3.80281 3.07719,6.88 6.88,6.88c3.80281,0 6.88,-3.07719 6.88,-6.88c0,-3.80281 -3.07719,-6.88 -6.88,-6.88z"/></g></g></g></svg>
