<?xml version="1.0"?>
<svg xmlns="http://www.w3.org/2000/svg" xmlns:xlink="http://www.w3.org/1999/xlink" version="1.1" viewBox="0 0 172 172" width="100px" height="100px"><g fill="none" fill-rule="nonzero" stroke="none" stroke-width="1" stroke-linecap="butt" stroke-linejoin="miter" stroke-miterlimit="10" stroke-dasharray="" stroke-dashoffset="0" font-family="none" font-weight="none" font-size="none" text-anchor="none" style="mix-blend-mode: normal"><path d="M0,172v-172h172v172z" fill="none"/><g fill="#ffffff"><path d="M24.08,13.76c-5.6587,0 -10.32,4.6613 -10.32,10.32v120.4c0,5.6587 4.6613,10.32 10.32,10.32h111.34985l12.83281,12.72531c5.504,5.504 14.10669,5.848 19.95469,0c5.504,-5.504 4.816,-14.44397 0,-19.94797l-9.97735,-9.84297v-113.65437c0,-5.6587 -4.6613,-10.32 -10.32,-10.32zM24.08,20.64h123.84c1.9437,0 3.44,1.4963 3.44,3.44v106.86172l-31.98797,-31.56469c-0.42656,-0.41968 -0.94724,-0.71864 -1.52516,-0.87344l-20.64,-5.50938c-1.204,-0.31648 -2.47234,0.02967 -3.33922,0.91375c-0.86688,0.88064 -1.19712,2.16241 -0.86,3.35266l5.85203,20.64c0.16168,0.57104 0.46376,1.08532 0.88688,1.505l28.74953,28.51437h-104.4161c-1.9437,0 -3.44,-1.4963 -3.44,-3.44v-120.4c0,-1.9437 1.4963,-3.44 3.44,-3.44zM44.72,44.72c-1.24059,-0.01754 -2.39452,0.63425 -3.01993,1.7058c-0.62541,1.07155 -0.62541,2.39684 0,3.46839c0.62541,1.07155 1.77935,1.72335 3.01993,1.7058h82.56c1.24059,0.01754 2.39452,-0.63425 3.01993,-1.7058c0.62541,-1.07155 0.62541,-2.39684 0,-3.46839c-0.62541,-1.07155 -1.77935,-1.72335 -3.01993,-1.7058zM44.72,68.8c-1.24059,-0.01754 -2.39452,0.63425 -3.01993,1.7058c-0.62541,1.07155 -0.62541,2.39684 0,3.46839c0.62541,1.07155 1.77935,1.72335 3.01993,1.7058h82.56c1.24059,0.01754 2.39452,-0.63425 3.01993,-1.7058c0.62541,-1.07155 0.62541,-2.39684 0,-3.46839c-0.62541,-1.07155 -1.77935,-1.72335 -3.01993,-1.7058zM44.72,92.88c-1.24059,-0.01754 -2.39452,0.63425 -3.01993,1.7058c-0.62541,1.07155 -0.62541,2.39684 0,3.46839c0.62541,1.07155 1.77935,1.72335 3.01993,1.7058h34.4c1.24059,0.01754 2.39452,-0.63425 3.01993,-1.7058c0.62541,-1.07155 0.62541,-2.39684 0,-3.46839c-0.62541,-1.07155 -1.77935,-1.72335 -3.01993,-1.7058zM115.19297,104.91328l45.59344,45.27094l-10.26625,10.27297l-45.28437,-45.30453l-0.11422,-0.3964z"/></g></g></svg>
