<?xml version="1.0"?>
<svg xmlns="http://www.w3.org/2000/svg" xmlns:xlink="http://www.w3.org/1999/xlink" version="1.1" viewBox="0 0 172 172" width="100px" height="100px"><g fill="none" fill-rule="nonzero" stroke="none" stroke-width="1" stroke-linecap="butt" stroke-linejoin="miter" stroke-miterlimit="10" stroke-dasharray="" stroke-dashoffset="0" font-family="none" font-weight="none" font-size="none" text-anchor="none" style="mix-blend-mode: normal"><path d="M0,172v-172h172v172z" fill="none"/><g fill="#ffffff"><g id="surface1"><path d="M23.65,6.88c-1.73344,0.215 -3.02344,1.69313 -3.01,3.44v141.04h-3.44c-3.80281,0 -6.88,3.07719 -6.88,6.88c0,3.80281 3.07719,6.88 6.88,6.88h137.6c3.80281,0 6.88,-3.07719 6.88,-6.88c0,-3.80281 -3.07719,-6.88 -6.88,-6.88h-3.44v-141.04c0.01344,-1.19594 -0.60469,-2.29781 -1.59906,-2.92937c-1.00781,-0.645 -2.27094,-0.71219 -3.34594,-0.18813l-5.375,2.6875l-5.375,-2.6875c-0.95406,-0.45687 -2.05594,-0.45687 -3.01,0l-5.375,2.6875l-5.375,-2.6875c-0.95406,-0.45687 -2.05594,-0.45687 -3.01,0l-5.375,2.6875l-5.375,-2.6875c-0.95406,-0.45687 -2.05594,-0.45687 -3.01,0l-5.375,2.6875l-5.375,-2.6875c-0.95406,-0.45687 -2.05594,-0.45687 -3.01,0l-5.375,2.6875l-5.375,-2.6875c-0.95406,-0.45687 -2.05594,-0.45687 -3.01,0l-5.375,2.6875l-5.375,-2.6875c-0.95406,-0.45687 -2.05594,-0.45687 -3.01,0l-5.375,2.6875l-5.375,-2.6875c-0.95406,-0.45687 -2.05594,-0.45687 -3.01,0l-5.375,2.6875l-5.375,-2.6875c-0.95406,-0.45687 -2.05594,-0.45687 -3.01,0l-5.375,2.6875l-5.375,-2.6875c-0.60469,-0.29562 -1.27656,-0.40312 -1.935,-0.3225zM37.84,14.19l5.375,2.6875c0.95406,0.45688 2.05594,0.45688 3.01,0l5.375,-2.6875l5.375,2.6875c0.95406,0.45688 2.05594,0.45688 3.01,0l5.375,-2.6875l5.375,2.6875c0.95406,0.45688 2.05594,0.45688 3.01,0l5.375,-2.6875l5.375,2.6875c0.95406,0.45688 2.05594,0.45688 3.01,0l5.375,-2.6875l5.375,2.6875c0.95406,0.45688 2.05594,0.45688 3.01,0l5.375,-2.6875l5.375,2.6875c0.95406,0.45688 2.05594,0.45688 3.01,0l5.375,-2.6875l5.375,2.6875c0.95406,0.45688 2.05594,0.45688 3.01,0l5.375,-2.6875l5.375,2.6875c0.95406,0.45688 2.05594,0.45688 3.01,0l1.935,-0.9675v142.33h-116.96v-142.33l1.935,0.9675c0.95406,0.45688 2.05594,0.45688 3.01,0zM43.7525,37.84c-1.89469,0.26875 -3.225,2.02906 -2.95625,3.92375c0.26875,1.89469 2.02906,3.225 3.92375,2.95625h51.6c1.23625,0.01344 2.39188,-0.63156 3.02344,-1.70656c0.61813,-1.075 0.61813,-2.39187 0,-3.46687c-0.63156,-1.075 -1.78719,-1.72 -3.02344,-1.70656h-51.6c-0.1075,0 -0.215,0 -0.3225,0c-0.1075,0 -0.215,0 -0.3225,0c-0.1075,0 -0.215,0 -0.3225,0zM115.9925,37.84c-1.89469,0.26875 -3.225,2.02906 -2.95625,3.92375c0.26875,1.89469 2.02906,3.225 3.92375,2.95625h10.32c1.23625,0.01344 2.39188,-0.63156 3.02344,-1.70656c0.61813,-1.075 0.61813,-2.39187 0,-3.46687c-0.63156,-1.075 -1.78719,-1.72 -3.02344,-1.70656h-10.32c-0.1075,0 -0.215,0 -0.3225,0c-0.1075,0 -0.215,0 -0.3225,0c-0.1075,0 -0.215,0 -0.3225,0zM43.7525,58.48c-1.89469,0.26875 -3.225,2.02906 -2.95625,3.92375c0.26875,1.89469 2.02906,3.225 3.92375,2.95625h37.84c1.23625,0.01344 2.39188,-0.63156 3.02344,-1.70656c0.61813,-1.075 0.61813,-2.39187 0,-3.46687c-0.63156,-1.075 -1.78719,-1.72 -3.02344,-1.70656h-37.84c-0.1075,0 -0.215,0 -0.3225,0c-0.1075,0 -0.215,0 -0.3225,0c-0.1075,0 -0.215,0 -0.3225,0zM115.9925,58.48c-1.89469,0.26875 -3.225,2.02906 -2.95625,3.92375c0.26875,1.89469 2.02906,3.225 3.92375,2.95625h10.32c1.23625,0.01344 2.39188,-0.63156 3.02344,-1.70656c0.61813,-1.075 0.61813,-2.39187 0,-3.46687c-0.63156,-1.075 -1.78719,-1.72 -3.02344,-1.70656h-10.32c-0.1075,0 -0.215,0 -0.3225,0c-0.1075,0 -0.215,0 -0.3225,0c-0.1075,0 -0.215,0 -0.3225,0zM43.7525,79.12c-1.89469,0.26875 -3.225,2.02906 -2.95625,3.92375c0.26875,1.89469 2.02906,3.225 3.92375,2.95625h51.6c1.23625,0.01344 2.39188,-0.63156 3.02344,-1.70656c0.61813,-1.075 0.61813,-2.39187 0,-3.46687c-0.63156,-1.075 -1.78719,-1.72 -3.02344,-1.70656h-51.6c-0.1075,0 -0.215,0 -0.3225,0c-0.1075,0 -0.215,0 -0.3225,0c-0.1075,0 -0.215,0 -0.3225,0zM115.9925,79.12c-1.89469,0.26875 -3.225,2.02906 -2.95625,3.92375c0.26875,1.89469 2.02906,3.225 3.92375,2.95625h10.32c1.23625,0.01344 2.39188,-0.63156 3.02344,-1.70656c0.61813,-1.075 0.61813,-2.39187 0,-3.46687c-0.63156,-1.075 -1.78719,-1.72 -3.02344,-1.70656h-10.32c-0.1075,0 -0.215,0 -0.3225,0c-0.1075,0 -0.215,0 -0.3225,0c-0.1075,0 -0.215,0 -0.3225,0zM43.7525,99.76c-1.89469,0.26875 -3.225,2.02906 -2.95625,3.92375c0.26875,1.89469 2.02906,3.225 3.92375,2.95625h37.84c1.23625,0.01344 2.39188,-0.63156 3.02344,-1.70656c0.61813,-1.075 0.61813,-2.39187 0,-3.46687c-0.63156,-1.075 -1.78719,-1.72 -3.02344,-1.70656h-37.84c-0.1075,0 -0.215,0 -0.3225,0c-0.1075,0 -0.215,0 -0.3225,0c-0.1075,0 -0.215,0 -0.3225,0zM115.9925,99.76c-1.89469,0.26875 -3.225,2.02906 -2.95625,3.92375c0.26875,1.89469 2.02906,3.225 3.92375,2.95625h10.32c1.23625,0.01344 2.39188,-0.63156 3.02344,-1.70656c0.61813,-1.075 0.61813,-2.39187 0,-3.46687c-0.63156,-1.075 -1.78719,-1.72 -3.02344,-1.70656h-10.32c-0.1075,0 -0.215,0 -0.3225,0c-0.1075,0 -0.215,0 -0.3225,0c-0.1075,0 -0.215,0 -0.3225,0zM44.72,120.4c-1.89469,0 -3.44,1.54531 -3.44,3.44c0,1.89469 1.54531,3.44 3.44,3.44c1.89469,0 3.44,-1.54531 3.44,-3.44c0,-1.89469 -1.54531,-3.44 -3.44,-3.44zM55.04,120.4c-1.89469,0 -3.44,1.54531 -3.44,3.44c0,1.89469 1.54531,3.44 3.44,3.44c1.89469,0 3.44,-1.54531 3.44,-3.44c0,-1.89469 -1.54531,-3.44 -3.44,-3.44zM65.36,120.4c-1.89469,0 -3.44,1.54531 -3.44,3.44c0,1.89469 1.54531,3.44 3.44,3.44c1.89469,0 3.44,-1.54531 3.44,-3.44c0,-1.89469 -1.54531,-3.44 -3.44,-3.44zM75.68,120.4c-1.89469,0 -3.44,1.54531 -3.44,3.44c0,1.89469 1.54531,3.44 3.44,3.44c1.89469,0 3.44,-1.54531 3.44,-3.44c0,-1.89469 -1.54531,-3.44 -3.44,-3.44zM86,120.4c-1.89469,0 -3.44,1.54531 -3.44,3.44c0,1.89469 1.54531,3.44 3.44,3.44c1.89469,0 3.44,-1.54531 3.44,-3.44c0,-1.89469 -1.54531,-3.44 -3.44,-3.44zM96.32,120.4c-1.89469,0 -3.44,1.54531 -3.44,3.44c0,1.89469 1.54531,3.44 3.44,3.44c1.89469,0 3.44,-1.54531 3.44,-3.44c0,-1.89469 -1.54531,-3.44 -3.44,-3.44zM106.64,120.4c-1.89469,0 -3.44,1.54531 -3.44,3.44c0,1.89469 1.54531,3.44 3.44,3.44c1.89469,0 3.44,-1.54531 3.44,-3.44c0,-1.89469 -1.54531,-3.44 -3.44,-3.44zM116.96,120.4c-1.89469,0 -3.44,1.54531 -3.44,3.44c0,1.89469 1.54531,3.44 3.44,3.44c1.89469,0 3.44,-1.54531 3.44,-3.44c0,-1.89469 -1.54531,-3.44 -3.44,-3.44zM127.28,120.4c-1.89469,0 -3.44,1.54531 -3.44,3.44c0,1.89469 1.54531,3.44 3.44,3.44c1.89469,0 3.44,-1.54531 3.44,-3.44c0,-1.89469 -1.54531,-3.44 -3.44,-3.44zM105.6725,137.6c-1.89469,0.26875 -3.225,2.02906 -2.95625,3.92375c0.26875,1.89469 2.02906,3.225 3.92375,2.95625h20.64c1.23625,0.01344 2.39188,-0.63156 3.02344,-1.70656c0.61813,-1.075 0.61813,-2.39187 0,-3.46687c-0.63156,-1.075 -1.78719,-1.72 -3.02344,-1.70656h-20.64c-0.1075,0 -0.215,0 -0.3225,0c-0.1075,0 -0.215,0 -0.3225,0c-0.1075,0 -0.215,0 -0.3225,0z"/></g></g></g></svg>
