<?xml version="1.0" encoding="UTF-8"?>
<svg xmlns="http://www.w3.org/2000/svg" xmlns:xlink="http://www.w3.org/1999/xlink" viewBox="0 0 26 26" version="1.1" width="52px" height="52px">
<g id="surface1">
<path style="fill:#0f1029;" d="M 6.65625 4 C 6.367188 4 6.105469 4.113281 5.90625 4.3125 L 4.3125 5.90625 C 3.914063 6.304688 3.914063 7 4.3125 7.5 L 9.8125 13 L 4.3125 18.5 C 3.914063 19 3.914063 19.695313 4.3125 20.09375 L 5.90625 21.6875 C 6.40625 22.085938 7.101563 22.085938 7.5 21.6875 L 13 16.1875 L 18.5 21.6875 C 19 22.085938 19.695313 22.085938 20.09375 21.6875 L 21.6875 20.09375 C 22.085938 19.59375 22.085938 18.898438 21.6875 18.5 L 16.1875 13 L 21.6875 7.5 C 22.085938 7 22.085938 6.304688 21.6875 5.90625 L 20.09375 4.3125 C 19.59375 3.914063 18.898438 3.914063 18.5 4.3125 L 13 9.8125 L 7.5 4.3125 C 7.25 4.113281 6.945313 4 6.65625 4 Z "/>
</g>
</svg>
