<?xml version="1.0"?>
<svg xmlns="http://www.w3.org/2000/svg" xmlns:xlink="http://www.w3.org/1999/xlink" version="1.1" viewBox="0 0 192 192" width="32px" height="32px"><g fill="none" fill-rule="nonzero" stroke="none" stroke-width="1" stroke-linecap="butt" stroke-linejoin="miter" stroke-miterlimit="10" stroke-dasharray="" stroke-dashoffset="0" font-family="none" font-weight="none" font-size="none" text-anchor="none" style="mix-blend-mode: normal"><path d="M0,192v-192h192v192z" fill="none"/><g fill="#ffffff"><g id="surface1"><path d="M93.5625,17.8125c-3.1875,0.09375 -6.46875,0.44531 -9.75,0.9375h-0.1875c-31.94531,5.22656 -57.82031,30.39844 -64.3125,62.25c-1.94531,9.07031 -1.82812,17.53125 -0.5625,25.875c0.04688,0.02344 0,0.14063 0,0.1875c1.96875,14.08594 20.25,20.25 30.5625,9.9375c7.38281,-7.38281 18.30469,-7.38281 25.6875,0c7.38281,7.38281 7.38281,18.30469 0,25.6875c-10.3125,10.3125 -4.14844,28.59375 9.9375,30.5625c0.04688,0 0.16406,-0.04687 0.1875,0c8.27344,1.26563 16.6875,1.33594 25.6875,-0.5625c0.07031,0 0.11719,0 0.1875,0c31.94531,-5.95312 57.04688,-32.4375 62.25,-64.3125v-0.1875c6.79688,-45.84375 -26.71875,-85.875 -70.3125,-90c-3.11719,-0.30469 -6.1875,-0.46875 -9.375,-0.375zM93.75,29.8125c2.71875,-0.09375 5.41406,-0.04687 8.0625,0.1875c37.17188,3.39844 65.4375,37.28906 59.625,76.5c-4.38281,26.85938 -25.92187,49.45313 -52.6875,54.375h-0.1875c-7.66406,1.64063 -14.74219,1.66406 -21.9375,0.5625c-4.92187,-0.60937 -7.19531,-6.11719 -3.1875,-10.125c11.8125,-11.8125 11.8125,-30.9375 0,-42.75c-11.8125,-11.8125 -30.9375,-11.8125 -42.75,0c-4.00781,4.00781 -9.51562,1.73438 -10.125,-3.1875c-1.10156,-7.19531 -1.07812,-14.27344 0.5625,-21.9375c5.50781,-26.92969 27.51563,-48.49219 54.375,-52.875c2.8125,-0.42187 5.53125,-0.65625 8.25,-0.75zM84,42c-6.63281,0 -12,5.36719 -12,12c0,6.63281 5.36719,12 12,12c6.63281,0 12,-5.36719 12,-12c0,-6.63281 -5.36719,-12 -12,-12zM126,54c-6.63281,0 -12,5.36719 -12,12c0,6.63281 5.36719,12 12,12c6.63281,0 12,-5.36719 12,-12c0,-6.63281 -5.36719,-12 -12,-12zM54,66c-6.63281,0 -12,5.36719 -12,12c0,6.63281 5.36719,12 12,12c6.63281,0 12,-5.36719 12,-12c0,-6.63281 -5.36719,-12 -12,-12zM138,96c-6.63281,0 -12,5.36719 -12,12c0,6.63281 5.36719,12 12,12c6.63281,0 12,-5.36719 12,-12c0,-6.63281 -5.36719,-12 -12,-12zM114,126c-6.63281,0 -12,5.36719 -12,12c0,6.63281 5.36719,12 12,12c6.63281,0 12,-5.36719 12,-12c0,-6.63281 -5.36719,-12 -12,-12z"/></g></g></g></svg>
