<?xml version="1.0" encoding="iso-8859-1"?>
<!-- Generator: Adobe Illustrator 20.1.0, SVG Export Plug-In . SVG Version: 6.00 Build 0)  -->
<svg xmlns="http://www.w3.org/2000/svg" xmlns:xlink="http://www.w3.org/1999/xlink" version="1.1" id="&#1057;&#1083;&#1086;&#1081;_1" x="0px" y="0px" viewBox="0 0 64 64" style="enable-background:new 0 0 64 64;" xml:space="preserve" width="64px" height="64px">
<linearGradient id="SVGID_1__52562" gradientUnits="userSpaceOnUse" x1="32" y1="6.125" x2="32" y2="19.9209" spreadMethod="reflect">
	<stop offset="0" style="stop-color:#6DC7FF"/>
	<stop offset="1" style="stop-color:#E6ABFF"/>
</linearGradient>
<path style="fill:url(#SVGID_1__52562);" d="M10,15c0-1.105,0.896-2,2-2h3.56c0.86,0,1.623-0.55,1.895-1.366l1.09-3.269  C18.817,7.55,19.58,7,20.44,7h9.121c0.86,0,1.623,0.55,1.895,1.366l1.088,3.265c0.272,0.815,1.035,1.365,1.894,1.366L52,13  c1.105,0,2,0.896,2,2v4H10V15z"/>
<linearGradient id="SVGID_2__52562" gradientUnits="userSpaceOnUse" x1="29" y1="39.375" x2="29" y2="46.6776" spreadMethod="reflect">
	<stop offset="0" style="stop-color:#6DC7FF"/>
	<stop offset="1" style="stop-color:#E6ABFF"/>
</linearGradient>
<circle style="fill:url(#SVGID_2__52562);" cx="29" cy="43" r="3"/>
<linearGradient id="SVGID_3__52562" gradientUnits="userSpaceOnUse" x1="32" y1="5.5" x2="32" y2="58.3822" spreadMethod="reflect">
	<stop offset="0" style="stop-color:#1A6DFF"/>
	<stop offset="1" style="stop-color:#C822FF"/>
</linearGradient>
<path style="fill:url(#SVGID_3__52562);" d="M53,12.175V11c0-1.654-1.346-3-3-3H32.383c-0.423-1.198-1.548-2-2.823-2h-9.121  c-1.275,0-2.4,0.803-2.822,2H14c-1.654,0-3,1.346-3,3v1.175C9.837,12.588,9,13.697,9,15v4v1v27c0,1.654,1.346,3,3,3h6v5  c0,1.654,1.346,3,3,3h22c1.654,0,3-1.346,3-3v-5h6c1.654,0,3-1.346,3-3V20v-1v-4C55,13.697,54.163,12.588,53,12.175z M51,11v1  l-16.562-0.004c-0.43,0-0.81-0.274-0.946-0.683L33.054,10H50C50.552,10,51,10.448,51,11z M14,10h2.946l-0.44,1.318  C16.37,11.726,15.99,12,15.561,12H13v-1C13,10.448,13.448,10,14,10z M11,15c0-0.552,0.448-1,1-1h3.561  c1.293,0,2.436-0.824,2.843-2.05l1.091-3.269C19.63,8.274,20.01,8,20.439,8h9.121c0.43,0,0.811,0.273,0.946,0.682l1.088,3.264  c0.409,1.227,1.552,2.051,2.844,2.051L52,14c0.552,0,1,0.448,1,1v3H11V15z M44,52.149l-4.822-6.027  c-0.533-0.666-1.327-1.075-2.179-1.122c-0.851-0.052-1.685,0.272-2.287,0.875l-4.629,4.629l-1.908-2.385  c-0.532-0.665-1.325-1.073-2.176-1.12c-0.844-0.045-1.684,0.271-2.284,0.873L20,51.586V37c0-0.552,0.448-1,1-1h22  c0.552,0,1,0.448,1,1V52.149z M20,55v-0.586l5.129-5.129c0.203-0.202,0.483-0.299,0.76-0.29c0.288,0.016,0.545,0.148,0.725,0.373  L31.919,56H21C20.448,56,20,55.552,20,55z M43,56h-8.519l-3.141-3.926l4.786-4.786c0.203-0.203,0.483-0.303,0.763-0.292  c0.289,0.016,0.547,0.149,0.728,0.375l6.335,7.92C43.826,55.7,43.45,56,43,56z M53,47c0,0.552-0.448,1-1,1h-6V37  c0-1.654-1.346-3-3-3H21c-1.654,0-3,1.346-3,3v11h-6c-0.552,0-1-0.448-1-1V20h42V47z"/>
<linearGradient id="SVGID_4__52562" gradientUnits="userSpaceOnUse" x1="32" y1="5.5" x2="32" y2="58.3822" spreadMethod="reflect">
	<stop offset="0" style="stop-color:#1A6DFF"/>
	<stop offset="1" style="stop-color:#C822FF"/>
</linearGradient>
<rect x="20" y="30" style="fill:url(#SVGID_4__52562);" width="24" height="2"/>
</svg>
