<?xml version="1.0" encoding="iso-8859-1"?>
<!-- Generator: Adobe Illustrator 21.1.0, SVG Export Plug-In . SVG Version: 6.00 Build 0)  -->
<svg xmlns="http://www.w3.org/2000/svg" xmlns:xlink="http://www.w3.org/1999/xlink" version="1.1" id="Layer_1" x="0px" y="0px" viewBox="0 0 64 64" style="enable-background:new 0 0 64 64;" xml:space="preserve" width="64px" height="64px">
<linearGradient id="SVGID_1__59954" gradientUnits="userSpaceOnUse" x1="32" y1="6" x2="32" y2="58" spreadMethod="reflect">
	<stop offset="0" style="stop-color:#1A6DFF"/>
	<stop offset="1" style="stop-color:#C822FF"/>
</linearGradient>
<path style="fill:url(#SVGID_1__59954);" d="M57.121,15.707l-8.828-8.828C47.727,6.313,46.973,6,46.171,6H24c-1.654,0-3,1.346-3,3v1h-5  c-1.65,0-3,1.35-3,3v1H9c-1.65,0-3,1.35-3,3v30c0,1.65,1.35,3,3,3h4v1c0,1.65,1.35,3,3,3h5v1c0,1.654,1.346,3,3,3h31  c1.654,0,3-1.346,3-3v-4v-2V17.828C58,17.027,57.688,16.273,57.121,15.707z M48,9.414L54.586,16H49c-0.551,0-1-0.448-1-1V9.414z   M9,48c-0.55,0-1-0.45-1-1V17c0-0.55,0.45-1,1-1h4v32H9z M16,52c-0.55,0-1-0.45-1-1v-1v-2V16v-2v-1c0-0.55,0.45-1,1-1h5v37v2v1H16z   M56,55c0,0.552-0.449,1-1,1H24c-0.551,0-1-0.448-1-1v-1.185C23.314,53.928,23.648,54,24,54h31c0.352,0,0.686-0.072,1-0.184V55z   M56,49v2c0,0.552-0.449,1-1,1H24c-0.551,0-1-0.448-1-1v-2V9c0-0.552,0.449-1,1-1h22v7c0,1.654,1.346,3,3,3h7V49z"/>
</svg>
