<?xml version="1.0" encoding="iso-8859-1"?>
<!-- Generator: Adobe Illustrator 20.1.0, SVG Export Plug-In . SVG Version: 6.00 Build 0)  -->
<svg xmlns="http://www.w3.org/2000/svg" xmlns:xlink="http://www.w3.org/1999/xlink" version="1.1" id="&#1057;&#1083;&#1086;&#1081;_1" x="0px" y="0px" viewBox="0 0 64 64" style="enable-background:new 0 0 64 64;" xml:space="preserve" width="64px" height="64px">
<linearGradient id="SVGID_1__43647" gradientUnits="userSpaceOnUse" x1="37" y1="24" x2="37" y2="28.0644" spreadMethod="reflect">
	<stop offset="0" style="stop-color:#6DC7FF"/>
	<stop offset="1" style="stop-color:#E6ABFF"/>
</linearGradient>
<circle style="fill:url(#SVGID_1__43647);" cx="37" cy="26" r="2"/>
<linearGradient id="SVGID_2__43647" gradientUnits="userSpaceOnUse" x1="27" y1="24" x2="27" y2="28.0644" spreadMethod="reflect">
	<stop offset="0" style="stop-color:#6DC7FF"/>
	<stop offset="1" style="stop-color:#E6ABFF"/>
</linearGradient>
<circle style="fill:url(#SVGID_2__43647);" cx="27" cy="26" r="2"/>
<linearGradient id="SVGID_3__43647" gradientUnits="userSpaceOnUse" x1="32" y1="29.75" x2="32" y2="34.4971" spreadMethod="reflect">
	<stop offset="0" style="stop-color:#6DC7FF"/>
	<stop offset="1" style="stop-color:#E6ABFF"/>
</linearGradient>
<path style="fill:url(#SVGID_3__43647);" d="M34,30h-4c-0.552,0-1,0.448-1,1c0,1.657,1.343,3,3,3s3-1.343,3-3C35,30.448,34.552,30,34,30z"/>
<linearGradient id="SVGID_4__43647" gradientUnits="userSpaceOnUse" x1="32" y1="5.5" x2="32" y2="58.203" spreadMethod="reflect">
	<stop offset="0" style="stop-color:#1A6DFF"/>
	<stop offset="1" style="stop-color:#C822FF"/>
</linearGradient>
<path style="fill:url(#SVGID_4__43647);" d="M51,48c0-6.284-3.087-12.117-8.264-15.67c0.367-0.737,0.659-1.517,0.87-2.33H45  c2.206,0,4-1.794,4-4c0-1.859-1.28-3.411-3-3.858V20c0-7.72-6.28-14-14-14s-14,6.28-14,14v2.142c-1.72,0.447-3,1.999-3,3.858  c0,2.206,1.794,4,4,4h1.395c0.21,0.813,0.502,1.592,0.869,2.329C16.135,35.854,13,41.729,13,48v3h24v4c0,1.654,1.346,3,3,3h4  c1.654,0,3-1.346,3-3v-4h4V48z M20,20c0-0.432,0.025-0.858,0.07-1.279C23.508,17.797,26,14.634,26,11  c0-0.439-0.045-0.875-0.116-1.306c0.967-0.577,2.021-1.018,3.138-1.305C29.013,8.593,29,8.797,29,9v2c0,5.312-3.875,9.866-9,10.816  V20z M22,23.353c3.919-1.282,7.012-4.385,8.317-8.264c2.078,4.636,6.438,8.059,11.683,8.761V27c0,5.514-4.486,10-10,10  s-10-4.486-10-10V23.353z M47,26c0,1.103-0.897,2-2,2h-1.051C43.977,27.669,44,27.337,44,27v-3h1C46.103,24,47,24.897,47,26z   M43.818,17.991C38.939,17.893,35,13.901,35,9c0-0.199,0.017-0.398,0.03-0.598C39.547,9.584,43.027,13.33,43.818,17.991z   M33.047,8.053C33.02,8.368,33,8.684,33,9c0,6.065,4.935,11,11,11v2h-0.932l0.002-0.032C36.302,21.489,31,15.794,31,9  c0-0.316,0.012-0.634,0.035-0.951C31.354,8.023,31.674,8,32,8C32.354,8,32.701,8.023,33.047,8.053z M23.992,11.088  c-0.035,2.32-1.423,4.357-3.44,5.317C21.204,14.332,22.413,12.509,23.992,11.088z M19,28c-1.103,0-2-0.897-2-2s0.897-2,2-2h1v3  c0,0.337,0.023,0.669,0.051,1H19z M41,46.939V52h-2v-5.516C39.666,46.707,40.333,46.864,41,46.939z M43,46.939  c0.667-0.075,1.334-0.232,2-0.455V52h-2V46.939z M39.69,44.607l2.337-2.606l2.294,2.604C42.771,45.116,41.239,45.117,39.69,44.607z   M44,56h-4c-0.552,0-1-0.448-1-1v-1h6v1C45,55.552,44.552,56,44,56z M49,49h-2v-3.624c0-0.486-0.177-0.955-0.498-1.319l-2.974-3.377  c-0.771-0.879-2.286-0.878-3.056-0.001l-2.975,3.378C37.177,44.421,37,44.89,37,45.376V49h-5v-3c-1.862,0-3.413,1.278-3.859,3H21v-2  h-2v2h-4v-1c0-4.205,1.576-8.21,4.296-11.282C22.316,40.673,26.963,43,32,43v-2c-4.499,0-8.645-2.119-11.281-5.711  c0.5-0.445,1.031-0.859,1.586-1.246C24.489,37.041,28.016,39,32,39s7.511-1.959,9.695-4.957C46.273,37.228,49,42.414,49,48V49z"/>
</svg>
