<?xml version="1.0" encoding="iso-8859-1"?>
<!-- Generator: Adobe Illustrator 20.1.0, SVG Export Plug-In . SVG Version: 6.00 Build 0)  -->
<svg xmlns="http://www.w3.org/2000/svg" xmlns:xlink="http://www.w3.org/1999/xlink" version="1.1" id="&#1057;&#1083;&#1086;&#1081;_1" x="0px" y="0px" viewBox="0 0 64 64" style="enable-background:new 0 0 64 64;" xml:space="preserve" width="64px" height="64px">
<linearGradient id="SVGID_1__48145" gradientUnits="userSpaceOnUse" x1="19" y1="41.625" x2="19" y2="48.5182" spreadMethod="reflect">
	<stop offset="0" style="stop-color:#6DC7FF"/>
	<stop offset="1" style="stop-color:#E6ABFF"/>
</linearGradient>
<path style="fill:url(#SVGID_1__48145);" d="M22,45c0,1.657-1.343,3-3,3h0c-1.657,0-3-1.343-3-3v0c0-1.657,1.343-3,3-3h0  C20.657,42,22,43.343,22,45L22,45z"/>
<linearGradient id="SVGID_2__48145" gradientUnits="userSpaceOnUse" x1="45" y1="15.625" x2="45" y2="22.6261" spreadMethod="reflect">
	<stop offset="0" style="stop-color:#6DC7FF"/>
	<stop offset="1" style="stop-color:#E6ABFF"/>
</linearGradient>
<path style="fill:url(#SVGID_2__48145);" d="M48,21c0,0.552-0.448,1-1,1h-4c-0.552,0-1-0.448-1-1v-4c0-0.552,0.448-1,1-1h4  c0.552,0,1,0.448,1,1V21z"/>
<linearGradient id="SVGID_3__48145" gradientUnits="userSpaceOnUse" x1="19" y1="8" x2="19" y2="57.2906" spreadMethod="reflect">
	<stop offset="0" style="stop-color:#1A6DFF"/>
	<stop offset="1" style="stop-color:#C822FF"/>
</linearGradient>
<path style="fill:url(#SVGID_3__48145);" d="M27,8H11c-1.654,0-3,1.346-3,3v16c0,1.654,1.346,3,3,3h16c1.654,0,3-1.346,3-3V11  C30,9.346,28.654,8,27,8z M28,27c0,0.552-0.449,1-1,1H11c-0.551,0-1-0.448-1-1V11c0-0.552,0.449-1,1-1h16c0.551,0,1,0.448,1,1V27z"/>
<linearGradient id="SVGID_4__48145" gradientUnits="userSpaceOnUse" x1="19" y1="8" x2="19" y2="57.2906" spreadMethod="reflect">
	<stop offset="0" style="stop-color:#1A6DFF"/>
	<stop offset="1" style="stop-color:#C822FF"/>
</linearGradient>
<path style="fill:url(#SVGID_4__48145);" d="M27,34H11c-1.654,0-3,1.346-3,3v16c0,1.654,1.346,3,3,3h16c1.654,0,3-1.346,3-3V37  C30,35.346,28.654,34,27,34z M28,53c0,0.552-0.449,1-1,1H11c-0.551,0-1-0.448-1-1V37c0-0.552,0.449-1,1-1h16c0.551,0,1,0.448,1,1V53  z"/>
<linearGradient id="SVGID_5__48145" gradientUnits="userSpaceOnUse" x1="45" y1="8" x2="45" y2="57.2906" spreadMethod="reflect">
	<stop offset="0" style="stop-color:#1A6DFF"/>
	<stop offset="1" style="stop-color:#C822FF"/>
</linearGradient>
<path style="fill:url(#SVGID_5__48145);" d="M53,8H37c-1.654,0-3,1.346-3,3v16c0,1.654,1.346,3,3,3h16c1.654,0,3-1.346,3-3V11  C56,9.346,54.654,8,53,8z M54,27c0,0.552-0.449,1-1,1H37c-0.551,0-1-0.448-1-1V11c0-0.552,0.449-1,1-1h16c0.551,0,1,0.448,1,1V27z"/>
<linearGradient id="SVGID_6__48145" gradientUnits="userSpaceOnUse" x1="45" y1="8" x2="45" y2="57.2906" spreadMethod="reflect">
	<stop offset="0" style="stop-color:#1A6DFF"/>
	<stop offset="1" style="stop-color:#C822FF"/>
</linearGradient>
<path style="fill:url(#SVGID_6__48145);" d="M53,34H37c-1.654,0-3,1.346-3,3v16c0,1.654,1.346,3,3,3h16c1.654,0,3-1.346,3-3V37  C56,35.346,54.654,34,53,34z M54,53c0,0.552-0.449,1-1,1H37c-0.551,0-1-0.448-1-1V37c0-0.552,0.449-1,1-1h16c0.551,0,1,0.448,1,1V53  z"/>
<linearGradient id="SVGID_7__48145" gradientUnits="userSpaceOnUse" x1="45" y1="8" x2="45" y2="57.2906" spreadMethod="reflect">
	<stop offset="0" style="stop-color:#1A6DFF"/>
	<stop offset="1" style="stop-color:#C822FF"/>
</linearGradient>
<path style="fill:url(#SVGID_7__48145);" d="M50,12H40c-1.103,0-2,0.897-2,2v10c0,1.103,0.897,2,2,2h10c1.103,0,2-0.897,2-2V14  C52,12.897,51.103,12,50,12z M50,24H40V14h10V24z"/>
<linearGradient id="SVGID_8__48145" gradientUnits="userSpaceOnUse" x1="45" y1="8" x2="45" y2="57.2906" spreadMethod="reflect">
	<stop offset="0" style="stop-color:#1A6DFF"/>
	<stop offset="1" style="stop-color:#C822FF"/>
</linearGradient>
<path style="fill:url(#SVGID_8__48145);" d="M50,38H40c-1.103,0-2,0.897-2,2v10c0,1.103,0.897,2,2,2h10c1.103,0,2-0.897,2-2V40  C52,38.897,51.103,38,50,38z M50,40v2H40v-2H50z M40,50v-6h10v6H40z"/>
<linearGradient id="SVGID_9__48145" gradientUnits="userSpaceOnUse" x1="19" y1="8" x2="19" y2="57.2906" spreadMethod="reflect">
	<stop offset="0" style="stop-color:#1A6DFF"/>
	<stop offset="1" style="stop-color:#C822FF"/>
</linearGradient>
<path style="fill:url(#SVGID_9__48145);" d="M24,38H14c-1.103,0-2,0.897-2,2v10c0,1.103,0.897,2,2,2h10c1.103,0,2-0.897,2-2V40  C26,38.897,25.103,38,24,38z M24,50H14V40h10V50z"/>
<linearGradient id="SVGID_10__48145" gradientUnits="userSpaceOnUse" x1="19" y1="8" x2="19" y2="57.2906" spreadMethod="reflect">
	<stop offset="0" style="stop-color:#1A6DFF"/>
	<stop offset="1" style="stop-color:#C822FF"/>
</linearGradient>
<path style="fill:url(#SVGID_10__48145);" d="M24,12H14c-1.103,0-2,0.897-2,2v10c0,1.103,0.897,2,2,2h10c1.103,0,2-0.897,2-2V14  C26,12.897,25.103,12,24,12z M24,14v2H14v-2H24z M24,18v2H14v-2H24z M14,24v-2h10v2H14z"/>
</svg>
