<?xml version="1.0" encoding="iso-8859-1"?>
<!-- Generator: Adobe Illustrator 20.1.0, SVG Export Plug-In . SVG Version: 6.00 Build 0)  -->
<svg xmlns="http://www.w3.org/2000/svg" xmlns:xlink="http://www.w3.org/1999/xlink" version="1.1" id="&#1057;&#1083;&#1086;&#1081;_1" x="0px" y="0px" viewBox="0 0 64 64" style="enable-background:new 0 0 64 64;" xml:space="preserve" width="64px" height="64px">
<linearGradient id="SVGID_1__53004" gradientUnits="userSpaceOnUse" x1="32.2927" y1="5.6667" x2="32.2927" y2="58.1709" spreadMethod="reflect">
	<stop offset="0" style="stop-color:#1A6DFF"/>
	<stop offset="1" style="stop-color:#C822FF"/>
</linearGradient>
<path style="fill:url(#SVGID_1__53004);" d="M49.59,58H15.591c-1.914,0-3.631-1.065-4.48-2.781s-0.657-3.728,0.503-5.251l12.305-16.15  c0.815-1.069,0.815-2.565,0-3.637L11.613,14.031c-1.16-1.522-1.353-3.534-0.504-5.25C11.959,7.065,13.677,6,15.591,6H49.59  C52.259,6,54,8.103,54,11v8c0,1.74-0.811,2-1.41,2h-6C45.591,21,44,20.239,44,19v-3H25.684l9.883,12.969  c1.359,1.785,1.359,4.277,0.001,6.061L25.685,48H44l0,0v-3c0-1.239,1.591-2,2.59-2h6c0.6,0,1.41,0.26,1.41,2v8  C54,55.897,52.259,58,49.59,58z M15.591,8c-1.166,0-2.171,0.624-2.688,1.669s-0.404,2.223,0.302,3.149l12.306,16.15  c1.358,1.785,1.358,4.277,0,6.062l-12.305,16.15c-0.707,0.928-0.82,2.105-0.303,3.15S14.425,56,15.591,56H49.59  c1.791,0,2.41-1.555,2.41-3v-8h-5.41C46.491,45,46,45.078,46,45.153V48c0,1.74-0.811,2-1.41,2H25.684  c-0.766,0-1.451-0.426-1.791-1.111s-0.264-1.49,0.2-2.1l9.883-12.972c0.815-1.069,0.815-2.565,0-3.637l-9.882-12.969  c-0.465-0.61-0.541-1.415-0.201-2.101S24.918,14,25.684,14H44.59c0.6,0,1.41,0.26,1.41,2v2.846C46,18.921,46.491,19,46.59,19H52v-8  c0-1.445-0.619-3-2.41-3H15.591z"/>
<linearGradient id="SVGID_2__53004" gradientUnits="userSpaceOnUse" x1="33.3099" y1="9.5" x2="33.3099" y2="54.5694" spreadMethod="reflect">
	<stop offset="0" style="stop-color:#6DC7FF"/>
	<stop offset="1" style="stop-color:#E6ABFF"/>
</linearGradient>
<path style="fill:url(#SVGID_2__53004);" d="M48.59,54H19.618c-1.147,0-2.176-0.639-2.685-1.667c-0.509-1.027-0.393-2.232,0.303-3.144  l11.709-15.371c0.816-1.07,0.816-2.567,0.001-3.638l-11.711-15.37c-0.694-0.912-0.811-2.117-0.302-3.145S18.472,10,19.618,10H48.59  c0.6,0,1.41,0.26,1.41,2v5h-2v-5H19.618c-0.387,0-0.721,0.207-0.892,0.554c-0.172,0.346-0.135,0.736,0.1,1.044l11.711,15.37  c1.359,1.785,1.359,4.278-0.001,6.063L18.827,50.402c-0.235,0.308-0.272,0.697-0.101,1.044C18.897,51.793,19.231,52,19.618,52H48v-5  h2v5C50,53.74,49.189,54,48.59,54z"/>
<linearGradient id="SVGID_3__53004" gradientUnits="userSpaceOnUse" x1="16.0611" y1="5.6667" x2="16.0611" y2="58.1709" spreadMethod="reflect">
	<stop offset="0" style="stop-color:#1A6DFF"/>
	<stop offset="1" style="stop-color:#C822FF"/>
</linearGradient>
<path style="fill:url(#SVGID_3__53004);" d="M11.376,46.618l-1.572-1.236l10.515-13.383L9.804,18.618l1.572-1.236l10.515,13.383  c0.57,0.728,0.57,1.743,0.001,2.47L11.376,46.618z"/>
</svg>
