<?xml version="1.0" encoding="iso-8859-1"?>
<!-- Generator: Adobe Illustrator 21.1.0, SVG Export Plug-In . SVG Version: 6.00 Build 0)  -->
<svg xmlns="http://www.w3.org/2000/svg" xmlns:xlink="http://www.w3.org/1999/xlink" version="1.1" id="Layer_1" x="0px" y="0px" viewBox="0 0 64 64" style="enable-background:new 0 0 64 64;" xml:space="preserve" width="64px" height="64px">
<linearGradient id="SVGID_1__59903" gradientUnits="userSpaceOnUse" x1="21.5" y1="-960.0417" x2="21.5" y2="-962.0001" gradientTransform="matrix(1 0 0 -1 0 -942)" spreadMethod="reflect">
	<stop offset="0" style="stop-color:#6DC7FF"/>
	<stop offset="1" style="stop-color:#E6ABFF"/>
</linearGradient>
<rect x="15" y="18" style="fill:url(#SVGID_1__59903);" width="13" height="2"/>
<linearGradient id="SVGID_2__59903" gradientUnits="userSpaceOnUse" x1="21.5" y1="-964.9792" x2="21.5" y2="-967.0417" gradientTransform="matrix(1 0 0 -1 0 -942)" spreadMethod="reflect">
	<stop offset="0" style="stop-color:#6DC7FF"/>
	<stop offset="1" style="stop-color:#E6ABFF"/>
</linearGradient>
<rect x="15" y="23" style="fill:url(#SVGID_2__59903);" width="13" height="2"/>
<linearGradient id="SVGID_3__59903" gradientUnits="userSpaceOnUse" x1="21.5" y1="-969.9792" x2="21.5" y2="-972.0418" gradientTransform="matrix(1 0 0 -1 0 -942)" spreadMethod="reflect">
	<stop offset="0" style="stop-color:#6DC7FF"/>
	<stop offset="1" style="stop-color:#E6ABFF"/>
</linearGradient>
<rect x="15" y="28" style="fill:url(#SVGID_3__59903);" width="13" height="2"/>
<linearGradient id="SVGID_4__59903" gradientUnits="userSpaceOnUse" x1="21.5" y1="-974.9375" x2="21.5" y2="-977.1123" gradientTransform="matrix(1 0 0 -1 0 -942)" spreadMethod="reflect">
	<stop offset="0" style="stop-color:#6DC7FF"/>
	<stop offset="1" style="stop-color:#E6ABFF"/>
</linearGradient>
<rect x="15" y="33" style="fill:url(#SVGID_4__59903);" width="13" height="2"/>
<linearGradient id="SVGID_5__59903" gradientUnits="userSpaceOnUse" x1="42.5" y1="-960.0417" x2="42.5" y2="-962.0001" gradientTransform="matrix(1 0 0 -1 0 -942)" spreadMethod="reflect">
	<stop offset="0" style="stop-color:#6DC7FF"/>
	<stop offset="1" style="stop-color:#E6ABFF"/>
</linearGradient>
<rect x="36" y="18" style="fill:url(#SVGID_5__59903);" width="13" height="2"/>
<linearGradient id="SVGID_6__59903" gradientUnits="userSpaceOnUse" x1="42.5" y1="-964.9792" x2="42.5" y2="-967.0417" gradientTransform="matrix(1 0 0 -1 0 -942)" spreadMethod="reflect">
	<stop offset="0" style="stop-color:#6DC7FF"/>
	<stop offset="1" style="stop-color:#E6ABFF"/>
</linearGradient>
<rect x="36" y="23" style="fill:url(#SVGID_6__59903);" width="13" height="2"/>
<linearGradient id="SVGID_7__59903" gradientUnits="userSpaceOnUse" x1="42.5" y1="-969.9792" x2="42.5" y2="-972.0418" gradientTransform="matrix(1 0 0 -1 0 -942)" spreadMethod="reflect">
	<stop offset="0" style="stop-color:#6DC7FF"/>
	<stop offset="1" style="stop-color:#E6ABFF"/>
</linearGradient>
<rect x="36" y="28" style="fill:url(#SVGID_7__59903);" width="13" height="2"/>
<linearGradient id="SVGID_8__59903" gradientUnits="userSpaceOnUse" x1="42.5" y1="-974.9375" x2="42.5" y2="-977.1123" gradientTransform="matrix(1 0 0 -1 0 -942)" spreadMethod="reflect">
	<stop offset="0" style="stop-color:#6DC7FF"/>
	<stop offset="1" style="stop-color:#E6ABFF"/>
</linearGradient>
<rect x="36" y="33" style="fill:url(#SVGID_8__59903);" width="13" height="2"/>
<linearGradient id="SVGID_9__59903" gradientUnits="userSpaceOnUse" x1="42.5" y1="-979.9792" x2="42.5" y2="-982.0418" gradientTransform="matrix(1 0 0 -1 0 -942)" spreadMethod="reflect">
	<stop offset="0" style="stop-color:#6DC7FF"/>
	<stop offset="1" style="stop-color:#E6ABFF"/>
</linearGradient>
<rect x="36" y="38" style="fill:url(#SVGID_9__59903);" width="13" height="2"/>
<linearGradient id="SVGID_10__59903" gradientUnits="userSpaceOnUse" x1="42.5" y1="-984.9375" x2="42.5" y2="-987.1123" gradientTransform="matrix(1 0 0 -1 0 -942)" spreadMethod="reflect">
	<stop offset="0" style="stop-color:#6DC7FF"/>
	<stop offset="1" style="stop-color:#E6ABFF"/>
</linearGradient>
<rect x="36" y="43" style="fill:url(#SVGID_10__59903);" width="13" height="2"/>
<linearGradient id="SVGID_11__59903" gradientUnits="userSpaceOnUse" x1="19.5316" y1="7" x2="19.5316" y2="57" spreadMethod="reflect">
	<stop offset="0" style="stop-color:#1A6DFF"/>
	<stop offset="1" style="stop-color:#C822FF"/>
</linearGradient>
<path style="fill:none;stroke:url(#SVGID_11__59903);stroke-width:2;stroke-miterlimit:10;" d="M29,56H13c-1.105,0-2-0.895-2-2V10  c0-1.105,0.895-2,2-2h16.063"/>
<linearGradient id="SVGID_12__59903" gradientUnits="userSpaceOnUse" x1="44.4999" y1="7" x2="44.4999" y2="57" spreadMethod="reflect">
	<stop offset="0" style="stop-color:#1A6DFF"/>
	<stop offset="1" style="stop-color:#C822FF"/>
</linearGradient>
<path style="fill:none;stroke:url(#SVGID_12__59903);stroke-width:2;stroke-miterlimit:10;" d="M35,8h16c1.105,0,2,0.895,2,2v44  c0,1.105-0.895,2-2,2H35"/>
<linearGradient id="SVGID_13__59903" gradientUnits="userSpaceOnUse" x1="32" y1="6" x2="32" y2="57.8756" spreadMethod="reflect">
	<stop offset="0" style="stop-color:#1A6DFF"/>
	<stop offset="1" style="stop-color:#C822FF"/>
</linearGradient>
<rect x="31" y="50" style="fill:url(#SVGID_13__59903);" width="2" height="8"/>
<linearGradient id="SVGID_14__59903" gradientUnits="userSpaceOnUse" x1="32" y1="6" x2="32" y2="57.8756" spreadMethod="reflect">
	<stop offset="0" style="stop-color:#1A6DFF"/>
	<stop offset="1" style="stop-color:#C822FF"/>
</linearGradient>
<rect x="31" y="6" style="fill:url(#SVGID_14__59903);" width="2" height="8"/>
<linearGradient id="SVGID_15__59903" gradientUnits="userSpaceOnUse" x1="32" y1="6" x2="32" y2="57.8756" spreadMethod="reflect">
	<stop offset="0" style="stop-color:#1A6DFF"/>
	<stop offset="1" style="stop-color:#C822FF"/>
</linearGradient>
<rect x="31" y="17" style="fill:url(#SVGID_15__59903);" width="2" height="8"/>
<linearGradient id="SVGID_16__59903" gradientUnits="userSpaceOnUse" x1="32" y1="6" x2="32" y2="57.8756" spreadMethod="reflect">
	<stop offset="0" style="stop-color:#1A6DFF"/>
	<stop offset="1" style="stop-color:#C822FF"/>
</linearGradient>
<rect x="31" y="39" style="fill:url(#SVGID_16__59903);" width="2" height="8"/>
<linearGradient id="SVGID_17__59903" gradientUnits="userSpaceOnUse" x1="32" y1="6" x2="32" y2="57.8756" spreadMethod="reflect">
	<stop offset="0" style="stop-color:#1A6DFF"/>
	<stop offset="1" style="stop-color:#C822FF"/>
</linearGradient>
<rect x="31" y="28" style="fill:url(#SVGID_17__59903);" width="2" height="8"/>
</svg>
