<?xml version="1.0" encoding="iso-8859-1"?>
<!-- Generator: Adobe Illustrator 20.1.0, SVG Export Plug-In . SVG Version: 6.00 Build 0)  -->
<svg xmlns="http://www.w3.org/2000/svg" xmlns:xlink="http://www.w3.org/1999/xlink" version="1.1" id="&#1057;&#1083;&#1086;&#1081;_1" x="0px" y="0px" viewBox="0 0 64 64" style="enable-background:new 0 0 64 64;" xml:space="preserve" width="64px" height="64px">
<linearGradient id="SVGID_1__49461" gradientUnits="userSpaceOnUse" x1="43.565" y1="10" x2="43.565" y2="39.6709" spreadMethod="reflect">
	<stop offset="0" style="stop-color:#6DC7FF"/>
	<stop offset="1" style="stop-color:#E6ABFF"/>
</linearGradient>
<path style="fill:url(#SVGID_1__49461);" d="M45,35.481c3.497-1.23,6-4.56,6-8.481c0-4.97-4.03-9-9-9c-4.04,0-7.46,2.66-8.59,6.32  L29.13,20c0.45-0.33,0.99-0.52,1.54-0.57c-0.22-0.7-0.65-1.92-0.65-2.89c0-0.47,0.1-0.88,0.37-1.15c0.83-0.82,3-0.05,4.04,0.28  c0.09-1.08,0.76-2.08,1.83-2.53c1.07-0.44,2.25-0.21,3.08,0.5C39.84,12.67,40.84,11,42,11s2.16,1.67,2.66,2.64  c0.83-0.71,2.01-0.94,3.08-0.5c1.08,0.45,1.74,1.45,1.83,2.53c0.7-0.22,1.92-0.65,2.89-0.65c0.47,0,0.88,0.1,1.15,0.37  c0.82,0.83,0.05,3-0.28,4.04c1.08,0.09,2.08,0.76,2.53,1.83c0.44,1.07,0.21,2.25-0.5,3.08C56.33,24.84,58,25.84,58,27  s-1.67,2.16-2.64,2.66c0.71,0.83,0.94,2.01,0.5,3.08c-0.45,1.07-1.45,1.74-2.53,1.83c0.22,0.7,0.65,1.92,0.65,2.89  c0,0.47-0.1,0.88-0.37,1.15c-0.83,0.82-3,0.05-4.04-0.28c-0.05,0.61-0.28,1.2-0.67,1.67L45,37  C45.145,36.957,44.858,35.531,45,35.481"/>
<linearGradient id="SVGID_2__49461" gradientUnits="userSpaceOnUse" x1="28" y1="17.8333" x2="28" y2="53.6671" spreadMethod="reflect">
	<stop offset="0" style="stop-color:#1A6DFF"/>
	<stop offset="1" style="stop-color:#C822FF"/>
</linearGradient>
<path style="fill:url(#SVGID_2__49461);" d="M46.121,37.387C46.694,36.357,47,35.195,47,34c0-3.86-3.141-7-7-7  c-0.261,0-0.519,0.019-0.776,0.048c-0.085,0.009-0.168,0.023-0.252,0.035c-0.173,0.026-0.344,0.058-0.514,0.097  c-0.094,0.021-0.188,0.041-0.28,0.066c-0.179,0.048-0.354,0.106-0.529,0.169c-0.156,0.055-0.308,0.119-0.459,0.185  c-0.117,0.051-0.234,0.102-0.348,0.16c-0.13,0.066-0.257,0.138-0.383,0.212c-0.08,0.047-0.159,0.096-0.237,0.146  c-0.086,0.055-0.176,0.102-0.26,0.161C35.591,23.102,31.271,19,26,19c-5.514,0-10,4.486-10,10v2h-1c-4.963,0-9,4.037-9,9  s4.037,9,9,9h29c3.309,0,6-2.691,6-6C50,40.438,48.386,38.246,46.121,37.387z M44,47H15c-3.859,0-7-3.14-7-7s3.141-7,7-7h5v-2h-2v-2  c0-4.411,3.589-8,8-8s8,3.589,8,8v3h2v-0.984c0.195-0.262,0.407-0.508,0.645-0.723l0.005,0.005c0.222-0.201,0.461-0.378,0.711-0.535  c0.02-0.012,0.04-0.025,0.06-0.037c0.487-0.296,1.02-0.501,1.576-0.616c0.059-0.012,0.119-0.023,0.179-0.033  C39.446,29.031,39.721,29,40,29c2.757,0,5,2.243,5,5c0,1.086-0.354,2-1.008,3H43v2h1c2.206,0,4,1.794,4,4S46.206,47,44,47z"/>
<linearGradient id="SVGID_3__49461" gradientUnits="userSpaceOnUse" x1="28" y1="17.8333" x2="28" y2="53.6671" spreadMethod="reflect">
	<stop offset="0" style="stop-color:#1A6DFF"/>
	<stop offset="1" style="stop-color:#C822FF"/>
</linearGradient>
<rect x="15" y="51" style="fill:url(#SVGID_3__49461);" width="26" height="2"/>
</svg>
