<?xml version="1.0" encoding="iso-8859-1"?>
<!-- Generator: Adobe Illustrator 20.1.0, SVG Export Plug-In . SVG Version: 6.00 Build 0)  -->
<svg xmlns="http://www.w3.org/2000/svg" xmlns:xlink="http://www.w3.org/1999/xlink" version="1.1" id="&#1057;&#1083;&#1086;&#1081;_1" x="0px" y="0px" viewBox="0 0 64 64" style="enable-background:new 0 0 64 64;" xml:space="preserve" width="64px" height="64px">
<linearGradient id="SVGID_1__48155" gradientUnits="userSpaceOnUse" x1="32" y1="8.6667" x2="32" y2="55.5427" spreadMethod="reflect">
	<stop offset="0" style="stop-color:#1A6DFF"/>
	<stop offset="1" style="stop-color:#C822FF"/>
</linearGradient>
<path style="fill:url(#SVGID_1__48155);" d="M56,37c-2.862,0-5-2.64-5-5v-1h-3v-3c0-1.302-0.839-2.402-2-2.816v-2.369  c1.161-0.414,2-1.514,2-2.816v-4c0-1.654-1.346-3-3-3h-1v-1c0-1.654-1.346-3-3-3H13c-1.654,0-3,1.346-3,3v1H9c-1.654,0-3,1.346-3,3  v4c0,1.302,0.839,2.402,2,2.816v2.369C6.839,25.598,6,26.698,6,28v4c0,1.302,0.839,2.402,2,2.816v2.369C6.839,37.598,6,38.698,6,40  v4c0,1.654,1.346,3,3,3h1v1c0,1.654,1.346,3,3,3h25.521c2.019,2.441,5.07,4,8.479,4c6.065,0,11-4.935,11-11v-7H56z M44,23v2H10v-2  H44z M12,12c0-0.552,0.449-1,1-1h28c0.551,0,1,0.448,1,1v1H12V12z M8,16c0-0.552,0.449-1,1-1h36c0.551,0,1,0.448,1,1v4  c0,0.552-0.449,1-1,1H9c-0.551,0-1-0.448-1-1V16z M8,28c0-0.552,0.449-1,1-1h36c0.551,0,1,0.448,1,1v3h-3v1  c0,0.331-0.046,0.667-0.126,1H9c-0.551,0-1-0.448-1-1V28z M36,37H10v-2h31.901c-0.9,1.158-2.285,2-3.901,2h-1H36z M8,44v-4  c0-0.552,0.449-1,1-1h27v5c0,0.337,0.021,0.67,0.051,1H9C8.449,45,8,44.552,8,44z M13,49c-0.551,0-1-0.448-1-1v-1h24.426  c0.198,0.698,0.463,1.366,0.788,2H13z M56,44c0,4.963-4.038,9-9,9s-9-4.037-9-9v-5c3.391,0,6.404-2.705,6.921-6h4.157  c0.518,3.295,3.53,6,6.921,6V44z"/>
<linearGradient id="SVGID_2__48155" gradientUnits="userSpaceOnUse" x1="39" y1="8.6667" x2="39" y2="55.5427" spreadMethod="reflect">
	<stop offset="0" style="stop-color:#1A6DFF"/>
	<stop offset="1" style="stop-color:#C822FF"/>
</linearGradient>
<rect x="36" y="29" style="fill:url(#SVGID_2__48155);" width="6" height="2"/>
<linearGradient id="SVGID_3__48155" gradientUnits="userSpaceOnUse" x1="39" y1="8.6667" x2="39" y2="55.5427" spreadMethod="reflect">
	<stop offset="0" style="stop-color:#1A6DFF"/>
	<stop offset="1" style="stop-color:#C822FF"/>
</linearGradient>
<rect x="36" y="17" style="fill:url(#SVGID_3__48155);" width="6" height="2"/>
<linearGradient id="SVGID_4__48155" gradientUnits="userSpaceOnUse" x1="14" y1="8.6667" x2="14" y2="55.5427" spreadMethod="reflect">
	<stop offset="0" style="stop-color:#1A6DFF"/>
	<stop offset="1" style="stop-color:#C822FF"/>
</linearGradient>
<rect x="12" y="29" style="fill:url(#SVGID_4__48155);" width="4" height="2"/>
<linearGradient id="SVGID_5__48155" gradientUnits="userSpaceOnUse" x1="20" y1="8.6667" x2="20" y2="55.5427" spreadMethod="reflect">
	<stop offset="0" style="stop-color:#1A6DFF"/>
	<stop offset="1" style="stop-color:#C822FF"/>
</linearGradient>
<rect x="18" y="29" style="fill:url(#SVGID_5__48155);" width="4" height="2"/>
<linearGradient id="SVGID_6__48155" gradientUnits="userSpaceOnUse" x1="14" y1="8.6667" x2="14" y2="55.5427" spreadMethod="reflect">
	<stop offset="0" style="stop-color:#1A6DFF"/>
	<stop offset="1" style="stop-color:#C822FF"/>
</linearGradient>
<rect x="12" y="41" style="fill:url(#SVGID_6__48155);" width="4" height="2"/>
<linearGradient id="SVGID_7__48155" gradientUnits="userSpaceOnUse" x1="20" y1="8.6667" x2="20" y2="55.5427" spreadMethod="reflect">
	<stop offset="0" style="stop-color:#1A6DFF"/>
	<stop offset="1" style="stop-color:#C822FF"/>
</linearGradient>
<rect x="18" y="41" style="fill:url(#SVGID_7__48155);" width="4" height="2"/>
<linearGradient id="SVGID_8__48155" gradientUnits="userSpaceOnUse" x1="14" y1="8.6667" x2="14" y2="55.5427" spreadMethod="reflect">
	<stop offset="0" style="stop-color:#1A6DFF"/>
	<stop offset="1" style="stop-color:#C822FF"/>
</linearGradient>
<rect x="12" y="17" style="fill:url(#SVGID_8__48155);" width="4" height="2"/>
<linearGradient id="SVGID_9__48155" gradientUnits="userSpaceOnUse" x1="20" y1="8.6667" x2="20" y2="55.5427" spreadMethod="reflect">
	<stop offset="0" style="stop-color:#1A6DFF"/>
	<stop offset="1" style="stop-color:#C822FF"/>
</linearGradient>
<rect x="18" y="17" style="fill:url(#SVGID_9__48155);" width="4" height="2"/>
<linearGradient id="SVGID_10__48155" gradientUnits="userSpaceOnUse" x1="50.5" y1="42.5" x2="50.5" y2="51.9192" spreadMethod="reflect">
	<stop offset="0" style="stop-color:#6DC7FF"/>
	<stop offset="1" style="stop-color:#E6ABFF"/>
</linearGradient>
<path style="fill:url(#SVGID_10__48155);" d="M54,44c0,4-3.134,7-7,7v-7H54z"/>
</svg>
