<?xml version="1.0" encoding="iso-8859-1"?>
<!-- Generator: Adobe Illustrator 20.1.0, SVG Export Plug-In . SVG Version: 6.00 Build 0)  -->
<svg xmlns="http://www.w3.org/2000/svg" xmlns:xlink="http://www.w3.org/1999/xlink" version="1.1" id="&#1057;&#1083;&#1086;&#1081;_1" x="0px" y="0px" viewBox="0 0 64 64" style="enable-background:new 0 0 64 64;" xml:space="preserve" width="64px" height="64px">
<linearGradient id="SVGID_1__52991" gradientUnits="userSpaceOnUse" x1="32" y1="9" x2="32" y2="55.2847" spreadMethod="reflect">
	<stop offset="0" style="stop-color:#1A6DFF"/>
	<stop offset="1" style="stop-color:#C822FF"/>
</linearGradient>
<path style="fill:url(#SVGID_1__52991);" d="M55,15h-1v-1.084C54,12.309,52.691,11,51.083,11H38c-2.548,0-4.775,1.373-6,3.414  C30.775,12.373,28.548,11,26,11h-2c0-1.103-0.897-2-2-2h-4c-1.103,0-2,0.897-2,2h-3.083C11.309,11,10,12.309,10,13.916V15H9  c-1.654,0-3,1.346-3,3v32c0,1.654,1.346,3,3,3h18c0,1.103,0.897,2,2,2h6c1.103,0,2-0.897,2-2h18c1.654,0,3-1.346,3-3V18  C58,16.346,56.654,15,55,15z M12,45h14c1.894,0,3.525,1.071,4.373,2.627C29.664,47.24,28.863,47,28,47H12V45z M38,13h13.083  C51.589,13,52,13.411,52,13.916V43H38c-1.957,0-3.729,0.807-5,2.105V18C33,15.243,35.243,13,38,13z M52,45v2H36  c-0.863,0-1.664,0.24-2.373,0.627C34.475,46.071,36.106,45,38,45H52z M18,11h4v8h-4V11z M12,13.916C12,13.411,12.411,13,12.917,13  H16v6c0,1.103,0.897,2,2,2h4c1.103,0,2-0.897,2-2v-6h2c2.757,0,5,2.243,5,5v27.105C29.729,43.807,27.957,43,26,43H12V13.916z M56,50  c0,0.552-0.448,1-1,1H35v2h-6v-2H9c-0.552,0-1-0.448-1-1V18c0-0.552,0.448-1,1-1h1v30c0,1.103,0.897,2,2,2h16c1.654,0,3,1.346,3,3h2  c0-1.654,1.346-3,3-3h16c1.103,0,2-0.897,2-2V17h1c0.552,0,1,0.448,1,1V50z"/>
<linearGradient id="SVGID_2__52991" gradientUnits="userSpaceOnUse" x1="20" y1="11" x2="20" y2="19.1684" spreadMethod="reflect">
	<stop offset="0" style="stop-color:#6DC7FF"/>
	<stop offset="1" style="stop-color:#E6ABFF"/>
</linearGradient>
<rect x="18" y="11" style="fill:url(#SVGID_2__52991);" width="4" height="8"/>
</svg>
