<?xml version="1.0" encoding="iso-8859-1"?>
<!-- Generator: Adobe Illustrator 20.1.0, SVG Export Plug-In . SVG Version: 6.00 Build 0)  -->
<svg xmlns="http://www.w3.org/2000/svg" xmlns:xlink="http://www.w3.org/1999/xlink" version="1.1" id="&#1057;&#1083;&#1086;&#1081;_1" x="0px" y="0px" viewBox="0 0 64 64" style="enable-background:new 0 0 64 64;" xml:space="preserve" width="64px" height="64px">
<linearGradient id="SVGID_1__52527" gradientUnits="userSpaceOnUse" x1="36" y1="51.75" x2="36" y2="55.3295" spreadMethod="reflect">
	<stop offset="0" style="stop-color:#6DC7FF"/>
	<stop offset="1" style="stop-color:#E6ABFF"/>
</linearGradient>
<rect x="35" y="52" style="fill:url(#SVGID_1__52527);" width="2" height="3"/>
<linearGradient id="SVGID_2__52527" gradientUnits="userSpaceOnUse" x1="40" y1="51.75" x2="40" y2="55.3295" spreadMethod="reflect">
	<stop offset="0" style="stop-color:#6DC7FF"/>
	<stop offset="1" style="stop-color:#E6ABFF"/>
</linearGradient>
<rect x="39" y="52" style="fill:url(#SVGID_2__52527);" width="2" height="3"/>
<linearGradient id="SVGID_3__52527" gradientUnits="userSpaceOnUse" x1="28" y1="51.75" x2="28" y2="55.3295" spreadMethod="reflect">
	<stop offset="0" style="stop-color:#6DC7FF"/>
	<stop offset="1" style="stop-color:#E6ABFF"/>
</linearGradient>
<rect x="27" y="52" style="fill:url(#SVGID_3__52527);" width="2" height="3"/>
<linearGradient id="SVGID_4__52527" gradientUnits="userSpaceOnUse" x1="24" y1="51.75" x2="24" y2="55.3295" spreadMethod="reflect">
	<stop offset="0" style="stop-color:#6DC7FF"/>
	<stop offset="1" style="stop-color:#E6ABFF"/>
</linearGradient>
<rect x="23" y="52" style="fill:url(#SVGID_4__52527);" width="2" height="3"/>
<linearGradient id="SVGID_5__52527" gradientUnits="userSpaceOnUse" x1="20.3945" y1="26.4152" x2="20.3945" y2="45.0123" spreadMethod="reflect">
	<stop offset="0" style="stop-color:#6DC7FF"/>
	<stop offset="1" style="stop-color:#E6ABFF"/>
</linearGradient>
<polygon style="fill:url(#SVGID_5__52527);" points="13.755,44.656 12.245,43.344 27.034,26.345 28.544,27.657 "/>
<linearGradient id="SVGID_6__52527" gradientUnits="userSpaceOnUse" x1="44.001" y1="26.4152" x2="44.001" y2="45.0123" spreadMethod="reflect">
	<stop offset="0" style="stop-color:#6DC7FF"/>
	<stop offset="1" style="stop-color:#E6ABFF"/>
</linearGradient>
<polygon style="fill:url(#SVGID_6__52527);" points="50.246,44.657 36.248,28.598 37.756,27.283 51.754,43.343 "/>
<linearGradient id="SVGID_7__52527" gradientUnits="userSpaceOnUse" x1="32" y1="18.75" x2="32" y2="25.2512" spreadMethod="reflect">
	<stop offset="0" style="stop-color:#6DC7FF"/>
	<stop offset="1" style="stop-color:#E6ABFF"/>
</linearGradient>
<circle style="fill:url(#SVGID_7__52527);" cx="32" cy="22" r="3"/>
<linearGradient id="SVGID_8__52527" gradientUnits="userSpaceOnUse" x1="32" y1="5.625" x2="32" y2="59.1886" spreadMethod="reflect">
	<stop offset="0" style="stop-color:#1A6DFF"/>
	<stop offset="1" style="stop-color:#C822FF"/>
</linearGradient>
<path style="fill:url(#SVGID_8__52527);" d="M51.251,36.294L39.873,23.38C39.951,22.931,40,22.471,40,22c0-3.35-2.072-6.221-5-7.411V8  c0-1.103-0.897-2-2-2h-2c-1.103,0-2,0.897-2,2v6.589c-2.928,1.19-5,4.061-5,7.411c0,0.471,0.049,0.931,0.128,1.38L12.749,36.294  C12.266,36.841,12,37.545,12,38.274V58h2v-7.41l0.071,0.061l17.674-20.664C31.831,29.99,31.914,30,32,30s0.17-0.01,0.255-0.013  l17.673,20.664L50,50.59V58h2V38.274C52,37.545,51.734,36.841,51.251,36.294z M33,8v2h-2V8H33z M31,12h2v2.069  C32.672,14.028,32.339,14,32,14s-0.672,0.028-1,0.069V12z M32,16c3.309,0,6,2.691,6,6s-2.691,6-6,6s-6-2.691-6-6S28.691,16,32,16z   M14,47.657v-9.383c0-0.242,0.089-0.476,0.249-0.658l10.606-12.037c0.942,1.873,2.594,3.325,4.605,4.001L14,47.657z M34.539,29.58  c2.011-0.676,3.663-2.128,4.605-4.001l10.606,12.037C49.911,37.799,50,38.032,50,38.274v9.383L34.539,29.58z"/>
<linearGradient id="SVGID_9__52527" gradientUnits="userSpaceOnUse" x1="32" y1="5.625" x2="32" y2="59.1886" spreadMethod="reflect">
	<stop offset="0" style="stop-color:#1A6DFF"/>
	<stop offset="1" style="stop-color:#C822FF"/>
</linearGradient>
<path style="fill:url(#SVGID_9__52527);" d="M32,26c2.206,0,4-1.794,4-4s-1.794-4-4-4s-4,1.794-4,4S29.794,26,32,26z M32,20  c1.103,0,2,0.897,2,2s-0.897,2-2,2s-2-0.897-2-2S30.897,20,32,20z"/>
<linearGradient id="SVGID_10__52527" gradientUnits="userSpaceOnUse" x1="32" y1="5.625" x2="32" y2="59.1886" spreadMethod="reflect">
	<stop offset="0" style="stop-color:#1A6DFF"/>
	<stop offset="1" style="stop-color:#C822FF"/>
</linearGradient>
<polygon style="fill:url(#SVGID_10__52527);" points="45,50 43,50 43,54 33,54 33,50 31,50 31,54 21,54 21,50 19,50 19,54 16,54 16,56   48,56 48,54 45,54 "/>
</svg>
