<?xml version="1.0" encoding="iso-8859-1"?>
<!-- Generator: Adobe Illustrator 20.1.0, SVG Export Plug-In . SVG Version: 6.00 Build 0)  -->
<svg xmlns="http://www.w3.org/2000/svg" xmlns:xlink="http://www.w3.org/1999/xlink" version="1.1" id="&#1057;&#1083;&#1086;&#1081;_1" x="0px" y="0px" viewBox="0 0 64 64" style="enable-background:new 0 0 64 64;" xml:space="preserve" width="64px" height="64px">
<linearGradient id="SVGID_1__52581" gradientUnits="userSpaceOnUse" x1="32" y1="28.6667" x2="32" y2="58.5005" spreadMethod="reflect">
	<stop offset="0" style="stop-color:#6DC7FF"/>
	<stop offset="1" style="stop-color:#E6ABFF"/>
</linearGradient>
<path style="fill:url(#SVGID_1__52581);" d="M32,58c-0.676,0-1.353-0.133-1.982-0.398l-20.203-8.51C8.712,48.626,8,47.567,8,46.392V27h2  v19.392c0,0.368,0.231,0.705,0.591,0.855l20.203,8.51c0.768,0.325,1.646,0.325,2.411,0l20.205-8.51  c0.358-0.15,0.59-0.487,0.59-0.855V27h2v19.392c0,1.175-0.712,2.234-1.813,2.699l-20.205,8.51C33.353,57.867,32.676,58,32,58z"/>
<linearGradient id="SVGID_2__52581" gradientUnits="userSpaceOnUse" x1="32" y1="6.1672" x2="32" y2="54.6674" spreadMethod="reflect">
	<stop offset="0" style="stop-color:#1A6DFF"/>
	<stop offset="1" style="stop-color:#C822FF"/>
</linearGradient>
<path style="fill:url(#SVGID_2__52581);" d="M51.34,25.255c-0.417-0.28-0.943-0.332-1.408-0.141l-16.76,6.902  c-0.744,0.307-1.6,0.307-2.344,0l-16.759-6.901c-0.467-0.194-0.992-0.141-1.409,0.14c-0.413,0.276-0.66,0.736-0.66,1.23v18.209  c0,0.8,0.482,1.515,1.229,1.823l17.616,7.255C31.212,53.924,31.605,54,32,54s0.788-0.075,1.155-0.227l17.616-7.255h0.001  C51.518,46.209,52,45.495,52,44.695V26.486C52,25.992,51.753,25.532,51.34,25.255z M14,44.695V27.25l16.066,6.617  c0.302,0.124,0.615,0.217,0.934,0.28v17.528L14,44.695z M50,44.672l-17,7.001V34.146c0.318-0.063,0.632-0.156,0.934-0.28L50,27.25  V44.672z"/>
<linearGradient id="SVGID_3__52581" gradientUnits="userSpaceOnUse" x1="41.5" y1="6.1672" x2="41.5" y2="54.6674" spreadMethod="reflect">
	<stop offset="0" style="stop-color:#1A6DFF"/>
	<stop offset="1" style="stop-color:#C822FF"/>
</linearGradient>
<path style="fill:url(#SVGID_3__52581);" d="M35.668,47.807c0.25,0.167,0.539,0.252,0.83,0.252c0.196,0,0.395-0.039,0.582-0.117  l10.002-4.206C47.64,43.5,48,42.958,48,42.354v-8.603c0-0.503-0.25-0.97-0.67-1.248c-0.421-0.279-0.948-0.329-1.41-0.133  l-9.998,4.204C35.361,36.808,35,37.351,35,37.958v8.603C35,47.063,35.25,47.529,35.668,47.807z M37,38.292l9-3.785v7.515l-9,3.785  V38.292z"/>
<linearGradient id="SVGID_4__52581" gradientUnits="userSpaceOnUse" x1="22.5" y1="6.1672" x2="22.5" y2="54.6674" spreadMethod="reflect">
	<stop offset="0" style="stop-color:#1A6DFF"/>
	<stop offset="1" style="stop-color:#C822FF"/>
</linearGradient>
<path style="fill:url(#SVGID_4__52581);" d="M28.082,36.577l-10.001-4.206c-0.466-0.196-0.993-0.146-1.411,0.133  C16.25,32.782,16,33.249,16,33.751v8.603c0,0.604,0.36,1.146,0.918,1.382l10.004,4.207c0.187,0.078,0.384,0.116,0.579,0.116  c0.291,0,0.58-0.085,0.831-0.252C28.75,47.529,29,47.063,29,46.56v-8.603C29,37.351,28.639,36.808,28.082,36.577z M27,45.806  l-9-3.785v-7.515l9,3.785V45.806z"/>
<linearGradient id="SVGID_5__52581" gradientUnits="userSpaceOnUse" x1="32" y1="6.1672" x2="32" y2="54.6674" spreadMethod="reflect">
	<stop offset="0" style="stop-color:#1A6DFF"/>
	<stop offset="1" style="stop-color:#C822FF"/>
</linearGradient>
<path style="fill:url(#SVGID_5__52581);" d="M54.284,19.066L33.543,6.434c-0.95-0.578-2.133-0.578-3.087,0L9.716,19.067  c-0.488,0.297-0.76,0.835-0.71,1.405c0.05,0.568,0.411,1.051,0.943,1.26l20.255,7.93c0.579,0.228,1.188,0.341,1.796,0.341  s1.217-0.113,1.796-0.34l20.255-7.931c0.532-0.208,0.894-0.691,0.943-1.26C55.044,19.902,54.772,19.364,54.284,19.066z M31,22.536  l-14.086-5.512l3.851-2.345L31,18.684V22.536z M33,18.684l10.235-4.005l3.851,2.345L33,22.536V18.684z M41.087,13.371L33,16.536  v-8.09L41.087,13.371z M31,8.445v8.091l-8.088-3.165L31,8.445z M11.631,20.242l3.136-1.91L31,24.684v3.134  c-0.022-0.008-0.045-0.011-0.067-0.019L11.631,20.242z M33.067,27.8c-0.022,0.009-0.045,0.011-0.067,0.019v-3.135l16.234-6.352  l3.135,1.909L33.067,27.8z"/>
</svg>
