<?xml version="1.0" encoding="iso-8859-1"?>
<!-- Generator: Adobe Illustrator 20.1.0, SVG Export Plug-In . SVG Version: 6.00 Build 0)  -->
<svg xmlns="http://www.w3.org/2000/svg" xmlns:xlink="http://www.w3.org/1999/xlink" version="1.1" id="&#1057;&#1083;&#1086;&#1081;_1" x="0px" y="0px" viewBox="0 0 64 64" style="enable-background:new 0 0 64 64;" xml:space="preserve" width="64px" height="64px">
<linearGradient id="SVGID_1__44805" gradientUnits="userSpaceOnUse" x1="31.7739" y1="13" x2="31.7739" y2="21.6286" spreadMethod="reflect">
	<stop offset="0" style="stop-color:#6DC7FF"/>
	<stop offset="1" style="stop-color:#E6ABFF"/>
</linearGradient>
<path style="fill:url(#SVGID_1__44805);" d="M36.37,14.393l-6.364,6.364l-2.828-2.828C27.178,17.929,30.713,14.393,36.37,14.393z"/>
<linearGradient id="SVGID_2__44805" gradientUnits="userSpaceOnUse" x1="22.5815" y1="21.5" x2="22.5815" y2="31.6443" spreadMethod="reflect">
	<stop offset="0" style="stop-color:#6DC7FF"/>
	<stop offset="1" style="stop-color:#E6ABFF"/>
</linearGradient>
<path style="fill:url(#SVGID_2__44805);" d="M19.4,31.364L25.763,25l-2.828-2.828C22.935,22.172,19.4,25.707,19.4,31.364z"/>
<linearGradient id="SVGID_3__44805" gradientUnits="userSpaceOnUse" x1="30.0061" y1="5" x2="30.0061" y2="58.4592" spreadMethod="reflect">
	<stop offset="0" style="stop-color:#1A6DFF"/>
	<stop offset="1" style="stop-color:#C822FF"/>
</linearGradient>
<path style="fill:url(#SVGID_3__44805);" d="M30.006,44c5.075,0,9.846-1.977,13.435-5.565S49.006,30.075,49.006,25  s-1.977-9.846-5.565-13.435S35.081,6,30.006,6s-9.846,1.977-13.435,5.565S11.006,19.925,11.006,25s1.977,9.846,5.565,13.435  S24.931,44,30.006,44z M22.957,19.365L28.592,25L17.821,35.771C16.87,30.575,18.941,23.854,22.957,19.365z M37.051,30.631L31.42,25  l10.771-10.771C43.138,19.424,41.066,26.143,37.051,30.631z M35.637,32.045c-4.489,4.016-11.207,6.09-16.402,5.14l10.771-10.771  L35.637,32.045z M30.006,23.586l-5.635-5.635c4.488-4.017,11.21-6.091,16.408-5.137L30.006,23.586z M20.991,39.4  c0.3,0.015,0.599,0.032,0.903,0.032c5.211-0.001,11.009-2.201,15.163-5.967l4.227,4.227C38.171,40.467,34.211,42,30.006,42  C26.765,42,23.67,41.084,20.991,39.4z M42.699,36.279l-4.233-4.233c3.984-4.395,6.215-10.622,5.943-16.056  c1.682,2.677,2.597,5.77,2.597,9.01C47.006,29.205,45.473,33.165,42.699,36.279z M39.014,10.596  c-5.435-0.272-11.662,1.956-16.058,5.94l-4.229-4.229C21.841,9.533,25.801,8,30.006,8C33.245,8,36.337,8.915,39.014,10.596z   M17.313,13.721l4.229,4.229c-3.984,4.395-6.213,10.622-5.941,16.057c-1.681-2.677-2.595-5.769-2.595-9.007  C13.006,20.795,14.539,16.835,17.313,13.721z"/>
<linearGradient id="SVGID_4__44805" gradientUnits="userSpaceOnUse" x1="33.3681" y1="5" x2="33.3681" y2="58.4592" spreadMethod="reflect">
	<stop offset="0" style="stop-color:#1A6DFF"/>
	<stop offset="1" style="stop-color:#C822FF"/>
</linearGradient>
<path style="fill:url(#SVGID_4__44805);" d="M32.885,47.787c4.895-0.614,9.633-2.773,13.383-6.523c8.967-8.968,8.968-23.56,0.001-32.527  l-1.414,1.414c8.188,8.188,8.188,21.511,0,29.699c-8.188,8.188-21.512,8.188-29.699,0l-1.414,1.414  c3.75,3.75,8.484,5.909,13.379,6.523C27.38,48.734,28,49.489,29,49.816V53h-1.978c-1.658,0-3.005,1.344-3.014,3H19v2h22v-2h-4.995  c-0.009-1.656-1.356-3-3.014-3H31v-3.184C32,49.489,32.626,48.734,32.885,47.787z M34.003,56h-7.994c0.009-0.552,0.458-1,1.012-1  h5.969C33.544,55,33.994,55.448,34.003,56z"/>
</svg>
