<?xml version="1.0" encoding="iso-8859-1"?>
<!-- Generator: Adobe Illustrator 21.1.0, SVG Export Plug-In . SVG Version: 6.00 Build 0)  -->
<svg xmlns="http://www.w3.org/2000/svg" xmlns:xlink="http://www.w3.org/1999/xlink" version="1.1" id="Layer_1" x="0px" y="0px" viewBox="0 0 64 64" style="enable-background:new 0 0 64 64;" xml:space="preserve" width="64px" height="64px">
<linearGradient id="SVGID_1__59916" gradientUnits="userSpaceOnUse" x1="32" y1="-1286" x2="32" y2="-1334.5072" gradientTransform="matrix(1 0 0 -1 0 -1278)" spreadMethod="reflect">
	<stop offset="0" style="stop-color:#1A6DFF"/>
	<stop offset="1" style="stop-color:#C822FF"/>
</linearGradient>
<path style="fill:url(#SVGID_1__59916);" d="M50,8H14c-2.757,0-5,2.243-5,5v38c0,2.757,2.243,5,5,5h36c2.757,0,5-2.243,5-5V13  C55,10.243,52.757,8,50,8z M53,51c0,1.654-1.346,3-3,3H14c-1.654,0-3-1.346-3-3V13c0-1.654,1.346-3,3-3h36c1.654,0,3,1.346,3,3V51z"/>
<linearGradient id="SVGID_2__59916" gradientUnits="userSpaceOnUse" x1="28" y1="27" x2="28" y2="37" spreadMethod="reflect">
	<stop offset="0" style="stop-color:#6DC7FF"/>
	<stop offset="1" style="stop-color:#E6ABFF"/>
</linearGradient>
<path style="fill:url(#SVGID_2__59916);" d="M25,27.5v1c0,0.276,0.224,0.5,0.5,0.5H27v7.5c0,0.276,0.224,0.5,0.5,0.5h1  c0.276,0,0.5-0.224,0.5-0.5V29h1.5c0.276,0,0.5-0.224,0.5-0.5v-1c0-0.276-0.224-0.5-0.5-0.5h-5C25.224,27,25,27.224,25,27.5z"/>
<linearGradient id="SVGID_3__59916" gradientUnits="userSpaceOnUse" x1="46" y1="27" x2="46" y2="37" spreadMethod="reflect">
	<stop offset="0" style="stop-color:#6DC7FF"/>
	<stop offset="1" style="stop-color:#E6ABFF"/>
</linearGradient>
<path style="fill:url(#SVGID_3__59916);" d="M48.5,37H45c-1.105,0-2-0.895-2-2v-7.5c0-0.276,0.224-0.5,0.5-0.5h1  c0.276,0,0.5,0.224,0.5,0.5v7c0,0.276,0.224,0.5,0.5,0.5h3c0.276,0,0.5,0.224,0.5,0.5v1C49,36.776,48.776,37,48.5,37z"/>
<linearGradient id="SVGID_4__59916" gradientUnits="userSpaceOnUse" x1="37" y1="27" x2="37" y2="37" spreadMethod="reflect">
	<stop offset="0" style="stop-color:#6DC7FF"/>
	<stop offset="1" style="stop-color:#E6ABFF"/>
</linearGradient>
<path style="fill:url(#SVGID_4__59916);" d="M40.524,27.475l0.45,9C40.988,36.761,40.76,37,40.474,37H39.48  c-0.268,0-0.488-0.211-0.5-0.479L38.75,31l-1.173,2.155c-0.249,0.457-0.905,0.457-1.154,0L35.25,31l-0.23,5.521  C35.009,36.789,34.788,37,34.52,37h-0.995c-0.286,0-0.514-0.239-0.499-0.525l0.45-9C33.49,27.209,33.709,27,33.976,27h1.214  c0.19,0,0.363,0.108,0.448,0.278L37,30.024l1.362-2.746C38.447,27.108,38.62,27,38.81,27h1.214  C40.291,27,40.51,27.209,40.524,27.475z"/>
<linearGradient id="SVGID_5__59916" gradientUnits="userSpaceOnUse" x1="20" y1="27" x2="20" y2="37" spreadMethod="reflect">
	<stop offset="0" style="stop-color:#6DC7FF"/>
	<stop offset="1" style="stop-color:#E6ABFF"/>
</linearGradient>
<path style="fill:url(#SVGID_5__59916);" d="M21,27.5V31h-2v-3.5c0-0.276-0.224-0.5-0.5-0.5h-1c-0.276,0-0.5,0.224-0.5,0.5v9  c0,0.276,0.224,0.5,0.5,0.5h1c0.276,0,0.5-0.224,0.5-0.5V33h2v3.5c0,0.276,0.224,0.5,0.5,0.5h1c0.276,0,0.5-0.224,0.5-0.5v-9  c0-0.276-0.224-0.5-0.5-0.5h-1C21.224,27,21,27.224,21,27.5z"/>
</svg>
