<?xml version="1.0" encoding="iso-8859-1"?>
<!-- Generator: Adobe Illustrator 21.1.0, SVG Export Plug-In . SVG Version: 6.00 Build 0)  -->
<svg xmlns="http://www.w3.org/2000/svg" xmlns:xlink="http://www.w3.org/1999/xlink" version="1.1" id="Layer_1" x="0px" y="0px" viewBox="0 0 64 64" style="enable-background:new 0 0 64 64;" xml:space="preserve" width="64px" height="64px">
<linearGradient id="SVGID_1__56298" gradientUnits="userSpaceOnUse" x1="32" y1="11" x2="32" y2="53" spreadMethod="reflect">
	<stop offset="0" style="stop-color:#1A6DFF"/>
	<stop offset="1" style="stop-color:#C822FF"/>
</linearGradient>
<path style="fill:url(#SVGID_1__56298);" d="M57,11v2H7v-2H57z M7,33h50v-2H7V33z M21,23h36v-2H21V23z M21,43h36v-2H21V43z M7,53h50v-2H7  V53z"/>
<linearGradient id="SVGID_2__56298" gradientUnits="userSpaceOnUse" x1="55" y1="16" x2="55" y2="48" spreadMethod="reflect">
	<stop offset="0" style="stop-color:#6DC7FF"/>
	<stop offset="1" style="stop-color:#E6ABFF"/>
</linearGradient>
<path style="fill:url(#SVGID_2__56298);" d="M57,16v2h-4v-2H57z M57,26v2h-4v-2H57z M57,36v2h-4v-2H57z M57,46v2h-4v-2H57z"/>
</svg>
