<?xml version="1.0" encoding="iso-8859-1"?>
<!-- Generator: Adobe Illustrator 19.1.1, SVG Export Plug-In . SVG Version: 6.00 Build 0)  -->
<svg xmlns="http://www.w3.org/2000/svg" xmlns:xlink="http://www.w3.org/1999/xlink" version="1.1" id="Layer_1" x="0px" y="0px" viewBox="0 0 64 64" style="enable-background:new 0 0 64 64;" xml:space="preserve" width="64px" height="64px">
<g>
	
		<linearGradient id="SVGID_1__55497" gradientUnits="userSpaceOnUse" x1="32" y1="807.0833" x2="32" y2="772.7422" gradientTransform="matrix(1 0 0 -1 0 822)" spreadMethod="reflect">
		<stop offset="0" style="stop-color:#6DC7FF"/>
		<stop offset="1" style="stop-color:#E6ABFF"/>
	</linearGradient>
	<path style="fill:url(#SVGID_1__55497);" d="M32,49c-9.374,0-17-7.626-17-17s7.626-17,17-17s17,7.626,17,17S41.374,49,32,49z M32,17   c-8.271,0-15,6.729-15,15s6.729,15,15,15s15-6.729,15-15S40.271,17,32,17z"/>
</g>
<g>
	<g>
		<linearGradient id="SVGID_2__55497" gradientUnits="userSpaceOnUse" x1="32" y1="4.75" x2="32" y2="60.5" spreadMethod="reflect">
			<stop offset="0" style="stop-color:#1A6DFF"/>
			<stop offset="1" style="stop-color:#C822FF"/>
		</linearGradient>
		<path style="fill:url(#SVGID_2__55497);" d="M25.605,26h-1.21c-1.02,0-1.875,0.765-1.99,1.775L21,38h2.017l0.414-3h3.142l0.414,3H29    l-1.41-10.225C27.48,26.765,26.625,26,25.605,26z M23.706,33l0.689-5h1.21l0.69,5H23.706z M58.955,30.421    c-0.105-1.636-1.309-2.962-2.921-3.222c-0.915-0.155-2.006-0.332-2.906-0.478l-0.211-0.034c-0.564-0.091-1.021-0.486-1.192-1.031    c-0.33-1.055-0.762-2.104-1.285-3.125c-0.263-0.504-0.22-1.103,0.118-1.571c0.544-0.77,1.249-1.745,1.832-2.553    c0.962-1.333,0.876-3.126-0.218-4.37c-0.714-0.791-1.462-1.534-2.226-2.214c-1.233-1.084-3.022-1.17-4.345-0.213    c-0.816,0.581-1.797,1.288-2.566,1.843c-0.462,0.335-1.066,0.378-1.572,0.113c-0.981-0.512-2.028-0.949-3.118-1.3    c-0.542-0.17-0.935-0.624-1.027-1.194c-0.159-0.93-0.351-2.117-0.51-3.1c-0.263-1.623-1.591-2.83-3.245-2.936    c-1.063-0.054-2.118-0.051-3.14,0.008c-1.636,0.105-2.962,1.309-3.222,2.921c-0.155,0.915-0.332,2.006-0.478,2.906l-0.034,0.211    c-0.091,0.564-0.486,1.021-1.031,1.192c-1.055,0.33-2.104,0.762-3.125,1.285c-0.504,0.265-1.102,0.22-1.571-0.118    c-0.77-0.544-1.745-1.249-2.553-1.832c-1.334-0.963-3.126-0.876-4.37,0.218c-0.791,0.714-1.534,1.462-2.214,2.226    c-1.083,1.232-1.169,3.021-0.213,4.345c0.581,0.816,1.288,1.797,1.843,2.566c0.335,0.463,0.378,1.066,0.113,1.572    c-0.512,0.981-0.949,2.028-1.3,3.118c-0.17,0.542-0.624,0.935-1.194,1.027c-0.93,0.159-2.117,0.351-3.101,0.51    c-1.623,0.263-2.83,1.591-2.936,3.245c-0.054,1.064-0.052,2.118,0.008,3.14c0.105,1.636,1.309,2.962,2.921,3.222    c0.915,0.155,2.006,0.332,2.906,0.478l0.211,0.034c0.564,0.091,1.021,0.486,1.192,1.031c0.33,1.055,0.762,2.104,1.285,3.125    c0.263,0.504,0.22,1.103-0.118,1.571c-0.544,0.77-1.249,1.745-1.832,2.553c-0.962,1.333-0.876,3.126,0.218,4.37    c0.714,0.791,1.462,1.534,2.226,2.214c1.232,1.082,3.021,1.168,4.345,0.213c0.816-0.581,1.797-1.288,2.566-1.843    c0.463-0.335,1.065-0.378,1.572-0.113c0.981,0.512,2.028,0.949,3.118,1.3c0.542,0.17,0.935,0.624,1.027,1.194    c0.159,0.93,0.351,2.117,0.51,3.101c0.263,1.623,1.591,2.83,3.245,2.936c0.505,0.026,1.007,0.039,1.506,0.039    c0.552,0,1.097-0.016,1.634-0.048c1.636-0.105,2.962-1.309,3.222-2.921c0.155-0.915,0.332-2.006,0.478-2.906l0.034-0.211    c0.091-0.564,0.486-1.021,1.031-1.192c1.055-0.33,2.104-0.762,3.125-1.285c0.505-0.264,1.103-0.219,1.571,0.118    c0.77,0.544,1.745,1.249,2.553,1.832c1.334,0.962,3.125,0.875,4.37-0.218c0.791-0.714,1.534-1.462,2.214-2.226    c1.083-1.232,1.169-3.021,0.213-4.345c-0.581-0.816-1.288-1.797-1.843-2.566c-0.335-0.463-0.378-1.066-0.113-1.572    c0.512-0.981,0.949-2.028,1.3-3.118c0.17-0.542,0.624-0.935,1.194-1.027c0.93-0.159,2.117-0.351,3.101-0.51    c1.623-0.263,2.83-1.591,2.936-3.245C59.017,32.497,59.015,31.443,58.955,30.421z M56.967,33.45    c-0.045,0.702-0.563,1.272-1.258,1.384c-0.989,0.159-2.184,0.352-3.11,0.511c-1.313,0.213-2.375,1.133-2.771,2.395    c-0.314,0.976-0.707,1.917-1.167,2.797c-0.618,1.182-0.517,2.588,0.263,3.669c0.553,0.765,1.257,1.742,1.839,2.56    c0.411,0.567,0.374,1.332-0.085,1.854c-0.628,0.706-1.32,1.401-2.047,2.058c-0.528,0.465-1.296,0.501-1.868,0.09    c-0.813-0.587-1.794-1.295-2.561-1.837c-1.079-0.778-2.482-0.879-3.654-0.267c-0.913,0.468-1.856,0.856-2.803,1.152    c-1.273,0.399-2.195,1.465-2.408,2.78l-0.034,0.211c-0.145,0.895-0.321,1.982-0.476,2.899c-0.112,0.692-0.679,1.207-1.372,1.251    c-0.944,0.055-1.924,0.058-2.903,0.008c-0.702-0.045-1.272-0.563-1.384-1.258c-0.159-0.989-0.352-2.184-0.511-3.11    c-0.213-1.313-1.133-2.375-2.395-2.771c-0.976-0.314-1.917-0.707-2.797-1.167c-0.515-0.268-1.071-0.401-1.625-0.401    c-0.719,0-1.434,0.223-2.044,0.664c-0.765,0.553-1.742,1.257-2.56,1.839c-0.567,0.412-1.332,0.373-1.854-0.085    c-0.706-0.628-1.401-1.32-2.058-2.047c-0.465-0.528-0.502-1.297-0.09-1.868c0.587-0.813,1.295-1.794,1.837-2.561    c0.779-1.079,0.88-2.482,0.267-3.654c-0.468-0.913-0.856-1.856-1.152-2.803c-0.399-1.273-1.465-2.195-2.78-2.408l-0.211-0.034    c-0.895-0.145-1.982-0.321-2.899-0.476c-0.692-0.112-1.207-0.679-1.251-1.372c-0.055-0.944-0.057-1.925-0.008-2.903    c0.045-0.702,0.563-1.272,1.258-1.384c0.989-0.159,2.184-0.352,3.11-0.511c1.313-0.213,2.375-1.133,2.771-2.395    c0.314-0.976,0.707-1.917,1.167-2.797c0.618-1.182,0.517-2.588-0.263-3.669c-0.553-0.765-1.257-1.742-1.839-2.56    c-0.411-0.567-0.374-1.332,0.085-1.854c0.628-0.706,1.32-1.401,2.047-2.058c0.529-0.465,1.296-0.502,1.868-0.09    c0.813,0.587,1.794,1.295,2.561,1.837c1.078,0.779,2.482,0.88,3.654,0.267c0.913-0.468,1.856-0.856,2.803-1.152    c1.273-0.399,2.195-1.465,2.408-2.78l0.034-0.211c0.145-0.895,0.321-1.982,0.476-2.899c0.112-0.692,0.679-1.207,1.372-1.251    c0.943-0.055,1.924-0.057,2.903-0.008c0.702,0.045,1.272,0.563,1.384,1.258c0.159,0.989,0.352,2.184,0.511,3.11    c0.213,1.313,1.133,2.375,2.395,2.771c0.976,0.314,1.917,0.707,2.797,1.167c1.181,0.617,2.587,0.516,3.669-0.263    c0.765-0.553,1.742-1.257,2.56-1.839c0.568-0.411,1.333-0.373,1.854,0.085c0.706,0.628,1.401,1.32,2.058,2.047    c0.465,0.528,0.502,1.297,0.09,1.868c-0.587,0.813-1.295,1.794-1.837,2.561c-0.779,1.079-0.88,2.482-0.267,3.654    c0.468,0.913,0.856,1.856,1.152,2.803c0.399,1.273,1.465,2.195,2.78,2.408l0.211,0.034c0.895,0.145,1.982,0.321,2.899,0.476    c0.692,0.112,1.207,0.679,1.251,1.372C57.014,31.491,57.016,32.472,56.967,33.45z M36,26h-5v12h2v-4h3c1.655,0,3-1.345,3-3v-2    C39,27.345,37.655,26,36,26z M37,31c0,0.55-0.45,1-1,1h-3v-4h3c0.55,0,1,0.45,1,1V31z M41,38h2V26h-2V38z"/>
	</g>
</g>
</svg>
