<?xml version="1.0" encoding="iso-8859-1"?>
<!-- Generator: Adobe Illustrator 20.1.0, SVG Export Plug-In . SVG Version: 6.00 Build 0)  -->
<svg xmlns="http://www.w3.org/2000/svg" xmlns:xlink="http://www.w3.org/1999/xlink" version="1.1" id="&#1057;&#1083;&#1086;&#1081;_1" x="0px" y="0px" viewBox="0 0 64 64" style="enable-background:new 0 0 64 64;" xml:space="preserve" width="64px" height="64px">
<linearGradient id="SVGID_1__52966" gradientUnits="userSpaceOnUse" x1="37" y1="24.8752" x2="37" y2="29.2936" spreadMethod="reflect">
	<stop offset="0" style="stop-color:#6DC7FF"/>
	<stop offset="1" style="stop-color:#E6ABFF"/>
</linearGradient>
<circle style="fill:url(#SVGID_1__52966);" cx="37" cy="27" r="2"/>
<linearGradient id="SVGID_2__52966" gradientUnits="userSpaceOnUse" x1="27" y1="24.8752" x2="27" y2="29.2936" spreadMethod="reflect">
	<stop offset="0" style="stop-color:#6DC7FF"/>
	<stop offset="1" style="stop-color:#E6ABFF"/>
</linearGradient>
<circle style="fill:url(#SVGID_2__52966);" cx="27" cy="27" r="2"/>
<linearGradient id="SVGID_3__52966" gradientUnits="userSpaceOnUse" x1="32" y1="30.0422" x2="32" y2="33.2695" spreadMethod="reflect">
	<stop offset="0" style="stop-color:#6DC7FF"/>
	<stop offset="1" style="stop-color:#E6ABFF"/>
</linearGradient>
<path style="fill:url(#SVGID_3__52966);" d="M35,30h-6c0,2,1.343,3,3,3C33.657,33,35,31.657,35,30L35,30"/>
<linearGradient id="SVGID_4__52966" gradientUnits="userSpaceOnUse" x1="32" y1="9.1668" x2="32" y2="54.6679" spreadMethod="reflect">
	<stop offset="0" style="stop-color:#1A6DFF"/>
	<stop offset="1" style="stop-color:#C822FF"/>
</linearGradient>
<path style="fill:url(#SVGID_4__52966);" d="M51.399,36.702c0.434-0.716,0.787-1.48,1.05-2.281c2.71-0.206,4.243-2.201,4.243-4.651  c0-2.283-1.321-4.186-3.692-4.603V25c0-6.065-4.935-11-11-11c-0.346,0-0.691,0.02-1.034,0.052C38.766,11.573,35.567,10,32,10  s-6.766,1.573-8.966,4.052C22.691,14.02,22.346,14,22,14c-6.065,0-11,4.935-11,11v0.167c-2.371,0.417-3.692,2.32-3.692,4.603  c0,2.45,1.533,4.445,4.243,4.651c0.263,0.802,0.617,1.568,1.052,2.284C8.454,39.857,6,44.759,6,50v4h6v-2H8v-2  c0-4.603,2.167-8.891,5.804-11.666c0.804,0.899,1.762,1.667,2.843,2.27C14.947,43.382,14,46.616,14,50v4h36v-4  c0-3.384-0.947-6.619-2.646-9.396c1.089-0.607,2.054-1.382,2.861-2.29C53.854,41.091,56,45.392,56,50v2h-4v2h6v-4  C58,44.752,55.551,39.855,51.399,36.702z M54.692,29.77c0,1.228-0.486,2.254-1.781,2.576C52.966,31.903,53,31.454,53,31v-3.783  C54.227,27.565,54.692,28.571,54.692,29.77z M32,12c5.514,0,10,4.486,10,10v6c0,5.514-4.486,10-10,10s-10-4.486-10-10v-6  C22,16.486,26.486,12,32,12z M35.612,49.439L34.189,52h-4.379l-1.423-2.561c-0.161-0.29-0.169-0.641-0.021-0.936l1.974-3.947  C30.512,44.213,30.855,44,31.239,44h1.521c0.384,0,0.728,0.213,0.898,0.556l1.974,3.946C35.781,48.798,35.773,49.149,35.612,49.439z   M34,41c0,0.552-0.448,1-1,1h-0.239h-1.521H31c-0.552,0-1-0.448-1-1V39.82C30.652,39.93,31.317,40,32,40s1.348-0.07,2-0.181V41z   M9.308,29.77c0-1.199,0.465-2.205,1.692-2.553V31c0,0.454,0.035,0.902,0.089,1.346C9.794,32.024,9.308,30.997,9.308,29.77z M13,31  v-6c0-4.832,3.83-8.774,8.611-8.98C20.593,17.783,20,19.821,20,22v0.101c-2.279,0.465-4,2.484-4,4.899  c0,2.65,2.079,4.804,4.688,4.968c0.371,1.054,0.88,2.041,1.514,2.938c-1.703,1.105-3.183,2.47-4.399,4.031  C14.873,37.384,13,34.351,13,31z M20.16,29.865C18.916,29.5,18,28.361,18,27c0-1.302,0.838-2.401,2-2.816V28  C20,28.636,20.064,29.256,20.16,29.865z M16,50c0-5.537,2.843-10.631,7.489-13.551c1.256,1.266,2.797,2.242,4.511,2.851V41  c0,0.834,0.344,1.589,0.896,2.134c-0.129,0.163-0.248,0.335-0.344,0.527l-1.974,3.946c-0.443,0.888-0.421,1.934,0.062,2.802  L27.523,52H22v-2h-2v2h-4V50z M48,52h-4v-2h-2v2h-5.523l0.884-1.591c0.482-0.867,0.505-1.914,0.062-2.802l-1.974-3.945  c-0.096-0.192-0.215-0.365-0.344-0.528C35.656,42.59,36,41.835,36,41v-1.7c1.714-0.608,3.254-1.585,4.511-2.851  C45.157,39.369,48,44.462,48,50V52z M46.197,38.937c-1.216-1.561-2.697-2.926-4.4-4.031c0.634-0.896,1.143-1.883,1.514-2.937  C45.921,31.804,48,29.651,48,27c0-2.415-1.721-4.434-4-4.899V22c0-2.179-0.593-4.217-1.611-5.98C47.17,16.226,51,20.169,51,25v6  C51,34.351,49.127,37.385,46.197,38.937z M44,28v-3.816c1.162,0.415,2,1.514,2,2.816c0,1.361-0.916,2.5-2.16,2.866  C43.936,29.256,44,28.636,44,28z"/>
</svg>
