<?xml version="1.0" encoding="utf-8"?>
<!-- Generator: Adobe Illustrator 22.1.0, SVG Export Plug-In . SVG Version: 6.00 Build 0)  -->
<svg xmlns="http://www.w3.org/2000/svg" xmlns:xlink="http://www.w3.org/1999/xlink" version="1.1" id="Layer_1" x="0px" y="0px" viewBox="0 0 64 64" style="enable-background:new 0 0 64 64;" xml:space="preserve" width="64px" height="64px">
<style type="text/css">
	.st0{fill:url(#SVGID_1__59946);}
	.st1{fill:url(#SVGID_2__59946);}
	.st2{fill:url(#SVGID_3__59946);}
	.st3{fill:url(#SVGID_4__59946);}
	.st4{fill:url(#SVGID_5__59946);}
	.st5{fill:url(#SVGID_6__59946);}
</style>
<linearGradient id="SVGID_1__59946" gradientUnits="userSpaceOnUse" x1="24.0001" y1="887.0849" x2="24.0001" y2="894.9281" gradientTransform="matrix(-1 0 0 1 44.0002 -854)" spreadMethod="reflect">
	<stop offset="0" style="stop-color:#6DC7FF"/>
	<stop offset="1" style="stop-color:#E6ABFF"/>
</linearGradient>
<path class="st0" d="M12.5,36l4.5-2.8c0.9-0.5,2,0.1,2,1.1V36h9v2h-9v1.7c0,1-1.1,1.6-2,1.1L12.5,38C11.8,37.5,11.8,36.5,12.5,36z"/>
<linearGradient id="SVGID_2__59946" gradientUnits="userSpaceOnUse" x1="39.5029" y1="879.0849" x2="39.5029" y2="886.9281" gradientTransform="matrix(-1 0 0 1 83.0058 -854)" spreadMethod="reflect">
	<stop offset="0" style="stop-color:#6DC7FF"/>
	<stop offset="1" style="stop-color:#E6ABFF"/>
</linearGradient>
<path class="st1" d="M51.5,30L47,32.8c-0.9,0.5-2-0.1-2-1.1V30H35v-2h10v-1.7c0-1,1.1-1.6,2-1.1l4.5,2.8  C52.2,28.5,52.2,29.5,51.5,30z"/>
<linearGradient id="SVGID_3__59946" gradientUnits="userSpaceOnUse" x1="36.251" y1="59.625" x2="36.251" y2="8.6097" gradientTransform="matrix(1 0 0 -1 0 66)" spreadMethod="reflect">
	<stop offset="0" style="stop-color:#1A6DFF"/>
	<stop offset="1" style="stop-color:#C822FF"/>
</linearGradient>
<polygon class="st2" points="37,43.5 33.8,37.5 35.5,36.5 38.7,42.6 "/>
<linearGradient id="SVGID_4__59946" gradientUnits="userSpaceOnUse" x1="31.972" y1="59.5" x2="31.972" y2="8.4994" gradientTransform="matrix(1 0 0 -1 0 66)" spreadMethod="reflect">
	<stop offset="0" style="stop-color:#1A6DFF"/>
	<stop offset="1" style="stop-color:#C822FF"/>
</linearGradient>
<polygon class="st3" points="32.7,35.5 29.5,29.4 31.2,28.4 34.5,34.5 "/>
<linearGradient id="SVGID_5__59946" gradientUnits="userSpaceOnUse" x1="27.7805" y1="59.875" x2="27.7805" y2="8.5298" gradientTransform="matrix(1 0 0 -1 0 66)" spreadMethod="reflect">
	<stop offset="0" style="stop-color:#1A6DFF"/>
	<stop offset="1" style="stop-color:#C822FF"/>
</linearGradient>
<polygon class="st4" points="28.5,27.4 25.3,21.5 27.1,20.6 30.2,26.5 "/>
<linearGradient id="SVGID_6__59946" gradientUnits="userSpaceOnUse" x1="32" y1="60" x2="32" y2="8" gradientTransform="matrix(1 0 0 -1 0 66)" spreadMethod="reflect">
	<stop offset="0" style="stop-color:#1A6DFF"/>
	<stop offset="1" style="stop-color:#C822FF"/>
</linearGradient>
<path class="st5" d="M55.1,14.7l-7.8-7.8C46.7,6.3,46,6,45.2,6H25c-1.7,0-3,1.3-3,3v5H11c-1.7,0-3,1.3-3,3v38c0,1.7,1.3,3,3,3h28  c1.7,0,3-1.3,3-3v-5h11c1.7,0,3-1.3,3-3V16.8C56,16,55.7,15.3,55.1,14.7z M47,9.4l5.6,5.6H48c-0.6,0-1-0.4-1-1V9.4z M54,47  c0,0.6-0.4,1-1,1H41.6l-1.8-3.5L38,45.5l2,3.8V50v5c0,0.6-0.4,1-1,1H11c-0.6,0-1-0.4-1-1V17c0-0.6,0.4-1,1-1h11h0.4l1.8,3.4l1.8-0.9  l-2-3.7V9c0-0.6,0.4-1,1-1h20v6c0,1.7,1.3,3,3,3h6V47z"/>
</svg>
