<?xml version="1.0" encoding="iso-8859-1"?>
<!-- Generator: Adobe Illustrator 20.1.0, SVG Export Plug-In . SVG Version: 6.00 Build 0)  -->
<svg xmlns="http://www.w3.org/2000/svg" xmlns:xlink="http://www.w3.org/1999/xlink" version="1.1" id="&#1057;&#1083;&#1086;&#1081;_1" x="0px" y="0px" viewBox="0 0 64 64" style="enable-background:new 0 0 64 64;" xml:space="preserve" width="64px" height="64px">
<linearGradient id="SVGID_1__53002" gradientUnits="userSpaceOnUse" x1="32" y1="12.25" x2="32" y2="52.3818" spreadMethod="reflect">
	<stop offset="0" style="stop-color:#6DC7FF"/>
	<stop offset="1" style="stop-color:#E6ABFF"/>
</linearGradient>
<path style="fill:url(#SVGID_1__53002);" d="M50,52H14c-1.103,0-2-0.897-2-2V14c0-1.103,0.897-2,2-2h36c1.103,0,2,0.897,2,2v36  C52,51.103,51.103,52,50,52z M14,14v36h36V14H14z"/>
<linearGradient id="SVGID_2__53002" gradientUnits="userSpaceOnUse" x1="31" y1="7.5" x2="31" y2="56.7062" spreadMethod="reflect">
	<stop offset="0" style="stop-color:#1A6DFF"/>
	<stop offset="1" style="stop-color:#C822FF"/>
</linearGradient>
<rect x="18" y="23" style="fill:url(#SVGID_2__53002);" width="26" height="2"/>
<linearGradient id="SVGID_3__53002" gradientUnits="userSpaceOnUse" x1="31" y1="7.5" x2="31" y2="56.7062" spreadMethod="reflect">
	<stop offset="0" style="stop-color:#1A6DFF"/>
	<stop offset="1" style="stop-color:#C822FF"/>
</linearGradient>
<rect x="18" y="31" style="fill:url(#SVGID_3__53002);" width="26" height="2"/>
<linearGradient id="SVGID_4__53002" gradientUnits="userSpaceOnUse" x1="28" y1="7.5" x2="28" y2="56.7062" spreadMethod="reflect">
	<stop offset="0" style="stop-color:#1A6DFF"/>
	<stop offset="1" style="stop-color:#C822FF"/>
</linearGradient>
<rect x="18" y="27" style="fill:url(#SVGID_4__53002);" width="20" height="2"/>
<linearGradient id="SVGID_5__53002" gradientUnits="userSpaceOnUse" x1="28" y1="7.5" x2="28" y2="56.7062" spreadMethod="reflect">
	<stop offset="0" style="stop-color:#1A6DFF"/>
	<stop offset="1" style="stop-color:#C822FF"/>
</linearGradient>
<rect x="18" y="35" style="fill:url(#SVGID_5__53002);" width="20" height="2"/>
<linearGradient id="SVGID_6__53002" gradientUnits="userSpaceOnUse" x1="31" y1="7.5" x2="31" y2="56.7062" spreadMethod="reflect">
	<stop offset="0" style="stop-color:#1A6DFF"/>
	<stop offset="1" style="stop-color:#C822FF"/>
</linearGradient>
<rect x="18" y="39" style="fill:url(#SVGID_6__53002);" width="26" height="2"/>
<linearGradient id="SVGID_7__53002" gradientUnits="userSpaceOnUse" x1="50" y1="7.5" x2="50" y2="56.7062" spreadMethod="reflect">
	<stop offset="0" style="stop-color:#1A6DFF"/>
	<stop offset="1" style="stop-color:#C822FF"/>
</linearGradient>
<path style="fill:url(#SVGID_7__53002);" d="M56,20h-2v-7c0-1.654-1.346-3-3-3h-7V8h7c2.757,0,5,2.243,5,5V20z"/>
<linearGradient id="SVGID_8__53002" gradientUnits="userSpaceOnUse" x1="14" y1="7.5" x2="14" y2="56.7062" spreadMethod="reflect">
	<stop offset="0" style="stop-color:#1A6DFF"/>
	<stop offset="1" style="stop-color:#C822FF"/>
</linearGradient>
<path style="fill:url(#SVGID_8__53002);" d="M10,20H8v-7c0-2.757,2.243-5,5-5h7v2h-7c-1.654,0-3,1.346-3,3V20z"/>
<linearGradient id="SVGID_9__53002" gradientUnits="userSpaceOnUse" x1="50" y1="7.5" x2="50" y2="56.7062" spreadMethod="reflect">
	<stop offset="0" style="stop-color:#1A6DFF"/>
	<stop offset="1" style="stop-color:#C822FF"/>
</linearGradient>
<path style="fill:url(#SVGID_9__53002);" d="M51,56h-7v-2h7c1.654,0,3-1.346,3-3v-7h2v7C56,53.757,53.757,56,51,56z"/>
<linearGradient id="SVGID_10__53002" gradientUnits="userSpaceOnUse" x1="14" y1="7.5" x2="14" y2="56.7062" spreadMethod="reflect">
	<stop offset="0" style="stop-color:#1A6DFF"/>
	<stop offset="1" style="stop-color:#C822FF"/>
</linearGradient>
<path style="fill:url(#SVGID_10__53002);" d="M20,56h-7c-2.757,0-5-2.243-5-5v-7h2v7c0,1.654,1.346,3,3,3h7V56z"/>
<linearGradient id="SVGID_11__53002" gradientUnits="userSpaceOnUse" x1="55" y1="7.5" x2="55" y2="56.7062" spreadMethod="reflect">
	<stop offset="0" style="stop-color:#1A6DFF"/>
	<stop offset="1" style="stop-color:#C822FF"/>
</linearGradient>
<rect x="54" y="24" style="fill:url(#SVGID_11__53002);" width="2" height="16"/>
<linearGradient id="SVGID_12__53002" gradientUnits="userSpaceOnUse" x1="9" y1="7.5" x2="9" y2="56.7062" spreadMethod="reflect">
	<stop offset="0" style="stop-color:#1A6DFF"/>
	<stop offset="1" style="stop-color:#C822FF"/>
</linearGradient>
<rect x="8" y="24" style="fill:url(#SVGID_12__53002);" width="2" height="16"/>
<linearGradient id="SVGID_13__53002" gradientUnits="userSpaceOnUse" x1="32" y1="7.5" x2="32" y2="56.7062" spreadMethod="reflect">
	<stop offset="0" style="stop-color:#1A6DFF"/>
	<stop offset="1" style="stop-color:#C822FF"/>
</linearGradient>
<rect x="24" y="54" style="fill:url(#SVGID_13__53002);" width="16" height="2"/>
<linearGradient id="SVGID_14__53002" gradientUnits="userSpaceOnUse" x1="32" y1="7.5" x2="32" y2="56.7062" spreadMethod="reflect">
	<stop offset="0" style="stop-color:#1A6DFF"/>
	<stop offset="1" style="stop-color:#C822FF"/>
</linearGradient>
<rect x="24" y="8" style="fill:url(#SVGID_14__53002);" width="16" height="2"/>
</svg>
