<?xml version="1.0" encoding="iso-8859-1"?>
<!-- Generator: Adobe Illustrator 20.1.0, SVG Export Plug-In . SVG Version: 6.00 Build 0)  -->
<svg xmlns="http://www.w3.org/2000/svg" xmlns:xlink="http://www.w3.org/1999/xlink" version="1.1" id="&#1057;&#1083;&#1086;&#1081;_1" x="0px" y="0px" viewBox="0 0 64 64" style="enable-background:new 0 0 64 64;" xml:space="preserve" width="64px" height="64px">
<linearGradient id="SVGID_1__44033" gradientUnits="userSpaceOnUse" x1="36" y1="39.8333" x2="36" y2="44.1795" spreadMethod="reflect">
	<stop offset="0" style="stop-color:#6DC7FF"/>
	<stop offset="1" style="stop-color:#E6ABFF"/>
</linearGradient>
<circle style="fill:url(#SVGID_1__44033);" cx="36" cy="42" r="2"/>
<linearGradient id="SVGID_2__44033" gradientUnits="userSpaceOnUse" x1="42" y1="39.8333" x2="42" y2="44.1795" spreadMethod="reflect">
	<stop offset="0" style="stop-color:#6DC7FF"/>
	<stop offset="1" style="stop-color:#E6ABFF"/>
</linearGradient>
<circle style="fill:url(#SVGID_2__44033);" cx="42" cy="42" r="2"/>
<linearGradient id="SVGID_3__44033" gradientUnits="userSpaceOnUse" x1="48" y1="39.8333" x2="48" y2="44.1795" spreadMethod="reflect">
	<stop offset="0" style="stop-color:#6DC7FF"/>
	<stop offset="1" style="stop-color:#E6ABFF"/>
</linearGradient>
<circle style="fill:url(#SVGID_3__44033);" cx="48" cy="42" r="2"/>
<linearGradient id="SVGID_4__44033" gradientUnits="userSpaceOnUse" x1="30" y1="39.8333" x2="30" y2="44.1795" spreadMethod="reflect">
	<stop offset="0" style="stop-color:#6DC7FF"/>
	<stop offset="1" style="stop-color:#E6ABFF"/>
</linearGradient>
<circle style="fill:url(#SVGID_4__44033);" cx="30" cy="42" r="2"/>
<linearGradient id="SVGID_5__44033" gradientUnits="userSpaceOnUse" x1="32" y1="5.3333" x2="32" y2="58.8042" spreadMethod="reflect">
	<stop offset="0" style="stop-color:#1A6DFF"/>
	<stop offset="1" style="stop-color:#C822FF"/>
</linearGradient>
<path style="fill:url(#SVGID_5__44033);" d="M52.021,34H47v-3c0-2.757-2.243-5-5-5h-1v-2c0-1.103-0.897-2-2-2h-2v-7c0-4.963-4.037-9-9-9  s-9,4.037-9,9v7h-2c-1.103,0-2,0.897-2,2v2h-1c-2.757,0-5,2.243-5,5v22c0,2.757,2.243,5,5,5h28c2.757,0,5-2.243,5-5v-3h5.021  C53.663,50,55,48.663,55,47.021V36.979C55,35.337,53.663,34,52.021,34z M39,26h-6v-2h6V26z M21,15c0-3.859,3.141-7,7-7s7,3.141,7,7  v7h-2c-1.103,0-2,0.897-2,2v2h-6v-2c0-1.103-0.897-2-2-2h-2V15z M17,24h6v2h-6V24z M45,53c0,1.654-1.346,3-3,3h-7  c0-1.103-0.897-2-2-2H23c-1.103,0-2,0.897-2,2h-7c-1.654,0-3-1.346-3-3v-4h4v-2h-4v-2h4v-2h-4v-2h4v-2h-4v-2h4v-2h-4v-4  c0-1.654,1.346-3,3-3h28c1.654,0,3,1.346,3,3v3H25.979C24.337,34,23,35.337,23,36.979v10.041C23,48.663,24.337,50,25.979,50H45V53z   M53,47.021C53,47.561,52.561,48,52.021,48H25.979C25.439,48,25,47.561,25,47.021V36.979C25,36.439,25.439,36,25.979,36h26.041  C52.561,36,53,36.439,53,36.979V47.021z"/>
</svg>
