<svg xmlns="http://www.w3.org/2000/svg" viewBox="0 0 128 128" width="128px" height="128px"><path fill="#fff" d="M94,100H34c-2.8,0-5,2.2-5,5v7h70v-7C99,102.2,96.8,100,94,100z"/><path fill="#fff" d="M104,112H24c-2.8,0-5,2.2-5,5v7h90v-7C109,114.2,106.8,112,104,112z"/><path fill="#d3d8dd" d="M98,109H64c-1.7,0-3-1.3-3-3s1.3-3,3-3h34c1.7,0,3,1.3,3,3S99.7,109,98,109z"/><path fill="#fff" d="M94,4h-4.2c-5,0-9.9,1.8-13.8,5l0,0c-3.9,3.2-8.8,5-13.8,5H58L34,24v76h60V4z"/><path fill="#444b54" d="M109,127H19c-1.7,0-3-1.3-3-3s1.3-3,3-3h90c1.7,0,3,1.3,3,3S110.7,127,109,127z"/><path fill="#444b54" d="M52,91c-5,0-9-4-9-9V34c0-1.7,1.3-3,3-3s3,1.3,3,3v48c0,1.7,1.3,3,3,3s3-1.3,3-3V28c0-1.7,1.3-3,3-3 s3,1.3,3,3v54C61,87,57,91,52,91z"/><path fill="#444b54" d="M76,91c-5,0-9-4-9-9V26c0-1.7,1.3-3,3-3s3,1.3,3,3v56c0,1.7,1.3,3,3,3s3-1.3,3-3V22c0-1.7,1.3-3,3-3 s3,1.3,3,3v60C85,87,81,91,76,91z"/><path fill="#444b54" d="M104,109h-2v-4c0-3.3-2.1-6.2-5-7.4V4c0-1.7-1.3-3-3-3h-4.2c-5.7,0-11.3,2-15.7,5.7c-1.3,1.1-1.4,3-0.4,4.2 c0.6,0.7,1.4,1.1,2.3,1.1c0.7,0,1.4-0.2,1.9-0.7C81.3,8.5,85.5,7,89.8,7H91v90H37V24c0-1.7-1.3-3-3-3s-3,1.3-3,3v73.6 c-2.9,1.2-5,4.1-5,7.4v4h-2c-1.7,0-3,1.3-3,3s1.3,3,3,3h80c1.7,0,3-1.3,3-3S105.7,109,104,109z M32,109v-4c0-1.1,0.9-2,2-2h60 c1.1,0,2,0.9,2,2v4H32z"/><path fill="#d3d8dd" d="M91,97H76.1c-1.5,0-2.8-1-3.1-2.4C72.7,92.7,74.1,91,76,91h0c5,0,9-4,9-9l0-67.9c0-1.5,1-2.8,2.4-3.1 c1.9-0.4,3.6,1.1,3.6,2.9V97z"/><circle cx="46" cy="19" r="3" fill="#444b54"/></svg>