<?xml version="1.0" encoding="utf-8"?>
<!-- Generator: Adobe Illustrator 21.1.0, SVG Export Plug-In . SVG Version: 6.00 Build 0)  -->
<svg xmlns="http://www.w3.org/2000/svg" xmlns:xlink="http://www.w3.org/1999/xlink" version="1.1" id="Layer_1" x="0px" y="0px" viewBox="0 0 128 128" style="enable-background:new 0 0 128 128;" xml:space="preserve" width="64px" height="64px">

<g>
	<g>
		<path d="M64,117c-29.2,0-53-23.8-53-53s23.8-53,53-53s53,23.8,53,53S93.2,117,64,117z M64,17c-25.9,0-47,21.1-47,47    s21.1,47,47,47s47-21.1,47-47S89.9,17,64,17z" style="fill:#444B54;"/>
	</g>
	<g>
		<path d="M76.5,67c-0.6,0-1.3-0.2-1.8-0.6l-20-15c-1.3-1-1.6-2.9-0.6-4.2c1-1.3,2.9-1.6,4.2-0.6l20,15    c1.3,1,1.6,2.9,0.6,4.2C78.3,66.6,77.4,67,76.5,67z" style="fill:#444B54;"/>
	</g>
	<g>
		<path d="M56.5,82c-0.9,0-1.8-0.4-2.4-1.2c-1-1.3-0.7-3.2,0.6-4.2l20-15c1.3-1,3.2-0.7,4.2,0.6c1,1.3,0.7,3.2-0.6,4.2    l-20,15C57.8,81.8,57.1,82,56.5,82z" style="fill:#444B54;"/>
	</g>
</g>
</svg>
