<?xml version="1.0" encoding="UTF-8"?>
<svg xmlns="http://www.w3.org/2000/svg" xmlns:xlink="http://www.w3.org/1999/xlink" width="128pt" height="128pt" viewBox="0 0 128 128" version="1.1">
<g id="surface22117157">
<path style=" stroke:none;fill-rule:nonzero;fill:rgb(100%,100%,100%);fill-opacity:1;" d="M 25.109375 25.109375 C 3.628906 46.589844 3.628906 81.414062 25.109375 102.890625 C 46.589844 124.371094 81.414062 124.371094 102.890625 102.890625 C 124.371094 81.410156 124.367188 46.585938 102.890625 25.109375 C 81.410156 3.628906 46.585938 3.632812 25.109375 25.109375 Z M 25.109375 25.109375 "/>
<path style=" stroke:none;fill-rule:nonzero;fill:rgb(100%,33.333333%,46.27451%);fill-opacity:1;" d="M 35.714844 35.714844 C 20.09375 51.335938 20.09375 76.664062 35.714844 92.285156 C 51.335938 107.90625 76.664062 107.90625 92.285156 92.285156 C 107.90625 76.664062 107.90625 51.335938 92.28125 35.714844 C 76.660156 20.09375 51.335938 20.09375 35.714844 35.714844 Z M 35.714844 35.714844 "/>
<path style=" stroke:none;fill-rule:nonzero;fill:rgb(100%,100%,100%);fill-opacity:1;" d="M 81.101562 53.601562 C 77.199219 49.699219 71 49.699219 67.199219 53.601562 L 64 56.800781 L 60.800781 53.601562 C 56.898438 49.699219 50.699219 49.699219 46.898438 53.601562 C 43 57.5 43 63.699219 46.898438 67.5 L 61.5 82.101562 C 62.898438 83.5 65.199219 83.5 66.601562 82.101562 L 81.199219 67.5 C 85 63.699219 85 57.398438 81.101562 53.601562 Z M 81.101562 53.601562 "/>
<path style=" stroke:none;fill-rule:nonzero;fill:rgb(100%,100%,100%);fill-opacity:1;" d="M 6 64 C 6 49.101562 11.699219 34.300781 23 23 C 34 12 48.5 6 64 6 C 79.5 6 94.101562 12 105 23 C 127.601562 45.601562 127.601562 82.398438 105 105 C 94 116 79.5 122 64 122 C 48.5 122 33.898438 116 23 105 C 11.699219 93.699219 6 78.898438 6 64 Z M 116 64 C 116 50.699219 110.898438 37.398438 100.800781 27.199219 C 90.898438 17.398438 77.898438 12 64 12 C 50.101562 12 37.101562 17.398438 27.199219 27.199219 C 7 47.5 7 80.5 27.199219 100.800781 C 37.101562 110.601562 50.101562 116 64 116 C 77.898438 116 90.898438 110.601562 100.800781 100.800781 C 110.898438 90.601562 116 77.300781 116 64 Z M 116 64 "/>
</g>
</svg>
