<?xml version="1.0" encoding="iso-8859-1"?>
<!-- Generator: Adobe Illustrator 22.1.0, SVG Export Plug-In . SVG Version: 6.00 Build 0)  -->
<svg version="1.1" id="Layer_1" xmlns="http://www.w3.org/2000/svg" xmlns:xlink="http://www.w3.org/1999/xlink" x="0px" y="0px"
	 viewBox="0 0 800 600" style="enable-background:new 0 0 800 600;" xml:space="preserve">
<title>17_404</title>
<rect style="fill:#FFFFFF;" width="800" height="600"/>
<g>
	<rect x="335" y="332" style="fill:#F5F5F5;" width="30" height="80"/>
	<rect x="305" y="332" style="fill:#E0E0E0;" width="30" height="80"/>
	<rect x="365" y="332" style="fill:#E0E0E0;" width="30" height="80"/>
	<rect x="245" y="332" style="fill:#E0E0E0;" width="30" height="80"/>
	<rect x="185" y="332" style="fill:#E0E0E0;" width="30.08" height="80"/>
	<rect x="395" y="332" style="fill:#F5F5F5;" width="30" height="80"/>
	<rect x="425" y="332" style="fill:#E0E0E0;" width="30" height="80"/>
	<rect x="275" y="332" style="fill:#F5F5F5;" width="30" height="80"/>
	<rect x="215" y="332" style="fill:#F5F5F5;" width="30" height="80"/>
	<rect x="155" y="332" style="fill:#F5F5F5;" width="30" height="80"/>
	<rect x="125" y="332" style="fill:#E0E0E0;" width="30.08" height="80"/>
	<rect x="95" y="332" style="fill:#F5F5F5;" width="30" height="80"/>
	<rect x="65" y="332" style="fill:#E0E0E0;" width="30.08" height="80"/>
	<rect x="35" y="332" style="fill:#F5F5F5;" width="30" height="80"/>
	<rect x="5" y="332" style="fill:#E0E0E0;" width="30.08" height="80"/>
</g>
<g>
	<rect x="655" y="332" style="fill:#E0E0E0;" width="30" height="80"/>
	<rect x="595" y="332" style="fill:#E0E0E0;" width="30" height="80"/>
	<rect x="625" y="332" style="fill:#F5F5F5;" width="30" height="80"/>
	<rect x="715" y="332" style="fill:#E0E0E0;" width="30" height="80"/>
	<rect x="775" y="332" style="fill:#E0E0E0;" width="25" height="80"/>
	<rect x="745" y="332" style="fill:#F5F5F5;" width="30" height="80"/>
	<rect x="685" y="332" style="fill:#F5F5F5;" width="30" height="80"/>
</g>
<rect y="292" style="fill:#D7D7D7;" width="460" height="40"/>
<rect x="590" y="292" style="fill:#D7D7D7;" width="210" height="40"/>
<rect style="fill:#ECECEC;" width="800" height="292"/>
<rect x="590" y="407" style="fill:#E0E0E0;" width="210" height="15"/>
<rect y="407" style="fill:#E0E0E0;" width="459" height="15"/>
<rect y="422" style="fill:#FFFFFF;" width="800" height="178"/>
<radialGradient id="SVGID_1_" cx="998.4893" cy="-408.8483" r="238.44" gradientTransform="matrix(1.34 0 0 1.29 -939.19 899.52)" gradientUnits="userSpaceOnUse">
	<stop  offset="0" style="stop-color:#FFFFFF;stop-opacity:0"/>
	<stop  offset="0.26" style="stop-color:#FFFFFF;stop-opacity:0.01"/>
	<stop  offset="0.4" style="stop-color:#FFFFFF;stop-opacity:0.04"/>
	<stop  offset="0.51" style="stop-color:#FFFFFF;stop-opacity:0.09"/>
	<stop  offset="0.6" style="stop-color:#FFFFFF;stop-opacity:0.17"/>
	<stop  offset="0.68" style="stop-color:#FFFFFF;stop-opacity:0.27"/>
	<stop  offset="0.76" style="stop-color:#FFFFFF;stop-opacity:0.39"/>
	<stop  offset="0.83" style="stop-color:#FFFFFF;stop-opacity:0.53"/>
	<stop  offset="0.9" style="stop-color:#FFFFFF;stop-opacity:0.7"/>
	<stop  offset="0.96" style="stop-color:#FFFFFF;stop-opacity:0.88"/>
	<stop  offset="1" style="stop-color:#FFFFFF"/>
</radialGradient>
<rect style="fill:url(#SVGID_1_);" width="800" height="600"/>
<g>
	
		<linearGradient id="SVGID_2_" gradientUnits="userSpaceOnUse" x1="355" y1="1037" x2="355" y2="908" gradientTransform="matrix(1 0 0 -1 0 1100)">
		<stop  offset="0" style="stop-color:#FFFFFF;stop-opacity:0"/>
		<stop  offset="1" style="stop-color:#FFFFFF"/>
	</linearGradient>
	<path style="opacity:0.65;fill:url(#SVGID_2_);enable-background:new    ;" d="M449.8,63H260c0,0,57.15,129,95,129s95-129,95-129
		H449.8z"/>
	<rect x="340" y="202" style="fill:#CFD8DC;" width="30" height="30"/>
	
		<linearGradient id="SVGID_3_" gradientUnits="userSpaceOnUse" x1="355" y1="858" x2="355" y2="678" gradientTransform="matrix(1 0 0 -1 0 1100)">
		<stop  offset="0" style="stop-color:#FFFFFF"/>
		<stop  offset="1" style="stop-color:#FFFFFF;stop-opacity:0"/>
	</linearGradient>
	<path style="opacity:0.8;fill:url(#SVGID_3_);enable-background:new    ;" d="M355,242c-37.59,3-95,180-95,180h190
		C450,422,392.59,245,355,242z"/>
</g>
<g>
	
		<linearGradient id="SVGID_4_" gradientUnits="userSpaceOnUse" x1="195" y1="1037" x2="195" y2="908" gradientTransform="matrix(1 0 0 -1 0 1100)">
		<stop  offset="0" style="stop-color:#FFFFFF;stop-opacity:0"/>
		<stop  offset="1" style="stop-color:#FFFFFF"/>
	</linearGradient>
	<path style="opacity:0.65;fill:url(#SVGID_4_);enable-background:new    ;" d="M289.8,63H100c0,0,57.15,129,95,129s95-129,95-129
		H289.8z"/>
	<rect x="180" y="202" style="fill:#CFD8DC;" width="30" height="30"/>
	
		<linearGradient id="SVGID_5_" gradientUnits="userSpaceOnUse" x1="195" y1="858" x2="195" y2="678" gradientTransform="matrix(1 0 0 -1 0 1100)">
		<stop  offset="0" style="stop-color:#FFFFFF"/>
		<stop  offset="1" style="stop-color:#FFFFFF;stop-opacity:0"/>
	</linearGradient>
	<path style="opacity:0.8;fill:url(#SVGID_5_);enable-background:new    ;" d="M195,242c-37.59,3-95,180-95,180h190
		C290,422,232.59,245,195,242z"/>
</g>
<g>
	<rect x="460" y="171" style="fill:#B0BEC5;" width="130" height="251"/>
	<polyline style="fill:none;stroke:#78909C;stroke-width:15;stroke-miterlimit:10;" points="462.5,422 462.5,174.5 587.5,174.5 
		587.5,422 	"/>
	<path style="fill:#FFFFFF;" d="M536,235.11c0,4.167-0.89,7.357-2.67,9.57c-1.78,2.213-4.383,3.32-7.81,3.32
		c-3.38,0-6-1.09-7.77-3.25s-2.71-5.28-2.75-9.33v-5.55c0-4.22,0.9-7.41,2.7-9.6s4.39-3.27,7.78-3.27s6,1.08,7.77,3.24
		s2.71,5.27,2.75,9.32L536,235.11L536,235.11z M529.83,229.01c0.131-1.884-0.231-3.769-1.05-5.47c-0.7-1.136-1.969-1.794-3.3-1.71
		c-1.287-0.084-2.518,0.541-3.21,1.63c-0.81,1.57-1.189,3.326-1.1,5.09v7.34c-0.126,1.885,0.217,3.771,1,5.49
		c0.672,1.184,1.962,1.879,3.32,1.79c1.327,0.099,2.593-0.569,3.26-1.72c0.763-1.647,1.107-3.458,1-5.27V229L529.83,229.01z"/>
	<path style="fill:#FFFFFF;" d="M558.49,236.12H562V241h-3.46v6.55h-6.06V241h-12.83v-3.79l12.72-20h6.12V236.12z M545.68,236.12
		h6.75v-10.69l-0.39,0.68L545.68,236.12z"/>
	<path style="fill:#FFFFFF;" d="M506,236.12h3.46V241H506v6.55h-6.06V241h-12.82v-3.79l12.73-20H506V236.12L506,236.12z
		 M493.19,236.12h6.75v-10.69l-0.4,0.68L493.19,236.12z"/>
	<rect x="555" y="302" style="fill:#607D8B;" width="15" height="34"/>
	<rect x="546" y="319" style="fill:#78909C;" width="20" height="4"/>
	<rect x="558" y="306" width="9" height="9"/>
</g>
<linearGradient id="SVGID_6_" gradientUnits="userSpaceOnUse" x1="289" y1="-486.37" x2="289" y2="-466.37" gradientTransform="matrix(1 0 0 -1 0 -5.37)">
	<stop  offset="0" style="stop-color:#FFFFFF"/>
	<stop  offset="1" style="stop-color:#E0E0E0"/>
</linearGradient>
<path style="opacity:0.2;fill:url(#SVGID_6_);enable-background:new    ;" d="M393,461L393,461c0,11.046-8.954,20-20,20H205
	c-11.046,0-20-8.954-20-20H393z"/>
<g>
	<path style="fill:#191919;" d="M329.63,300.13L339,301c0,0,1.06,5.63-1.25,8.25s-3.44,3.69-5.75,3.75S326.88,305.25,329.63,300.13z
		"/>
	<path style="fill:#FFCCBC;" d="M339,301c1.588,0.082,3.18-0.002,4.75-0.25c1.86-0.19,3.35-0.75,3.75-0.75c1,0,0.49,1.62-1.5,3
		c-1.077,0.817-2.325,1.381-3.65,1.65c0.529,1.159,1.14,2.279,1.83,3.35c3,3.77,7.55,3.57,6.7,4.5c-1.11,1.18-14.08,4.4-14.08,4.4
		c-2.266-2.089-4.335-4.382-6.18-6.85C328.44,306.87,327,301,327,301H339z"/>
	<path style="fill:#FFAB91;" d="M338.83,314.92c-2,0.23-2.76,1.34-2,2c0.904,0.8,2.098,1.191,3.3,1.08
		c1.677-0.316,3.305-0.854,4.84-1.6c2.165-1.067,4.182-2.412,6-4C350.83,312.43,348.88,313.75,338.83,314.92z"/>
	<path style="fill:#212121;" d="M295,256c2.28,0.841,4.62,1.509,7,2c4,0.48,9.1,1.1,13,5c1.992,2.129,3.5,4.664,4.42,7.43
		c0.88,2.36,2.89,8.19,3.58,10.57c0.9,3.14,5.08,10.08,7,12c3,3,9,8,9,8s-2.12-0.5-5.56,2.81c-3,2.86-3.63,6.19-1.88,9.11
		c0,0-10.56-7.92-12.56-9.92s-7-11-7-11s1,13,2,21s3,10,3,20c0.06,7.825-0.63,15.637-2.06,23.33L299,370h-37l-5-54l-6.36-5.68
		c-1.599-1.599-2.538-3.741-2.63-6c-0.03-0.748,0.03-1.497,0.18-2.23c1.74-8.41,7.06-30.15,7.81-33.13
		c0.49-1.95,5.32-4.39,9.11-6.36c4-2.07,7.89-3.64,7.89-3.64L295,256z"/>
	<path d="M297,449.9v6c0,2.47-0.07,3.79,2.09,4.28c1.61,0.37,6.82,1.64,7.7,1.95c4.85,1.66,9.38,3.75,13.9,3.75
		c2,0,4.19-0.11,5.94-1.25c0,0-0.13-5.13-6.81-6.6c-8.17-2.35-9.62-10.54-9.62-10.54L297,449.9z"/>
	<polygon style="fill:#EEEEEE;" points="274,258 273,270 280,286 292,302.92 296,291 299,278 297,263 286.5,268 	"/>
	<path style="fill:none;stroke:#212121;stroke-width:1.5;stroke-miterlimit:10;" d="M286.11,299.38c0,0,1.89-7.75,1.89-28.38"/>
	<path style="fill:#212121;" d="M314.94,356.33l1.89,42.8c0.14,2.27,0.19,4.53,0.16,6.8L315.63,453c0,0-0.63,3.31-10.41,3.31
		s-10-3.18-10-3.18l-2.81-52.51l-6.19-47.87L296,351L314.94,356.33z"/>
	<polygon style="fill:#191919;" points="267,300.63 265.25,298.25 267.5,287.25 269.25,297.88 	"/>
	<path d="M278,459.51c-0.15,1.86,0.09,2.22-1.28,3.42c-0.75,0.65-3.52,3-4.72,4.11c-1.317,1.496-2.8,2.838-4.42,4
		c-2.814,1.81-6.057,2.845-9.4,3c-0.11-0.702-0.17-1.41-0.18-2.12c0-1.78,0.24-4.25,1.69-5.81c4.29-4.6,6.89-6,8.18-10.15
		c0.779-2.553,1.081-5.228,0.89-7.89h9.07L278,459.51z"/>
	<path style="fill:#191919;" d="M288.24,312L288,298.7l4.07,4.19c0,0-2,36,12.49,54.57c1.52,2,10.44-1.46,10.44-1.46
		s-6.81,7.69-13.51,5.64C292.63,358.94,288.24,312,288.24,312z"/>
	<path style="fill:#212121;" d="M284.88,406.75l-2.22,48.5c0,0,0.34,5.75-12.66,5.75c-7.25,0-8.32-4.25-8.32-4.25l-1.63-53l4-60.5
		l29.77,7.42L284.88,406.75z"/>
	<path style="fill:#5D4037;" d="M279,306l-10,1.33L263,320c0,0-7.67,36.33-8.33,42.67c-0.6,5.66-1.46,23.86-1.64,27.64
		c-0.034,0.43,0.212,0.833,0.61,1L274,400l-2-76l-3-10L279,306z"/>
	<path style="fill:#6D4C41;" d="M265.5,311.5c0,0,4.26,31.15,3.73,46.27c-0.63,18.22,1.11,42.79,1.46,47.45
		c0.041,0.542,0.301,1.044,0.72,1.39c2.324,1.67,5.141,2.511,8,2.39c2.21,0.13,4.422-0.211,6.49-1c0.793-0.327,1.259-1.153,1.13-2
		c-0.56-7-2.9-39-2.9-55c0-18,1.94-37.75,1.94-37.75s-2.4-6.7-8.25-6.7S265.5,311.5,265.5,311.5z"/>
	<path style="fill:#BDBDBD;" d="M290.35,266.94l-1.29-1.29c-0.851-0.849-2.229-0.849-3.08,0l0,0l0,0l-1.29,1.29
		c-0.859,0.862-0.859,2.258,0,3.12l1.29,1.29c0.862,0.859,2.258,0.859,3.12,0l1.29-1.29
		C291.233,269.184,291.215,267.794,290.35,266.94z"/>
	<circle style="fill:#212121;" cx="287.5" cy="268.5" r="1.5"/>
	<path style="fill:#FFFFFF;" d="M275.9,253.1L272,260c0,0-1,5,3,8c5.12,3.84,7,5,7,5c1.919-2.38,3.491-5.019,4.67-7.84
		c-3.318-0.538-6.388-2.089-8.79-4.44C273.64,256.72,275.9,253.1,275.9,253.1z"/>
	<path style="fill:#FFFFFF;" d="M291,258l6,1l-4,12c-2.31,0-4.91-5.92-4.91-5.92c1.17-1.17,0.72-0.87,1.32-2
		C290.18,261.63,291.2,259.62,291,258z"/>
	<path style="fill:#424242;" d="M295.38,256.13c0,0,6.62,5.87,8.62,13.87l-4,3l4,3l-12,26.92c0,0,1.05-3.92,2-21.92c1-19-3-23-3-23
		L295.38,256.13z"/>
	<path style="fill:#FFCCBC;" d="M293,229c1.08,0,1.23,1.85,2,4c0.65,1.82,1.54,2.75,1.66,3.87s0.22,2.14,0.34,3.26s0.38,3,0.63,4.25
		c0.203,1.029,0.327,2.072,0.37,3.12c0.03,1.836-0.04,3.672-0.21,5.5c-0.63,3.25-6.79,5-6.79,5s1.05,7.33-3.95,7.33
		c-1.42,0-9.49,0.31-12.49-7.69C272.2,251.36,272,253,272,253s2-2,2-9s4.93-15,12-15H293z"/>
	<path d="M273,228c2.5-2.5,5-4,11-4c9,0,10,4,10,6c0,1-2,2-2,2c-1.578-0.68-3.282-1.02-5-1c-3.95,0-5,1.25-5,3v3c0,3-1,3-1,5v5h-2
		c0,0,0-5-2.43-5c-1.88,0-2.57,1-2.57,3c0.167,1.826,0.862,3.563,2,5v4c0,5-4.52,6.5-6.48,6.5c-1.602-0.365-2.682-1.865-2.52-3.5
		c0-4,3.51-5.73,4.65-6.71c0.222-0.19,0.35-0.468,0.35-0.76v-1.15c-0.002-0.23-0.083-0.453-0.23-0.63
		c-1.339-1.711-2.211-3.741-2.53-5.89c-0.16-0.945-0.24-1.902-0.24-2.86C269,234,270,231,273,228z"/>
	<path style="fill:#424242;" d="M274.57,258.13L272,260l-3,13l4,3l-2,5c0,0,11,11.59,21,21.92
		C292,302.92,274.24,274.8,274.57,258.13z"/>
	<path style="fill:none;stroke:#000000;stroke-width:1.5;stroke-miterlimit:10;" d="M302.57,290c2.673-0.142,5.308-0.698,7.81-1.65"
		/>
	<path style="fill:none;stroke:#000000;stroke-width:1.5;stroke-miterlimit:10;" d="M304,326.5c3.554-0.132,6.971-1.401,9.75-3.62"
		/>
	<path style="fill:#795548;" d="M279.68,310.59c4.42,6.81,0.75,34.59,3.93,40.34c0,0,10.39-0.61,10.39-3.93
		c-0.059-1.387-0.399-2.748-1-4l1-2C287.48,331.5,290.53,316.09,279.68,310.59z"/>
	<path style="fill:#8D6E63;" d="M299,341.38c-0.56-5.42-4.08-11.9-7-19.8c-2.13-5.8-6.48-13.82-11-18.58c-1.64-1.72-5-4-8-4
		c-2,0-4-1-7-1c-8,0-12.71,6.64-13.66,10.32C248.78,322.15,246,342,246,342s-7,4-7,7s1.86,8.1,4.09,9.61s1.45-0.44,3.58,0.83
		c3.484,1.839,7.393,2.723,11.33,2.56c4.075-0.093,8.115-0.767,12-2l-3-8l4-2.12c0,0-2-21.07-2-34.13c0-4.2,3.63-10.62,9.6-6.34
		c0.438,0.298,0.806,0.687,1.08,1.14c10.85,5.5,6.8,22.91,13.32,32.41C295.47,343,299,342.5,299,341.38z"/>
	<path style="fill:#FFFFFF;" d="M278,314.25V306c2.5,1.63,6.13,1,10,1c-0.83,3.37-1,16-1,16l-6.1-0.36L278,314.25z"/>
	<path style="fill:#FFCCBC;" d="M281,311.93c0.66,0.6,2.81,2.23,2.81,2.23l1.32,1.33c0.753,0.758,1.046,1.858,0.77,2.89l-0.89,3.46
		c-0.257,0.92-0.936,1.663-1.83,2l-2.31,0.91c-0.654,0.261-1.378,0.289-2.05,0.08l-4.94-1.51c0,0-2.88-0.72-2.88-5.24
		s2.6-7.11,5.11-7.11C279.07,311,280.09,311.1,281,311.93z"/>
	<path style="fill:#86665A;" d="M260,305c0,0-3.46,1-6.25,13.41c-2.33,10.37-2.75,27.08-2.75,27.08v3.15
		c-0.092,0.488,0.032,0.991,0.34,1.38l0.81,0.81c0.197,0.193,0.514,0.19,0.707-0.007c0.092-0.094,0.144-0.221,0.143-0.353v-3.59
		c0,0,0.13-17.39,2.25-28.49C257.53,306.46,260,305,260,305z"/>
	<path style="fill:#86665A;" d="M266,303c0,0-5.52,3.57-6.65,17.08c-1.52,18.22-4.38,20.79-3,21.48s3.36,1.26,4.33-4
		c0.73-4,0.42-8,0.87-17.46C261.86,313.29,263.15,307.77,266,303z"/>
</g>
</svg>
