<?xml version="1.0" encoding="UTF-8" standalone="no"?>
<!DOCTYPE svg PUBLIC "-//W3C//DTD SVG 1.1//EN" "http://www.w3.org/Graphics/SVG/1.1/DTD/svg11.dtd">
<svg width="100%" height="100%" viewBox="0 0 598 598" version="1.1" xmlns="http://www.w3.org/2000/svg" xmlns:xlink="http://www.w3.org/1999/xlink" xml:space="preserve" xmlns:serif="http://www.serif.com/" style="fill-rule:evenodd;clip-rule:evenodd;stroke-linejoin:round;stroke-miterlimit:1.41421;">
    <path d="M78.7,0l440.4,0c43.3,0 78.7,35.2 78.7,78.7l0,440.6c0,43.3 -35.2,78.7 -78.7,78.7l-440.4,0c-43.3,0 -78.7,-35.2 -78.7,-78.7l0,-440.8c0,-43.3 35.2,-78.5 78.7,-78.5Z" style="fill:url(#_Linear1);fill-rule:nonzero;"/>
    <path d="M305.8,151.1c-93.2,0 -168.9,75.6 -168.9,169c0,93.4 75.7,168.9 168.9,168.9c93.2,0 168.9,-75.6 168.9,-169c0,-93.4 -75.5,-168.9 -168.9,-168.9Zm0,288c-65.7,0 -119,-53.3 -119,-119c0,-65.7 53.3,-119 119,-119c65.7,0 119,53.3 119,119c0,65.7 -53.2,119 -119,119Zm0,-213.6l0,88.7c0,2.5 2.7,4.4 5.1,3.1l78.7,-40.8c1.8,-0.9 2.4,-3.1 1.5,-4.9c-16.3,-28.7 -46.6,-48.2 -81.6,-49.5c-1.9,-0.1 -3.7,1.4 -3.7,3.4Zm-110.3,-65.2l-10.3,-10.3c-10.2,-10.2 -26.5,-10.2 -36.6,0l-12.3,12.3c-10.2,10.2 -10.2,26.5 0,36.6l10.2,10.2c1.6,1.6 4,1.3 5.4,-0.4c6,-8.2 12.5,-16 19.8,-23.2c7.4,-7.4 15.1,-14 23.4,-20c1.7,-1 1.9,-3.5 0.4,-5.2Zm165.6,-26.8l0,-20.5c0,-14.3 -11.6,-25.9 -25.9,-25.9l-60.4,0c-14.3,0 -25.9,11.6 -25.9,25.9l0,21c0,2.4 2.2,4 4.5,3.4c16.9,-4.9 34.6,-7.4 52.6,-7.4c17.2,0 34.3,2.4 50.8,6.9c2.1,0.6 4.3,-1 4.3,-3.4Z" style="fill:#fff;fill-rule:nonzero;"/>
    <defs>
        <linearGradient id="_Linear1" x1="0" y1="0" x2="1" y2="0" gradientUnits="userSpaceOnUse" gradientTransform="matrix(1004.18,-972.562,972.562,1004.18,-225.636,807.002)"><stop offset="0" style="stop-color:#00aeff;stop-opacity:1"/><stop offset="1" style="stop-color:#3369e7;stop-opacity:1"/></linearGradient>
    </defs>
</svg>
