<?xml version="1.0" encoding="UTF-8"?>
<svg xmlns="http://www.w3.org/2000/svg" xmlns:xlink="http://www.w3.org/1999/xlink" viewBox="0 0 48 48" version="1.1" width="48px" height="48px">
<g id="surface1">
<path style=" fill:#CFD8DC;" d="M 30 13 L 18 13 L 11 24 L 18 35 L 30 35 L 37 24 Z M 24 29 C 21.199219 29 19 26.800781 19 24 C 19 21.199219 21.199219 19 24 19 C 26.800781 19 29 21.199219 29 24 C 29 26.800781 26.800781 29 24 29 Z "/>
<path style=" fill:#2196F3;" d="M 34.800781 7.199219 C 34.300781 6.5 33.5 6 32.601563 6 L 15.398438 6 C 14.5 6 13.699219 6.5 13.199219 7.199219 L 7.398438 16.699219 L 12 24 L 18.300781 14 L 38.898438 14 Z M 16 11 C 15.398438 11 15 10.601563 15 10 C 15 9.398438 15.398438 9 16 9 C 16.601563 9 17 9.398438 17 10 C 17 10.601563 16.601563 11 16 11 Z M 32 11 C 31.398438 11 31 10.601563 31 10 C 31 9.398438 31.398438 9 32 9 C 32.601563 9 33 9.398438 33 10 C 33 10.601563 32.601563 11 32 11 Z "/>
<path style=" fill:#FFC107;" d="M 18.300781 34 L 7.398438 16.800781 L 3.800781 22.699219 C 3.300781 23.5 3.300781 24.601563 3.800781 25.398438 L 13.199219 40.800781 C 13.699219 41.601563 14.5 42 15.398438 42 L 24.5 42 L 29.601563 34 Z M 8 25 C 7.398438 25 7 24.601563 7 24 C 7 23.398438 7.398438 23 8 23 C 8.601563 23 9 23.398438 9 24 C 9 24.601563 8.601563 25 8 25 Z M 16 39 C 15.398438 39 15 38.601563 15 38 C 15 37.398438 15.398438 37 16 37 C 16.601563 37 17 37.398438 17 38 C 17 38.601563 16.601563 39 16 39 Z "/>
<path style=" fill:#1976D2;" d="M 7.398438 16.800781 L 12 24 L 14.398438 20.300781 L 8.5 15 Z "/>
<path style=" fill:#F9A825;" d="M 24.601563 42 L 29.699219 34 L 24.898438 34 L 22.601563 42 Z "/>
<path style=" fill:#DD2C00;" d="M 44.199219 22.699219 L 38.898438 14 L 29.699219 14 L 36 24 L 24.601563 42 L 32.601563 42 C 33.5 42 34.300781 41.5 34.800781 40.800781 L 44.300781 25.398438 C 44.800781 24.5 44.800781 23.5 44.199219 22.699219 Z M 32 39 C 31.398438 39 31 38.601563 31 38 C 31 37.398438 31.398438 37 32 37 C 32.601563 37 33 37.398438 33 38 C 33 38.601563 32.601563 39 32 39 Z M 40 25 C 39.398438 25 39 24.601563 39 24 C 39 23.398438 39.398438 23 40 23 C 40.601563 23 41 23.398438 41 24 C 41 24.601563 40.601563 25 40 25 Z "/>
<path style=" fill:#BF360C;" d="M 38.898438 14 L 29.699219 14 L 32.199219 17.898438 L 40.101563 16 Z "/>
</g>
</svg>
