<?xml version="1.0" encoding="UTF-8"?>
<svg xmlns="http://www.w3.org/2000/svg" xmlns:xlink="http://www.w3.org/1999/xlink" viewBox="0 0 48 48" version="1.1" width="48px" height="48px">
<g id="surface1">
<path style=" fill:#9E9E9E;" d="M 44 27 L 43 18 L 40.101563 19.898438 C 37.398438 18.199219 34 17 30.199219 16.398438 C 30.199219 16.398438 28.300781 16 25.800781 16 C 23.300781 16 21 16.300781 21 16.300781 C 11.300781 17.5 4 23 4 29.601563 C 4 36.398438 11.5 42 23 43 L 23 39.101563 C 15.101563 38 10.101563 34.300781 10.101563 29.601563 C 10.101563 25.199219 14.699219 21.5 21 20.300781 C 21 20.300781 25.898438 19.199219 30.199219 20.5 C 32.300781 21 34.199219 21.699219 35.800781 22.699219 L 32 25 Z "/>
<path style=" " d="M 23 8 L 23 43 L 29 40 L 29 5 Z "/>
<path style=" fill:#FF9800;" d="M 23 8 L 23 43 L 29 40 L 29 5 Z "/>
</g>
</svg>
