<?xml version="1.0" encoding="UTF-8" standalone="no"?>
<!DOCTYPE svg PUBLIC "-//W3C//DTD SVG 1.1//EN" "http://www.w3.org/Graphics/SVG/1.1/DTD/svg11.dtd">
<svg width="100%" height="100%" viewBox="0 0 32 37" version="1.1" xmlns="http://www.w3.org/2000/svg" xmlns:xlink="http://www.w3.org/1999/xlink" xml:space="preserve" xmlns:serif="http://www.serif.com/" style="fill-rule:evenodd;clip-rule:evenodd;stroke-linejoin:round;stroke-miterlimit:1.41421;">
    <g transform="matrix(1,0,0,1,-8.88438,-5.91575)">
        <path d="M20.102,16.199L20.199,18.5L18.602,21.5L16.102,26.398L15.602,30.5L17.398,36.301L21.5,38.602L27.699,38.602L33.5,34.199L36.102,27.301L30.102,20L28.398,15.898L20.102,16.199Z" style="fill:rgb(236,239,241);fill-rule:nonzero;"/>
    </g>
    <g transform="matrix(1,0,0,1,-8.88438,-5.91575)">
        <path d="M34.301,21.898C32.699,19.602 31.398,18.199 30.699,15.301C30,12.398 30.898,13.199 30.301,10.699C30,9.398 29.5,8.5 29,7.801C28.398,7.102 27.699,6.699 27.301,6.602C26.398,6.102 24.301,5.301 21.699,6.699C19,8.102 19.301,11.102 19.801,17.199C19.801,17.602 19.699,18.102 19.5,18.5C19.102,19.398 18.398,20.199 17.801,20.898C17.102,21.898 16.398,22.898 15.898,24C14.699,26.301 13.602,29.199 13.898,30.301C14.398,30.199 20.699,39.801 20.699,40C21.102,39.898 22.801,39.898 24.301,39.898C26.398,39.801 27.602,39.699 29.301,40.102C29.301,39.801 29.199,39.5 29.199,39.199C29.199,38.602 29.301,38.102 29.398,37.398C29.5,36.898 29.602,36.398 29.699,35.801C28.699,36.699 26.898,37.699 25.199,38C23.699,38.301 21.199,37.801 20,36.301C20.102,36.301 20.301,36.301 20.398,36.199C20.699,36.102 21,36 21.102,35.801C21.398,35.301 21.199,34.801 21,34.5C20.801,34.199 19.301,33.102 18.602,32.5C17.898,31.898 17.5,31.602 17.102,31.199C17.102,31.199 16.5,30.602 16.301,30.398C16.102,30.199 16,30 15.898,29.898C15.699,29.398 15.602,28.801 15.699,28C15.801,26.898 16.199,26 16.699,25C16.898,24.602 17.398,23.801 17.398,23.801C17.398,23.801 15.699,28 16.602,29.301C16.602,29.301 16.699,28 17.102,26.699C17.398,25.801 17.898,24.5 18.5,23.801C19.102,23.102 20.602,20.5 20.699,18.898C20.699,18.199 20.801,17.5 20.801,17C20.398,16.602 27.398,15.602 27.801,16.699C27.898,17.102 29.301,20.699 30.102,22.602C30.5,23.5 31,24.301 31.301,25.301C31.602,26.398 31.801,27.898 31.801,29.398C31.801,29.699 31.801,30.199 31.699,30.699C31.898,30.699 35.801,26.5 31.199,23C31.199,23 34,24.301 34.102,26.898C34.199,29 33.301,30.699 33.102,31C33.199,31 35.199,31.898 35.301,31.898C35.699,31.898 36.5,31.602 36.5,31.602C36.602,31.301 36.898,30.5 36.898,30.199C37.602,27.898 35.898,24.199 34.301,21.898Z" style="fill:rgb(103,114,148);fill-rule:nonzero;"/>
    </g>
    <g transform="matrix(1,0,0,1,-8.88438,-5.91575)">
        <path d="M22.898,13.301C22.898,12.195 22.316,11.301 21.602,11.301C20.883,11.301 20.301,12.195 20.301,13.301C20.301,14.406 20.883,15.301 21.602,15.301C22.316,15.301 22.898,14.406 22.898,13.301Z" style="fill:rgb(236,239,241);fill-rule:nonzero;"/>
    </g>
    <g transform="matrix(1,0,0,1,-8.88438,-5.91575)">
        <path d="M27.801,13.199C27.801,11.93 27.039,10.898 26.102,10.898C25.16,10.898 24.398,11.93 24.398,13.199C24.398,14.469 25.16,15.5 26.102,15.5C27.039,15.5 27.801,14.469 27.801,13.199Z" style="fill:rgb(236,239,241);fill-rule:nonzero;"/>
    </g>
    <g transform="matrix(1,0,0,1,-8.88438,-5.91575)">
        <path d="M21.48,12.336C21.098,12.383 20.855,12.953 20.938,13.613C21.02,14.27 21.398,14.762 21.781,14.715C22.164,14.668 22.41,14.094 22.328,13.438C22.242,12.781 21.863,12.285 21.48,12.336Z" style="fill:rgb(103,114,148);fill-rule:nonzero;"/>
    </g>
    <g transform="matrix(1,0,0,1,-8.88438,-5.91575)">
        <path d="M27,13.602C27,12.883 26.551,12.301 26,12.301C25.449,12.301 25,12.883 25,13.602C25,14.316 25.449,14.898 26,14.898C26.551,14.898 27,14.316 27,13.602Z" style="fill:rgb(103,114,148);fill-rule:nonzero;"/>
    </g>
    <g transform="matrix(1,0,0,1,-8.88438,-5.91575)">
        <path d="M39.301,35.602C38.898,35.398 38.199,35.102 37.602,34.199C37.301,33.699 37.398,32.301 36.898,31.699C36.602,31.301 36.199,31.5 36.102,31.5C35.199,31.699 33.102,33.102 31.699,31.5C31.5,31.301 31.199,31 30.699,31C30.199,31 30,31.199 29.801,31.602C29.602,32 29.602,32.301 29.602,33.301C29.602,34.102 29.602,35 29.5,35.699C29.301,37.398 29,38.398 29,39.398C29,40.5 29.301,41.199 29.699,41.5C30,41.801 30.5,42 31.602,42C32.699,42 33.398,41.602 34.102,40.898C34.602,40.398 35,40.199 36.398,39.199C37.5,38.5 39.199,37.602 39.5,37.301C39.699,37.102 40,37 40,36.398C40,35.898 39.602,35.699 39.301,35.602Z" style="fill:rgb(103,114,148);fill-rule:nonzero;"/>
    </g>
    <g transform="matrix(1,0,0,1,-8.88438,-5.91575)">
        <path d="M19.199,35.898C18.199,34.301 18.102,34 17.398,33C16.801,32 15.5,30.102 14.699,30.102C14.102,30.102 13.801,30.398 13.398,30.801C13,31.199 12.602,32.102 11.898,32.602C11.301,33.102 9.602,33 9.199,33.602C8.801,34.199 9.602,35.102 9.602,36.602C9.602,37.199 9.102,37.602 9,38C8.898,38.5 8.801,38.801 9,39.199C9.398,39.801 9.898,40 13.301,40.699C15.102,41.102 16.801,42.102 17.898,42.199C19,42.301 20.898,42.199 20.898,39.5C21,37.898 20.102,37.5 19.199,35.898Z" style="fill:rgb(103,114,148);fill-rule:nonzero;"/>
    </g>
    <g transform="matrix(1,0,0,1,-8.88438,-5.91575)">
        <path d="M21.102,17.801C20.5,17.398 20,17 20,16.398C20,15.801 20.398,15.602 21,15.102C21.102,15 22.199,14 23.301,14C24.398,14 25.699,14.699 26.199,14.898C27.102,15.102 28,15.301 27.898,16C27.801,17 27.699,17.199 26.699,17.699C26,17.898 24.699,19 23.801,19C23.398,19 22.801,19 22.398,18.898C22.102,18.801 21.602,18.301 21.102,17.801Z" style="fill:rgb(103,114,148);fill-rule:nonzero;"/>
    </g>
    <g transform="matrix(1,0,0,1,-8.88438,-5.91575)">
        <path d="M20.898,17C21.102,17.199 21.398,17.398 21.699,17.5C21.898,17.602 22.199,17.699 22.199,17.699C22.602,17.699 22.898,17.699 23.102,17.699C23.602,17.699 24.301,17.5 25,17.102C25.699,16.801 25.801,16.602 26.301,16.398C26.801,16.102 27.301,15.801 27.102,15.699C26.898,15.602 26.699,15.699 26,16.102C25.398,16.5 24.898,16.699 24.301,17C24,17.102 23.602,17.301 23.301,17.301C23,17.301 22.699,17.301 22.398,17.301C22.102,17.301 21.898,17.199 21.602,17.102C21.398,17 21.301,16.898 21.199,16.898C21,16.801 20.602,16.398 20.398,16.301C20.398,16.301 20.199,16.301 20.301,16.398C20.602,16.699 20.699,16.801 20.898,17Z" style="fill:rgb(103,114,148);fill-rule:nonzero;"/>
    </g>
    <g transform="matrix(1,0,0,1,-8.88438,-5.91575)">
        <path d="M23.898,14.801C24,15 24.199,15 24.301,15.102C24.398,15.199 24.5,15.199 24.5,15.199C24.602,15.102 24.5,14.898 24.398,14.898C24.398,14.699 23.898,14.699 23.898,14.801Z" style="fill:rgb(103,114,148);fill-rule:nonzero;"/>
    </g>
    <g transform="matrix(1,0,0,1,-8.88438,-5.91575)">
        <path d="M22.301,15C22.301,15.102 22.5,15.199 22.5,15.102C22.602,15 22.699,14.898 22.801,14.898C23,14.801 22.898,14.699 22.602,14.699C22.398,14.801 22.398,14.898 22.301,15Z" style="fill:rgb(103,114,148);fill-rule:nonzero;"/>
    </g>
    <g transform="matrix(1,0,0,1,-8.88438,-5.91575)">
        <path d="M32,32.699C32,32.801 32,32.898 32,33C32.199,33.398 32.699,33.5 33.102,33.5C33.699,33.5 34.301,33.102 34.602,32.699C34.602,32.602 34.699,32.5 34.801,32.398C35,32.102 35.102,31.898 35.199,31.801C35.199,31.801 35.102,31.699 35.102,31.602C35,31.398 34.699,31.199 34.301,31.102C34,31 33.5,30.898 33.301,30.898C32.398,30.801 31.898,31.102 31.602,31.398C31.602,31.398 31.699,31.398 31.699,31.5C31.898,31.699 32,31.898 32,32.199C32.102,32.398 32,32.5 32,32.699Z" style="fill:rgb(103,114,148);fill-rule:nonzero;"/>
    </g>
</svg>
