<?xml version="1.0" encoding="UTF-8"?>
<svg xmlns="http://www.w3.org/2000/svg" xmlns:xlink="http://www.w3.org/1999/xlink" viewBox="0 0 48 48" version="1.1" width="48px" height="48px">
<g id="surface1">
<path style=" fill:#ECEFF1;" d="M 20.101563 16.199219 L 20.199219 18.5 L 18.601563 21.5 L 16.101563 26.398438 L 15.601563 30.5 L 17.398438 36.300781 L 21.5 38.601563 L 27.699219 38.601563 L 33.5 34.199219 L 36.101563 27.300781 L 30.101563 20 L 28.398438 15.898438 Z "/>
<path style=" fill:#677294;" d="M 34.300781 21.898438 C 32.699219 19.601563 31.398438 18.199219 30.699219 15.300781 C 30 12.398438 30.898438 13.199219 30.300781 10.699219 C 30 9.398438 29.5 8.5 29 7.800781 C 28.398438 7.101563 27.699219 6.699219 27.300781 6.601563 C 26.398438 6.101563 24.300781 5.300781 21.699219 6.699219 C 19 8.101563 19.300781 11.101563 19.800781 17.199219 C 19.800781 17.601563 19.699219 18.101563 19.5 18.5 C 19.101563 19.398438 18.398438 20.199219 17.800781 20.898438 C 17.101563 21.898438 16.398438 22.898438 15.898438 24 C 14.699219 26.300781 13.601563 29.199219 13.898438 30.300781 C 14.398438 30.199219 20.699219 39.800781 20.699219 40 C 21.101563 39.898438 22.800781 39.898438 24.300781 39.898438 C 26.398438 39.800781 27.601563 39.699219 29.300781 40.101563 C 29.300781 39.800781 29.199219 39.5 29.199219 39.199219 C 29.199219 38.601563 29.300781 38.101563 29.398438 37.398438 C 29.5 36.898438 29.601563 36.398438 29.699219 35.800781 C 28.699219 36.699219 26.898438 37.699219 25.199219 38 C 23.699219 38.300781 21.199219 37.800781 20 36.300781 C 20.101563 36.300781 20.300781 36.300781 20.398438 36.199219 C 20.699219 36.101563 21 36 21.101563 35.800781 C 21.398438 35.300781 21.199219 34.800781 21 34.5 C 20.800781 34.199219 19.300781 33.101563 18.601563 32.5 C 17.898438 31.898438 17.5 31.601563 17.101563 31.199219 C 17.101563 31.199219 16.5 30.601563 16.300781 30.398438 C 16.101563 30.199219 16 30 15.898438 29.898438 C 15.699219 29.398438 15.601563 28.800781 15.699219 28 C 15.800781 26.898438 16.199219 26 16.699219 25 C 16.898438 24.601563 17.398438 23.800781 17.398438 23.800781 C 17.398438 23.800781 15.699219 28 16.601563 29.300781 C 16.601563 29.300781 16.699219 28 17.101563 26.699219 C 17.398438 25.800781 17.898438 24.5 18.5 23.800781 C 19.101563 23.101563 20.601563 20.5 20.699219 18.898438 C 20.699219 18.199219 20.800781 17.5 20.800781 17 C 20.398438 16.601563 27.398438 15.601563 27.800781 16.699219 C 27.898438 17.101563 29.300781 20.699219 30.101563 22.601563 C 30.5 23.5 31 24.300781 31.300781 25.300781 C 31.601563 26.398438 31.800781 27.898438 31.800781 29.398438 C 31.800781 29.699219 31.800781 30.199219 31.699219 30.699219 C 31.898438 30.699219 35.800781 26.5 31.199219 23 C 31.199219 23 34 24.300781 34.101563 26.898438 C 34.199219 29 33.300781 30.699219 33.101563 31 C 33.199219 31 35.199219 31.898438 35.300781 31.898438 C 35.699219 31.898438 36.5 31.601563 36.5 31.601563 C 36.601563 31.300781 36.898438 30.5 36.898438 30.199219 C 37.601563 27.898438 35.898438 24.199219 34.300781 21.898438 Z "/>
<path style=" fill:#ECEFF1;" d="M 22.898438 13.300781 C 22.898438 12.195313 22.316406 11.300781 21.601563 11.300781 C 20.882813 11.300781 20.300781 12.195313 20.300781 13.300781 C 20.300781 14.40625 20.882813 15.300781 21.601563 15.300781 C 22.316406 15.300781 22.898438 14.40625 22.898438 13.300781 Z "/>
<path style=" fill:#ECEFF1;" d="M 27.800781 13.199219 C 27.800781 11.929688 27.039063 10.898438 26.101563 10.898438 C 25.160156 10.898438 24.398438 11.929688 24.398438 13.199219 C 24.398438 14.46875 25.160156 15.5 26.101563 15.5 C 27.039063 15.5 27.800781 14.46875 27.800781 13.199219 Z "/>
<path style=" fill:#677294;" d="M 21.480469 12.335938 C 21.097656 12.382813 20.855469 12.953125 20.9375 13.613281 C 21.019531 14.269531 21.398438 14.761719 21.78125 14.714844 C 22.164063 14.667969 22.410156 14.09375 22.328125 13.4375 C 22.242188 12.78125 21.863281 12.285156 21.480469 12.335938 Z "/>
<path style=" fill:#677294;" d="M 27 13.601563 C 27 12.882813 26.550781 12.300781 26 12.300781 C 25.449219 12.300781 25 12.882813 25 13.601563 C 25 14.316406 25.449219 14.898438 26 14.898438 C 26.550781 14.898438 27 14.316406 27 13.601563 Z "/>
<path style=" fill:#677294;" d="M 39.300781 35.601563 C 38.898438 35.398438 38.199219 35.101563 37.601563 34.199219 C 37.300781 33.699219 37.398438 32.300781 36.898438 31.699219 C 36.601563 31.300781 36.199219 31.5 36.101563 31.5 C 35.199219 31.699219 33.101563 33.101563 31.699219 31.5 C 31.5 31.300781 31.199219 31 30.699219 31 C 30.199219 31 30 31.199219 29.800781 31.601563 C 29.601563 32 29.601563 32.300781 29.601563 33.300781 C 29.601563 34.101563 29.601563 35 29.5 35.699219 C 29.300781 37.398438 29 38.398438 29 39.398438 C 29 40.5 29.300781 41.199219 29.699219 41.5 C 30 41.800781 30.5 42 31.601563 42 C 32.699219 42 33.398438 41.601563 34.101563 40.898438 C 34.601563 40.398438 35 40.199219 36.398438 39.199219 C 37.5 38.5 39.199219 37.601563 39.5 37.300781 C 39.699219 37.101563 40 37 40 36.398438 C 40 35.898438 39.601563 35.699219 39.300781 35.601563 Z "/>
<path style=" fill:#677294;" d="M 19.199219 35.898438 C 18.199219 34.300781 18.101563 34 17.398438 33 C 16.800781 32 15.5 30.101563 14.699219 30.101563 C 14.101563 30.101563 13.800781 30.398438 13.398438 30.800781 C 13 31.199219 12.601563 32.101563 11.898438 32.601563 C 11.300781 33.101563 9.601563 33 9.199219 33.601563 C 8.800781 34.199219 9.601563 35.101563 9.601563 36.601563 C 9.601563 37.199219 9.101563 37.601563 9 38 C 8.898438 38.5 8.800781 38.800781 9 39.199219 C 9.398438 39.800781 9.898438 40 13.300781 40.699219 C 15.101563 41.101563 16.800781 42.101563 17.898438 42.199219 C 19 42.300781 20.898438 42.199219 20.898438 39.5 C 21 37.898438 20.101563 37.5 19.199219 35.898438 Z "/>
<path style=" fill:#677294;" d="M 21.101563 17.800781 C 20.5 17.398438 20 17 20 16.398438 C 20 15.800781 20.398438 15.601563 21 15.101563 C 21.101563 15 22.199219 14 23.300781 14 C 24.398438 14 25.699219 14.699219 26.199219 14.898438 C 27.101563 15.101563 28 15.300781 27.898438 16 C 27.800781 17 27.699219 17.199219 26.699219 17.699219 C 26 17.898438 24.699219 19 23.800781 19 C 23.398438 19 22.800781 19 22.398438 18.898438 C 22.101563 18.800781 21.601563 18.300781 21.101563 17.800781 Z "/>
<path style=" fill:#677294;" d="M 20.898438 17 C 21.101563 17.199219 21.398438 17.398438 21.699219 17.5 C 21.898438 17.601563 22.199219 17.699219 22.199219 17.699219 C 22.601563 17.699219 22.898438 17.699219 23.101563 17.699219 C 23.601563 17.699219 24.300781 17.5 25 17.101563 C 25.699219 16.800781 25.800781 16.601563 26.300781 16.398438 C 26.800781 16.101563 27.300781 15.800781 27.101563 15.699219 C 26.898438 15.601563 26.699219 15.699219 26 16.101563 C 25.398438 16.5 24.898438 16.699219 24.300781 17 C 24 17.101563 23.601563 17.300781 23.300781 17.300781 C 23 17.300781 22.699219 17.300781 22.398438 17.300781 C 22.101563 17.300781 21.898438 17.199219 21.601563 17.101563 C 21.398438 17 21.300781 16.898438 21.199219 16.898438 C 21 16.800781 20.601563 16.398438 20.398438 16.300781 C 20.398438 16.300781 20.199219 16.300781 20.300781 16.398438 C 20.601563 16.699219 20.699219 16.800781 20.898438 17 Z "/>
<path style=" fill:#677294;" d="M 23.898438 14.800781 C 24 15 24.199219 15 24.300781 15.101563 C 24.398438 15.199219 24.5 15.199219 24.5 15.199219 C 24.601563 15.101563 24.5 14.898438 24.398438 14.898438 C 24.398438 14.699219 23.898438 14.699219 23.898438 14.800781 Z "/>
<path style=" fill:#677294;" d="M 22.300781 15 C 22.300781 15.101563 22.5 15.199219 22.5 15.101563 C 22.601563 15 22.699219 14.898438 22.800781 14.898438 C 23 14.800781 22.898438 14.699219 22.601563 14.699219 C 22.398438 14.800781 22.398438 14.898438 22.300781 15 Z "/>
<path style=" fill:#677294;" d="M 32 32.699219 C 32 32.800781 32 32.898438 32 33 C 32.199219 33.398438 32.699219 33.5 33.101563 33.5 C 33.699219 33.5 34.300781 33.101563 34.601563 32.699219 C 34.601563 32.601563 34.699219 32.5 34.800781 32.398438 C 35 32.101563 35.101563 31.898438 35.199219 31.800781 C 35.199219 31.800781 35.101563 31.699219 35.101563 31.601563 C 35 31.398438 34.699219 31.199219 34.300781 31.101563 C 34 31 33.5 30.898438 33.300781 30.898438 C 32.398438 30.800781 31.898438 31.101563 31.601563 31.398438 C 31.601563 31.398438 31.699219 31.398438 31.699219 31.5 C 31.898438 31.699219 32 31.898438 32 32.199219 C 32.101563 32.398438 32 32.5 32 32.699219 Z "/>
</g>
</svg>
