<?xml version="1.0"?>
<svg xmlns="http://www.w3.org/2000/svg" xmlns:xlink="http://www.w3.org/1999/xlink" version="1.1" viewBox="0 0 192 192" width="100px" height="100px"><g fill="none" fill-rule="nonzero" stroke="none" stroke-width="1" stroke-linecap="butt" stroke-linejoin="miter" stroke-miterlimit="10" stroke-dasharray="" stroke-dashoffset="0" font-family="none" font-weight="none" font-size="none" text-anchor="none" style="mix-blend-mode: normal"><path d="M0,192v-192h192v192z" fill="none"/><g fill="#ffffff"><path d="M49.2375,40.0725c-3.0528,-0.0288 -5.96187,1.18089 -8.14875,3.35625c-2.1888,2.17344 -3.39915,5.06193 -3.40875,8.12625v0.25875c-2.97024,0.22656 -5.325,2.68716 -5.325,5.715c0,3.01632 2.34012,5.46933 5.295,5.71125c0.02688,6.31296 5.15619,11.45205 11.47875,11.47125l92.02875,0.29625h0.0375c3.0528,0 5.93205,-1.19424 8.11125,-3.36c2.1888,-2.17344 3.39732,-5.05818 3.405,-8.1225l0.01875,-5.2725c3.50976,2.09472 5.79375,6.10482 5.79375,10.4325c0,6.59136 -5.03019,11.95125 -11.20875,11.95125h-26.41875c-0.86208,-0.00384 -21.09828,-0.13107 -24.585,0.10125c-10.28928,0.68928 -12.0048,7.96659 -12.12,15.25875h-3.15375c-0.4512,0 -0.8919,0.16383 -1.2375,0.45375c-0.01152,0.0096 -1.17921,0.98061 -2.54625,1.54125c-0.72,0.29568 -1.1925,0.9999 -1.1925,1.7775v5.3325c0,0.6048 0.28674,1.17837 0.7725,1.54125l3.8175,2.85l-2.21625,2.54625c-0.30528,0.34944 -0.4725,0.79728 -0.4725,1.26v42.22125c0,1.05984 0.86016,1.92 1.92,1.92h15.19875c1.05984,0 1.92,-0.86016 1.92,-1.92v-42.2175c0,-0.32448 -0.08256,-0.64584 -0.24,-0.93l-1.5675,-2.8275l3.13125,-3.0675c0.36864,-0.36096 0.5775,-0.85794 0.5775,-1.3725v-5.3325c0,-0.32448 -0.08256,-0.64584 -0.24,-0.93c-0.4992,-0.9024 -1.70406,-1.96836 -2.1975,-2.385c-0.34752,-0.29568 -0.78438,-0.4575 -1.2375,-0.4575h-9.11625c0.1728,-9.08928 3.11214,-12.86058 10.3275,-13.3425c3.41952,-0.22848 24.23496,-0.0975 24.45,-0.0975h26.42625c7.2384,0 13.125,-6.2238 13.125,-13.875c-0.00192,-5.47008 -3.01386,-10.32507 -7.7025,-12.58875l0.01125,-4.17c0.02112,-6.35328 -5.13114,-11.53638 -11.4825,-11.5575zM49.19625,43.9125h0.02625l92.0325,0.29625c4.23552,0.01344 7.66719,3.4689 7.65375,7.7025l-0.0375,11.6025c-0.01344,4.22784 -3.456,7.6575 -7.68,7.6575h-0.02625l-92.02875,-0.29625c-2.04096,-0.00576 -3.9654,-0.81513 -5.415,-2.27625c-1.45152,-1.46112 -2.24451,-3.38904 -2.23875,-5.43l0.02625,-8.40375c0.02496,0.5088 0.43419,0.915 0.94875,0.915h80.64c0.52992,0 0.96,-0.43008 0.96,-0.96c0,-0.52992 -0.43008,-0.96 -0.96,-0.96h-80.64c-0.51456,0 -0.92187,0.40437 -0.94875,0.91125l0.0075,-3.10125c0.00576,-2.04096 0.81513,-3.96723 2.27625,-5.41875c1.45536,-1.44384 3.37239,-2.23875 5.40375,-2.23875zM37.6575,53.71875v4.21875l-0.01125,3.40125c-1.89888,-0.22848 -3.37125,-1.84785 -3.37125,-3.80625c0,-1.96224 1.47786,-3.58911 3.3825,-3.81375zM126.9375,53.76c-0.52992,0 -0.96,0.43008 -0.96,0.96c0,0.52992 0.43008,0.96 0.96,0.96h7.68c0.52992,0 0.96,-0.43008 0.96,-0.96c0,-0.52992 -0.42816,-0.96 -0.96,-0.96zM140.3775,53.76c-0.52992,0 -0.96,0.43008 -0.96,0.96c0,0.52992 0.43008,0.96 0.96,0.96h1.92c0.52992,0 0.96,-0.43008 0.96,-0.96c0,-0.52992 -0.42816,-0.96 -0.96,-0.96zM81.69,99.84h12.8025c0.21696,0.2016 0.41649,0.4068 0.56625,0.57v3.88875l-3.59625,3.525c-0.61632,0.6048 -0.75606,1.54602 -0.3375,2.3025l2.03625,3.67125v39.8025h-11.3625v-5.76h8.65875c0.52992,0 0.96,-0.43008 0.96,-0.96c0,-0.52992 -0.43008,-0.96 -0.96,-0.96h-8.65875v-31.8975l3.105,-3.56625c0.35136,-0.4032 0.51885,-0.93066 0.46125,-1.4625c-0.05568,-0.53184 -0.33309,-1.01628 -0.76125,-1.335l-4.70625,-3.5175v-3.16125c0.74112,-0.40128 1.3701,-0.82896 1.7925,-1.14z"/></g></g></svg>
