<?xml version="1.0"?>
<svg xmlns="http://www.w3.org/2000/svg" xmlns:xlink="http://www.w3.org/1999/xlink" version="1.1" viewBox="0 0 192 192" width="50px" height="50px"><g fill="none" fill-rule="nonzero" stroke="none" stroke-width="1" stroke-linecap="butt" stroke-linejoin="miter" stroke-miterlimit="10" stroke-dasharray="" stroke-dashoffset="0" font-family="none" font-weight="none" font-size="none" text-anchor="none" style="mix-blend-mode: normal"><path d="M0,192v-192h192v192z" fill="none"/><g fill="#ffffff"><g id="surface1"><path d="M76.08,0c-1.245,0.21 -2.31,1.035 -2.835,2.19c-0.525,1.14 -0.45,2.49 0.195,3.57c5.88,10.605 7.455,19.62 7.08,26.28c-0.375,6.66 -3.09,10.845 -4.32,11.64c-0.885,0.57 -1.17,0.525 -2.16,0.36c-0.99,-0.165 -2.505,-0.735 -4.44,-1.44c-3.855,-1.425 -9.855,-2.88 -16.56,0.48c-1.035,0.525 -1.785,1.5 -2.01,2.655c-0.24,1.14 0.06,2.325 0.81,3.225c1.23,1.44 2.67,4.515 3.36,7.56c0.69,3.045 0.6,6.09 -0.12,7.68c-1.32,2.91 -11.28,8.73 -11.28,25.2c0,5.61 0.825,11.475 4.44,18.12h-36.72c-6.315,0 -11.52,5.205 -11.52,11.52v23.04c0,2.94 1.155,5.64 3,7.68c-1.845,2.04 -3,4.74 -3,7.68v23.04c0,6.315 5.205,11.52 11.52,11.52h107.52c2.94,0 5.64,-1.155 7.68,-3c2.04,1.845 4.74,3 7.68,3h46.08c6.315,0 11.52,-5.205 11.52,-11.52v-23.04c0,-2.94 -1.155,-5.64 -3,-7.68c1.845,-2.04 3,-4.74 3,-7.68v-23.04c0,-6.315 -5.205,-11.52 -11.52,-11.52h-31.8c2.475,-10.995 -0.81,-19.305 -5.04,-25.08c-2.43,-3.33 -5.085,-5.925 -6.84,-8.16c-1.755,-2.235 -2.43,-3.81 -2.4,-5.04c0.12,-4.725 3.705,-12.165 4.08,-20.28c0.195,-4.05 -0.69,-8.49 -3.6,-12.36c-2.91,-3.87 -7.59,-7.005 -14.52,-9.48c-1.275,-0.495 -2.73,-0.255 -3.795,0.615c-1.065,0.855 -1.59,2.235 -1.365,3.585c0.72,4.83 0.6,9.285 -0.24,11.76c-0.42,1.245 -0.96,1.89 -1.32,2.16c-0.36,0.27 -0.645,0.39 -1.68,0.24c-2.25,-0.315 -1.8,-0.375 -1.92,-0.72c-0.12,-0.345 -0.165,-2.145 0.24,-4.68c0.825,-5.085 2.58,-13.11 -1.56,-21.48c-6.345,-12.795 -20.28,-18.6 -31.92,-18.6c-0.12,0 -0.24,0 -0.36,0c-0.12,0 -0.24,0 -0.36,0zM83.04,9.24c7.485,1.665 15.165,5.445 18.84,12.84c2.895,5.865 1.71,11.37 0.84,16.8c-0.435,2.715 -1.065,5.37 0,8.4c1.065,3.03 4.38,5.34 8.16,5.88c2.64,0.375 5.325,-0.315 7.32,-1.8c1.995,-1.485 3.21,-3.525 3.96,-5.76c0.885,-2.595 1.11,-5.58 1.08,-8.64c2.505,1.425 4.455,2.79 5.52,4.2c1.725,2.28 2.175,4.59 2.04,7.44c-0.27,5.7 -3.9,12.825 -4.08,20.4c-0.09,4.005 1.95,7.23 4.08,9.96c2.13,2.73 4.56,5.265 6.6,8.04c3.765,5.13 6.42,10.665 3.48,20.52h-18.36c1.185,-4.5 1.47,-9 0.36,-13.2c-1.545,-5.88 -5.64,-10.965 -11.76,-14.76c-1.365,-0.825 -3.105,-0.705 -4.35,0.27c-1.245,0.99 -1.77,2.655 -1.29,4.17c0.96,2.955 0.585,5.79 -0.24,7.56c-0.825,1.77 -1.725,2.52 -3.48,2.52c-0.69,0 -1.365,-0.585 -2.04,-2.28c-0.675,-1.695 -0.54,-4.095 -0.24,-4.68c4.89,-9.6 5.805,-16.8 4.2,-22.44c-1.605,-5.64 -5.565,-8.955 -8.52,-11.28c-0.81,-0.66 -1.845,-0.96 -2.88,-0.84c-1.05,0.15 -1.995,0.72 -2.61,1.575c-0.615,0.87 -0.84,1.95 -0.63,2.985c0.9,4.35 0.39,7.275 -0.84,9.96c-1.23,2.685 -3.36,5.145 -5.88,7.92c-5.04,5.535 -11.76,12.585 -11.76,24.36c0,1.02 0.06,4.26 1.2,8.28c-2.46,0.27 -4.725,1.29 -6.48,2.88c-2.04,-1.845 -4.74,-3 -7.68,-3h-0.24c-5.295,-7.335 -5.88,-11.94 -5.88,-18.12c0,-13.59 6.975,-14.175 10.56,-22.08c1.8,-4.005 1.665,-8.475 0.72,-12.6c-0.495,-2.19 -1.71,-3.84 -2.64,-5.76c2.4,-0.36 4.515,-0.015 6.84,0.84c1.71,0.63 3.48,1.425 5.76,1.8c2.28,0.375 5.22,0.03 7.68,-1.56c4.71,-3.045 7.32,-9.21 7.8,-17.52c0.375,-6.48 -1.545,-14.61 -5.16,-23.28zM96.12,66.6c0.03,0.09 0.09,0.15 0.12,0.24c0.915,3.225 0.78,8.205 -3.6,16.8c-0.045,0 -0.075,0 -0.12,0c-1.785,3.54 -1.395,7.425 0,10.92c1.395,3.495 4.575,7.2 9.24,7.2c4.725,0 8.625,-3.09 10.44,-6.96c0.48,-1.02 0.585,-2.235 0.84,-3.36c1.11,1.545 1.95,3.21 2.4,4.92c0.855,3.255 0.51,6.99 -0.96,11.16h-34.56c-1.59,-3.945 -1.68,-6.915 -1.68,-8.16c0,-9 4.53,-13.5 9.72,-19.2c2.595,-2.85 5.37,-5.955 7.2,-9.96c0.495,-1.095 0.645,-2.37 0.96,-3.6zM11.52,115.2h46.08c2.175,0 3.84,1.665 3.84,3.84v23.04c0,2.175 -1.665,3.84 -3.84,3.84h-46.08c-2.175,0 -3.84,-1.665 -3.84,-3.84v-23.04c0,-2.175 1.665,-3.84 3.84,-3.84zM72.96,115.2h69.6c0.735,0.225 1.545,0.225 2.28,0h35.64c2.175,0 3.84,1.665 3.84,3.84v23.04c0,2.175 -1.665,3.84 -3.84,3.84h-107.52c-2.175,0 -3.84,-1.665 -3.84,-3.84v-23.04c0,-2.175 1.665,-3.84 3.84,-3.84zM11.52,153.6h107.52c2.175,0 3.84,1.665 3.84,3.84v23.04c0,2.175 -1.665,3.84 -3.84,3.84h-107.52c-2.175,0 -3.84,-1.665 -3.84,-3.84v-23.04c0,-2.175 1.665,-3.84 3.84,-3.84zM134.4,153.6h46.08c2.175,0 3.84,1.665 3.84,3.84v23.04c0,2.175 -1.665,3.84 -3.84,3.84h-46.08c-2.175,0 -3.84,-1.665 -3.84,-3.84v-23.04c0,-2.175 1.665,-3.84 3.84,-3.84z"/></g></g></g></svg>
