<?xml version="1.0"?>
<svg xmlns="http://www.w3.org/2000/svg" xmlns:xlink="http://www.w3.org/1999/xlink" version="1.1" viewBox="0 0 192 192" width="50px" height="50px"><g fill="none" fill-rule="nonzero" stroke="none" stroke-width="1" stroke-linecap="butt" stroke-linejoin="miter" stroke-miterlimit="10" stroke-dasharray="" stroke-dashoffset="0" font-family="none" font-weight="none" font-size="none" text-anchor="none" style="mix-blend-mode: normal"><path d="M0,192v-192h192v192z" fill="none"/><g fill="#ffffff"><g id="surface1"><path d="M96,15.36c-23.28,0 -42.24,18.96 -42.24,42.24v22.44c-9.495,10.275 -15.36,23.94 -15.36,39c0,31.77 25.83,57.6 57.6,57.6c31.77,0 57.6,-25.83 57.6,-57.6c0,-15.06 -5.865,-28.725 -15.36,-39v-22.44c0,-23.28 -18.96,-42.24 -42.24,-42.24zM96,23.04c19.14,0 34.56,15.42 34.56,34.56v15.48c-9.645,-7.275 -21.585,-11.64 -34.56,-11.64c-12.975,0 -24.915,4.365 -34.56,11.64v-15.48c0,-19.14 15.42,-34.56 34.56,-34.56zM96,69.12c27.615,0 49.92,22.305 49.92,49.92c0,27.615 -22.305,49.92 -49.92,49.92c-27.615,0 -49.92,-22.305 -49.92,-49.92c0,-27.615 22.305,-49.92 49.92,-49.92zM96,107.52c-6.36,0 -11.52,5.16 -11.52,11.52c0,4.995 3.225,9.21 7.68,10.8v8.4c0,2.115 1.725,3.84 3.84,3.84c2.115,0 3.84,-1.725 3.84,-3.84v-8.4c4.455,-1.59 7.68,-5.805 7.68,-10.8c0,-6.36 -5.16,-11.52 -11.52,-11.52z"/></g></g></g></svg>
