<?xml version="1.0"?>
<svg xmlns="http://www.w3.org/2000/svg" xmlns:xlink="http://www.w3.org/1999/xlink" version="1.1" viewBox="0 0 192 192" width="50px" height="50px"><g fill="none" fill-rule="nonzero" stroke="none" stroke-width="1" stroke-linecap="butt" stroke-linejoin="miter" stroke-miterlimit="10" stroke-dasharray="" stroke-dashoffset="0" font-family="none" font-weight="none" font-size="none" text-anchor="none" style="mix-blend-mode: normal"><path d="M0,192v-192h192v192z" fill="none"/><g fill="#ffffff"><path d="M49.92,3.84c-2.11968,0 -3.84,1.72032 -3.84,3.84v11.52h7.68v-11.52c0,-2.11968 -1.72032,-3.84 -3.84,-3.84zM80.64,3.84c-2.11968,0 -3.84,1.72032 -3.84,3.84v11.52h7.68v-11.52c0,-2.11968 -1.72032,-3.84 -3.84,-3.84zM111.36,3.84c-2.11968,0 -3.84,1.72032 -3.84,3.84v11.52h7.68v-11.52c0,-2.11968 -1.72032,-3.84 -3.84,-3.84zM142.08,3.84c-2.11968,0 -3.84,1.72032 -3.84,3.84v11.52h7.68v-11.52c0,-2.11968 -1.72032,-3.84 -3.84,-3.84zM34.56,23.04c-6.31668,0 -11.52,5.20332 -11.52,11.52v122.88c0,6.31668 5.20332,11.52 11.52,11.52h122.88c6.31668,0 11.52,-5.20332 11.52,-11.52v-122.88c0,-6.31668 -5.20332,-11.52 -11.52,-11.52zM34.56,30.72h122.88c2.16972,0 3.84,1.67028 3.84,3.84v122.88c0,2.16972 -1.67028,3.84 -3.84,3.84h-122.88c-2.16972,0 -3.84,-1.67028 -3.84,-3.84v-122.88c0,-2.16972 1.67028,-3.84 3.84,-3.84zM49.92,42.24c-4.24155,0 -7.68,3.43845 -7.68,7.68c0,4.24155 3.43845,7.68 7.68,7.68c4.24155,0 7.68,-3.43845 7.68,-7.68c0,-4.24155 -3.43845,-7.68 -7.68,-7.68zM7.68,46.08c-2.11968,0 -3.84,1.72032 -3.84,3.84c0,2.11968 1.72032,3.84 3.84,3.84h11.52v-7.68zM172.8,46.08v7.68h11.52c2.12352,0 3.84,-1.72032 3.84,-3.84c0,-2.11968 -1.71648,-3.84 -3.84,-3.84zM7.68,76.8c-2.11968,0 -3.84,1.72032 -3.84,3.84c0,2.11968 1.72032,3.84 3.84,3.84h11.52v-7.68zM172.8,76.8v7.68h11.52c2.12352,0 3.84,-1.72032 3.84,-3.84c0,-2.11968 -1.71648,-3.84 -3.84,-3.84zM7.68,107.52c-2.11968,0 -3.84,1.72032 -3.84,3.84c0,2.11968 1.72032,3.84 3.84,3.84h11.52v-7.68zM172.8,107.52v7.68h11.52c2.12352,0 3.84,-1.72032 3.84,-3.84c0,-2.11968 -1.71648,-3.84 -3.84,-3.84zM142.08,134.4c-4.24155,0 -7.68,3.43845 -7.68,7.68c0,4.24155 3.43845,7.68 7.68,7.68c4.24155,0 7.68,-3.43845 7.68,-7.68c0,-4.24155 -3.43845,-7.68 -7.68,-7.68zM7.68,138.24c-2.11968,0 -3.84,1.72032 -3.84,3.84c0,2.11968 1.72032,3.84 3.84,3.84h11.52v-7.68zM172.8,138.24v7.68h11.52c2.12352,0 3.84,-1.72032 3.84,-3.84c0,-2.11968 -1.71648,-3.84 -3.84,-3.84zM46.08,172.8v11.52c0,2.12352 1.71648,3.84 3.84,3.84c2.12352,0 3.84,-1.71648 3.84,-3.84v-11.52zM76.8,172.8v11.52c0,2.12352 1.71648,3.84 3.84,3.84c2.12352,0 3.84,-1.71648 3.84,-3.84v-11.52zM107.52,172.8v11.52c0,2.12352 1.71648,3.84 3.84,3.84c2.12352,0 3.84,-1.71648 3.84,-3.84v-11.52zM138.24,172.8v11.52c0,2.12352 1.71648,3.84 3.84,3.84c2.12352,0 3.84,-1.71648 3.84,-3.84v-11.52z"/></g></g></svg>
