<?xml version="1.0"?>
<svg xmlns="http://www.w3.org/2000/svg" xmlns:xlink="http://www.w3.org/1999/xlink" version="1.1" viewBox="0 0 192 192" width="50px" height="50px"><g fill="none" fill-rule="nonzero" stroke="none" stroke-width="1" stroke-linecap="butt" stroke-linejoin="miter" stroke-miterlimit="10" stroke-dasharray="" stroke-dashoffset="0" font-family="none" font-weight="none" font-size="none" text-anchor="none" style="mix-blend-mode: normal"><path d="M0,192v-192h192v192z" fill="none"/><g fill="#ffffff"><path d="M95.94,15.3075c-0.21903,0.00385 -0.43732,0.02643 -0.6525,0.0675c-15.54839,0.12372 -30.13204,4.27939 -42.78,11.46c-0.48021,0.16147 -0.92373,0.41637 -1.305,0.75c-12.88866,7.61073 -23.67136,18.39878 -31.2825,31.2825c-0.34513,0.38818 -0.60793,0.84234 -0.7725,1.335c-7.1727,12.6404 -11.32235,27.20832 -11.4525,42.7275c-0.09869,0.50827 -0.09359,1.03125 0.015,1.5375c0.16982,19.2022 6.46511,36.98238 17.0475,51.405c1.25507,1.7107 3.6593,2.08007 5.37,0.825c1.7107,-1.25507 2.08007,-3.6593 0.825,-5.37c-0.89535,-1.22026 -1.72292,-2.49442 -2.55,-3.765l6.72,-3.945c1.49915,-0.85249 2.24617,-2.59977 1.82667,-4.27255c-0.41951,-1.67278 -1.90265,-2.86078 -3.62667,-2.90495c-0.73629,-0.01949 -1.46265,0.17317 -2.0925,0.555l-6.735,3.96c-5.26871,-10.07544 -8.41124,-21.41016 -8.9775,-33.435h7.5225c1.38484,0.01959 2.67295,-0.708 3.37109,-1.90415c0.69814,-1.19615 0.69814,-2.67555 0,-3.8717c-0.69814,-1.19615 -1.98625,-1.92374 -3.37109,-1.90415h-7.5825c0.55604,-11.90328 3.7273,-23.09377 8.8875,-33.0975l6.5475,3.78c1.19051,0.75242 2.69737,0.79284 3.92651,0.10532c1.22914,-0.68752 1.98335,-1.99266 1.96531,-3.4009c-0.01805,-1.40824 -0.80546,-2.69363 -2.05181,-3.34942l-6.5475,-3.78c6.24961,-9.71491 14.51577,-17.98084 24.2325,-24.2325l3.78,6.5475c0.65579,1.24635 1.94118,2.03377 3.34942,2.05181c1.40824,0.01805 2.71338,-0.73617 3.4009,-1.96531c0.68752,-1.22914 0.6471,-2.73599 -0.10532,-3.92651l-3.78,-6.5475c9.9975,-5.15681 21.19056,-8.33105 33.0975,-8.8875v7.5825c-0.01959,1.38484 0.708,2.67295 1.90415,3.37109c1.19615,0.69814 2.67555,0.69814 3.8717,0c1.19615,-0.69814 1.92374,-1.98625 1.90415,-3.37109v-7.5825c11.90839,0.55614 23.09926,3.73195 33.0975,8.8875l-3.78,6.5475c-0.75242,1.19051 -0.79284,2.69737 -0.10532,3.92651c0.68752,1.22914 1.99266,1.98335 3.4009,1.96531c1.40824,-0.01805 2.69363,-0.80546 3.34942,-2.05181l3.78,-6.5475c9.71859,6.25081 17.98267,14.51534 24.2325,24.2325l-6.5475,3.78c-1.24635,0.65579 -2.03377,1.94118 -2.05181,3.34942c-0.01805,1.40824 0.73617,2.71338 1.96531,3.4009c1.22914,0.68752 2.73599,0.6471 3.92651,-0.10532l6.5475,-3.78c5.15641,10.00118 8.33171,21.19321 8.8875,33.0975h-7.5825c-1.38484,-0.01959 -2.67295,0.708 -3.37109,1.90415c-0.69814,1.19615 -0.69814,2.67555 0,3.8717c0.69814,1.19615 1.98625,1.92374 3.37109,1.90415h7.5225c-0.56626,12.02484 -3.70879,23.35956 -8.9775,33.435l-6.735,-3.96c-0.55124,-0.33514 -1.17803,-0.52601 -1.8225,-0.555c-0.12742,-0.00635 -0.25508,-0.00635 -0.3825,0c-1.70422,0.09046 -3.14429,1.29472 -3.53488,2.95604c-0.39059,1.66132 0.36201,3.3811 1.84738,4.22146l6.72,3.945c-0.82708,1.27058 -1.65465,2.54474 -2.55,3.765c-0.81208,1.10662 -0.97204,2.56244 -0.41962,3.81899c0.55242,1.25655 1.73328,2.1229 3.09771,2.27265c1.36442,0.14976 2.70509,-0.43983 3.51691,-1.54664c10.57824,-14.41695 16.87292,-32.18897 17.0475,-51.3825c0.10555,-0.49899 0.11065,-1.01402 0.015,-1.515c-0.12265,-15.56451 -4.28435,-30.16756 -11.4825,-42.8325c-0.00276,-0.00485 -0.00474,-0.01015 -0.0075,-0.015c-0.15705,-0.4332 -0.39077,-0.83459 -0.69,-1.185c-7.61797,-12.92637 -18.42515,-23.7476 -31.35,-31.3725c-0.00588,-0.00347 -0.00912,-0.01153 -0.015,-0.015c-0.36717,-0.31091 -0.7895,-0.55006 -1.245,-0.705c-12.65162,-7.18574 -27.23969,-11.34999 -42.795,-11.475c-0.00502,-0.00004 -0.00998,0.00004 -0.015,0c-0.2521,-0.048 -0.50839,-0.07062 -0.765,-0.0675zM148.8975,71.5875l-42.4275,16.05c-3.01856,-1.98097 -6.60872,-3.1575 -10.47,-3.1575c-10.5651,0 -19.2,8.64708 -19.2,19.2c0,10.55292 8.6349,19.2 19.2,19.2c10.5651,0 19.2,-8.64708 19.2,-19.2c0,-0.11372 -0.013,-0.22423 -0.015,-0.3375l34.575,-30.3825zM96,92.16c6.41654,0 11.52,5.1107 11.52,11.52c0,6.40452 -5.10462,11.52 -11.52,11.52c-6.41538,0 -11.52,-5.11548 -11.52,-11.52c0,-6.40452 5.10462,-11.52 11.52,-11.52zM57.5925,153.6c-2.12069,0.00021 -3.83979,1.71931 -3.84,3.84v15.3525c0.00021,2.12069 1.71931,3.83979 3.84,3.84h76.815c2.12069,-0.00021 3.83979,-1.71931 3.84,-3.84v-15.3525c-0.00021,-2.12069 -1.71931,-3.83979 -3.84,-3.84zM61.4325,161.28h69.135v7.6725h-69.135z"/></g></g></svg>
