<?xml version="1.0" encoding="iso-8859-1"?>
<!-- Generator: Adobe Illustrator 20.1.0, SVG Export Plug-In . SVG Version: 6.00 Build 0)  -->
<svg xmlns="http://www.w3.org/2000/svg" xmlns:xlink="http://www.w3.org/1999/xlink" version="1.1" id="&#1057;&#1083;&#1086;&#1081;_1" x="0px" y="0px" viewBox="0 0 64 64" style="enable-background:new 0 0 64 64;" xml:space="preserve" width="64px" height="64px">
<linearGradient id="SVGID_1__43988" gradientUnits="userSpaceOnUse" x1="11" y1="24.125" x2="11" y2="27.9559" spreadMethod="reflect">
	<stop offset="0" style="stop-color:#6DC7FF"/>
	<stop offset="1" style="stop-color:#E6ABFF"/>
</linearGradient>
<circle style="fill:url(#SVGID_1__43988);" cx="11" cy="26" r="1.5"/>
<linearGradient id="SVGID_2__43988" gradientUnits="userSpaceOnUse" x1="11" y1="30.5" x2="11" y2="33.7608" spreadMethod="reflect">
	<stop offset="0" style="stop-color:#6DC7FF"/>
	<stop offset="1" style="stop-color:#E6ABFF"/>
</linearGradient>
<circle style="fill:url(#SVGID_2__43988);" cx="11" cy="32" r="1.5"/>
<linearGradient id="SVGID_3__43988" gradientUnits="userSpaceOnUse" x1="11" y1="36.1875" x2="11" y2="39.7429" spreadMethod="reflect">
	<stop offset="0" style="stop-color:#6DC7FF"/>
	<stop offset="1" style="stop-color:#E6ABFF"/>
</linearGradient>
<circle style="fill:url(#SVGID_3__43988);" cx="11" cy="38" r="1.5"/>
<linearGradient id="SVGID_4__43988" gradientUnits="userSpaceOnUse" x1="32" y1="7.5" x2="32" y2="56.684" spreadMethod="reflect">
	<stop offset="0" style="stop-color:#1A6DFF"/>
	<stop offset="1" style="stop-color:#C822FF"/>
</linearGradient>
<path style="fill:url(#SVGID_4__43988);" d="M49,36.051V18v-1v-1c0-1.654-1.346-3-3-3H34h-3.041c-0.304,0-0.587-0.136-0.776-0.374  l-2.8-3.498C26.811,8.411,25.955,8,25.036,8h-9H16H9.005C7.348,8,6,9.348,6,11.005V17v1v26c0,1.654,1.346,3,3,3h25.051  c0.503,5.046,4.773,9,9.949,9h4c5.514,0,10-4.486,10-10C58,40.824,54.046,36.554,49,36.051z M39.67,37H35v2h1.871  c-1.553,1.582-2.588,3.673-2.82,6H16V19h31v17h-3C42.448,36,40.982,36.366,39.67,37z M25.82,10.377L27.92,13h-5.961  c-0.304,0-0.587-0.136-0.776-0.374L19.081,10h5.955C25.344,10,25.629,10.137,25.82,10.377z M8,11.005C8,10.451,8.451,10,9.005,10H16  h0.036c0.308,0,0.593,0.137,0.784,0.377l2.8,3.498C20.19,14.59,21.043,15,21.959,15h9H34h12c0.552,0,1,0.448,1,1v1H8V11.005z M8,44  V19h6v26H9C8.448,45,8,44.552,8,44z M48,54h-4c-4.411,0-8-3.589-8-8s3.589-8,8-8h4c4.411,0,8,3.589,8,8S52.411,54,48,54z"/>
<linearGradient id="SVGID_5__43988" gradientUnits="userSpaceOnUse" x1="28" y1="7.5" x2="28" y2="56.684" spreadMethod="reflect">
	<stop offset="0" style="stop-color:#1A6DFF"/>
	<stop offset="1" style="stop-color:#C822FF"/>
</linearGradient>
<rect x="23" y="25" style="fill:url(#SVGID_5__43988);" width="10" height="2"/>
<linearGradient id="SVGID_6__43988" gradientUnits="userSpaceOnUse" x1="40" y1="7.5" x2="40" y2="56.684" spreadMethod="reflect">
	<stop offset="0" style="stop-color:#1A6DFF"/>
	<stop offset="1" style="stop-color:#C822FF"/>
</linearGradient>
<rect x="35" y="25" style="fill:url(#SVGID_6__43988);" width="10" height="2"/>
<linearGradient id="SVGID_7__43988" gradientUnits="userSpaceOnUse" x1="42" y1="7.5" x2="42" y2="56.684" spreadMethod="reflect">
	<stop offset="0" style="stop-color:#1A6DFF"/>
	<stop offset="1" style="stop-color:#C822FF"/>
</linearGradient>
<rect x="39" y="29" style="fill:url(#SVGID_7__43988);" width="6" height="2"/>
<linearGradient id="SVGID_8__43988" gradientUnits="userSpaceOnUse" x1="34" y1="7.5" x2="34" y2="56.684" spreadMethod="reflect">
	<stop offset="0" style="stop-color:#1A6DFF"/>
	<stop offset="1" style="stop-color:#C822FF"/>
</linearGradient>
<rect x="31" y="29" style="fill:url(#SVGID_8__43988);" width="6" height="2"/>
<linearGradient id="SVGID_9__43988" gradientUnits="userSpaceOnUse" x1="42" y1="7.5" x2="42" y2="56.684" spreadMethod="reflect">
	<stop offset="0" style="stop-color:#1A6DFF"/>
	<stop offset="1" style="stop-color:#C822FF"/>
</linearGradient>
<rect x="39" y="33" style="fill:url(#SVGID_9__43988);" width="6" height="2"/>
<linearGradient id="SVGID_10__43988" gradientUnits="userSpaceOnUse" x1="34" y1="7.5" x2="34" y2="56.684" spreadMethod="reflect">
	<stop offset="0" style="stop-color:#1A6DFF"/>
	<stop offset="1" style="stop-color:#C822FF"/>
</linearGradient>
<rect x="31" y="33" style="fill:url(#SVGID_10__43988);" width="6" height="2"/>
<linearGradient id="SVGID_11__43988" gradientUnits="userSpaceOnUse" x1="28" y1="7.5" x2="28" y2="56.684" spreadMethod="reflect">
	<stop offset="0" style="stop-color:#1A6DFF"/>
	<stop offset="1" style="stop-color:#C822FF"/>
</linearGradient>
<rect x="23" y="37" style="fill:url(#SVGID_11__43988);" width="10" height="2"/>
<linearGradient id="SVGID_12__43988" gradientUnits="userSpaceOnUse" x1="50" y1="7.5" x2="50" y2="56.684" spreadMethod="reflect">
	<stop offset="0" style="stop-color:#1A6DFF"/>
	<stop offset="1" style="stop-color:#C822FF"/>
</linearGradient>
<path style="fill:url(#SVGID_12__43988);" d="M51,44c0-1.654-1.346-3-3-3h-1v2h1c0.552,0,1,0.448,1,1c0,0.768,0.29,1.469,0.766,2  C49.29,46.531,49,47.232,49,48c0,0.552-0.448,1-1,1h-1v2h1c1.654,0,3-1.346,3-3c0-0.552,0.448-1,1-1h1v-2h-1  C51.448,45,51,44.552,51,44z"/>
<linearGradient id="SVGID_13__43988" gradientUnits="userSpaceOnUse" x1="42" y1="7.5" x2="42" y2="56.684" spreadMethod="reflect">
	<stop offset="0" style="stop-color:#1A6DFF"/>
	<stop offset="1" style="stop-color:#C822FF"/>
</linearGradient>
<path style="fill:url(#SVGID_13__43988);" d="M41,44c0,0.552-0.448,1-1,1h-1v2h1c0.552,0,1,0.448,1,1c0,1.654,1.346,3,3,3h1v-2h-1  c-0.552,0-1-0.448-1-1c0-0.768-0.29-1.469-0.766-2C42.71,45.469,43,44.768,43,44c0-0.552,0.448-1,1-1h1v-2h-1  C42.346,41,41,42.346,41,44z"/>
</svg>
