<?xml version="1.0" encoding="iso-8859-1"?>
<!-- Generator: Adobe Illustrator 20.1.0, SVG Export Plug-In . SVG Version: 6.00 Build 0)  -->
<svg xmlns="http://www.w3.org/2000/svg" xmlns:xlink="http://www.w3.org/1999/xlink" version="1.1" id="&#1057;&#1083;&#1086;&#1081;_1" x="0px" y="0px" viewBox="0 0 64 64" style="enable-background:new 0 0 64 64;" xml:space="preserve" width="64px" height="64px">
<linearGradient id="SVGID_1__48130" gradientUnits="userSpaceOnUse" x1="49" y1="45.5" x2="49" y2="53.1667" spreadMethod="reflect">
	<stop offset="0" style="stop-color:#6DC7FF"/>
	<stop offset="1" style="stop-color:#E6ABFF"/>
</linearGradient>
<circle style="fill:url(#SVGID_1__48130);" cx="49" cy="49" r="5"/>
<linearGradient id="SVGID_2__48130" gradientUnits="userSpaceOnUse" x1="15" y1="9.3333" x2="15" y2="20.5311" spreadMethod="reflect">
	<stop offset="0" style="stop-color:#6DC7FF"/>
	<stop offset="1" style="stop-color:#E6ABFF"/>
</linearGradient>
<circle style="fill:url(#SVGID_2__48130);" cx="15" cy="15" r="5"/>
<linearGradient id="SVGID_3__48130" gradientUnits="userSpaceOnUse" x1="15" y1="5" x2="15" y2="58.3648" spreadMethod="reflect">
	<stop offset="0" style="stop-color:#1A6DFF"/>
	<stop offset="1" style="stop-color:#C822FF"/>
</linearGradient>
<path style="fill:url(#SVGID_3__48130);" d="M21,40h-5v-6h1.446c0.515,0,0.994-0.265,1.283-0.708c0.311-0.479,0.358-1.077,0.126-1.602  l-1.945-4.399c-0.352-0.797-1.084-1.292-1.91-1.292s-1.558,0.495-1.91,1.292l-1.945,4.399c-0.232,0.524-0.185,1.123,0.126,1.602  C11.56,33.735,12.039,34,12.554,34H14v6H9c-1.654,0-3,1.346-3,3v12c0,1.654,1.346,3,3,3h12c1.654,0,3-1.346,3-3V43  C24,41.346,22.654,40,21,40z M13.194,32l1.725-3.9c0.067-0.15,0.095-0.15,0.162,0l1.725,3.9H16h-2H13.194z M22,55  c0,0.552-0.449,1-1,1H9c-0.551,0-1-0.448-1-1V43c0-0.552,0.449-1,1-1h12c0.551,0,1,0.448,1,1V55z"/>
<linearGradient id="SVGID_4__48130" gradientUnits="userSpaceOnUse" x1="49" y1="5" x2="49" y2="58.3648" spreadMethod="reflect">
	<stop offset="0" style="stop-color:#1A6DFF"/>
	<stop offset="1" style="stop-color:#C822FF"/>
</linearGradient>
<path style="fill:url(#SVGID_4__48130);" d="M49,40c-4.962,0-9,4.037-9,9s4.038,9,9,9s9-4.037,9-9S53.962,40,49,40z M49,56  c-3.86,0-7-3.141-7-7s3.14-7,7-7s7,3.141,7,7S52.86,56,49,56z"/>
<linearGradient id="SVGID_5__48130" gradientUnits="userSpaceOnUse" x1="49" y1="5" x2="49" y2="58.3648" spreadMethod="reflect">
	<stop offset="0" style="stop-color:#1A6DFF"/>
	<stop offset="1" style="stop-color:#C822FF"/>
</linearGradient>
<path style="fill:url(#SVGID_5__48130);" d="M46.905,23.132c0.314,0.314,0.689,0.539,1.095,0.685V30h-1.446  c-0.515,0-0.994,0.265-1.283,0.708c-0.311,0.479-0.358,1.077-0.126,1.602l1.945,4.399C47.442,37.506,48.174,38,49,38  c0.826-0.001,1.558-0.495,1.91-1.292l1.945-4.398c0.232-0.524,0.185-1.123-0.126-1.602C52.44,30.265,51.961,30,51.446,30H50v-6.184  c0.406-0.146,0.781-0.371,1.094-0.685l6.038-6.038C57.692,16.534,58,15.791,58,15s-0.308-1.535-0.868-2.095l-6.038-6.038  c-1.155-1.154-3.034-1.154-4.188,0l-6.039,6.038C40.308,13.465,40,14.209,40,15s0.308,1.535,0.868,2.094L46.905,23.132z   M49.081,35.899c-0.066,0.149-0.094,0.155-0.162,0.001L47.194,32h3.611L49.081,35.899z M42.282,14.319l6.038-6.038  C48.507,8.094,48.754,8,49,8c0.247,0,0.493,0.094,0.68,0.281l6.038,6.038C55.9,14.501,56,14.743,56,15s-0.1,0.498-0.282,0.68  l-6.039,6.038c-0.363,0.363-0.996,0.363-1.36,0l-6.038-6.038C42.1,15.498,42,15.257,42,15S42.1,14.501,42.282,14.319z"/>
<linearGradient id="SVGID_6__48130" gradientUnits="userSpaceOnUse" x1="22" y1="5" x2="22" y2="58.3648" spreadMethod="reflect">
	<stop offset="0" style="stop-color:#1A6DFF"/>
	<stop offset="1" style="stop-color:#C822FF"/>
</linearGradient>
<path style="fill:url(#SVGID_6__48130);" d="M36.709,13.089l-4.4-1.945c-0.526-0.229-1.123-0.184-1.601,0.127  C30.265,11.56,30,12.039,30,12.554V14h-6.059c-0.5-4.493-4.317-8-8.941-8c-4.962,0-9,4.037-9,9s4.038,9,9,9  c4.624,0,8.442-3.507,8.941-8H30v1.446c0,0.515,0.265,0.993,0.708,1.282c0.277,0.181,0.595,0.272,0.915,0.272  c0.232,0,0.466-0.049,0.687-0.146l4.4-1.946C37.505,16.558,38,15.825,38,14.999C38,14.174,37.505,13.441,36.709,13.089z M15,22  c-3.86,0-7-3.141-7-7s3.14-7,7-7s7,3.141,7,7S18.86,22,15,22z M35.9,15.08L32,16.805v-3.61l3.9,1.724  c0.075,0.034,0.1,0.069,0.1,0.081C36,15.012,35.976,15.047,35.9,15.08z"/>
<linearGradient id="SVGID_7__48130" gradientUnits="userSpaceOnUse" x1="15" y1="45.5" x2="15" y2="53.1667" spreadMethod="reflect">
	<stop offset="0" style="stop-color:#6DC7FF"/>
	<stop offset="1" style="stop-color:#E6ABFF"/>
</linearGradient>
<path style="fill:url(#SVGID_7__48130);" d="M18,51c0,0.552-0.448,1-1,1h-4c-0.552,0-1-0.448-1-1v-4c0-0.552,0.448-1,1-1h4  c0.552,0,1,0.448,1,1V51z"/>
<linearGradient id="SVGID_8__48130" gradientUnits="userSpaceOnUse" x1="49" y1="9.3333" x2="49" y2="20.5311" spreadMethod="reflect">
	<stop offset="0" style="stop-color:#6DC7FF"/>
	<stop offset="1" style="stop-color:#E6ABFF"/>
</linearGradient>
<path style="fill:url(#SVGID_8__48130);" d="M51.292,15.708l-1.583,1.583c-0.391,0.391-1.025,0.391-1.417,0l-1.583-1.583  c-0.391-0.391-0.391-1.025,0-1.417l1.583-1.583c0.391-0.391,1.025-0.391,1.417,0l1.583,1.583  C51.683,14.683,51.683,15.317,51.292,15.708z"/>
</svg>
