<?xml version="1.0" encoding="iso-8859-1"?>
<!-- Generator: Adobe Illustrator 20.1.0, SVG Export Plug-In . SVG Version: 6.00 Build 0)  -->
<svg xmlns="http://www.w3.org/2000/svg" xmlns:xlink="http://www.w3.org/1999/xlink" version="1.1" id="&#1057;&#1083;&#1086;&#1081;_1" x="0px" y="0px" viewBox="0 0 64 64" style="enable-background:new 0 0 64 64;" xml:space="preserve" width="64px" height="64px">
<linearGradient id="SVGID_1__44859" gradientUnits="userSpaceOnUse" x1="32" y1="5.875" x2="32" y2="57.9477" spreadMethod="reflect">
	<stop offset="0" style="stop-color:#1A6DFF"/>
	<stop offset="1" style="stop-color:#C822FF"/>
</linearGradient>
<path style="fill:url(#SVGID_1__44859);" d="M53,24v-2c0-1.103-0.897-2-2-2H39v-2h2c1.103,0,2-0.897,2-2V8c0-1.103-0.897-2-2-2H23  c-1.103,0-2,0.897-2,2v8c0,1.103,0.897,2,2,2h2v2H13c-1.103,0-2,0.897-2,2v2c0,1.103,0.897,2,2,2v30h-2v2h2h38h2v-2h-2V26  C52.103,26,53,25.103,53,24z M23,8h18l0.002,8H23V8z M27,18h10v2H27V18z M13,22h38l0.002,2H13V22z M15,54h12v2H15V54z M35,56h-6V44  h6V56z M37,56v-2h12v2H37z M49,52H37v-8c0-1.103-0.897-2-2-2h-6c-1.103,0-2,0.897-2,2v8H15V26h34V52z"/>
<linearGradient id="SVGID_2__44859" gradientUnits="userSpaceOnUse" x1="33" y1="5.875" x2="33" y2="57.9477" spreadMethod="reflect">
	<stop offset="0" style="stop-color:#1A6DFF"/>
	<stop offset="1" style="stop-color:#C822FF"/>
</linearGradient>
<rect x="32" y="48" style="fill:url(#SVGID_2__44859);" width="2" height="4"/>
<linearGradient id="SVGID_3__44859" gradientUnits="userSpaceOnUse" x1="43" y1="5.875" x2="43" y2="57.9477" spreadMethod="reflect">
	<stop offset="0" style="stop-color:#1A6DFF"/>
	<stop offset="1" style="stop-color:#C822FF"/>
</linearGradient>
<path style="fill:url(#SVGID_3__44859);" d="M47,42h-8v8h8V42z M45,48h-4v-4h4V48z"/>
<linearGradient id="SVGID_4__44859" gradientUnits="userSpaceOnUse" x1="21" y1="5.875" x2="21" y2="57.9477" spreadMethod="reflect">
	<stop offset="0" style="stop-color:#1A6DFF"/>
	<stop offset="1" style="stop-color:#C822FF"/>
</linearGradient>
<path style="fill:url(#SVGID_4__44859);" d="M25,50v-8h-8v8H25z M19,44h4v4h-4V44z"/>
<linearGradient id="SVGID_5__44859" gradientUnits="userSpaceOnUse" x1="43" y1="5.875" x2="43" y2="57.9477" spreadMethod="reflect">
	<stop offset="0" style="stop-color:#1A6DFF"/>
	<stop offset="1" style="stop-color:#C822FF"/>
</linearGradient>
<path style="fill:url(#SVGID_5__44859);" d="M47,30h-8v8h8V30z M45,36h-4v-4h4V36z"/>
<linearGradient id="SVGID_6__44859" gradientUnits="userSpaceOnUse" x1="21" y1="5.875" x2="21" y2="57.9477" spreadMethod="reflect">
	<stop offset="0" style="stop-color:#1A6DFF"/>
	<stop offset="1" style="stop-color:#C822FF"/>
</linearGradient>
<path style="fill:url(#SVGID_6__44859);" d="M25,30h-8v8h8V30z M23,36h-4v-4h4V36z"/>
<linearGradient id="SVGID_7__44859" gradientUnits="userSpaceOnUse" x1="32" y1="5.875" x2="32" y2="57.9477" spreadMethod="reflect">
	<stop offset="0" style="stop-color:#1A6DFF"/>
	<stop offset="1" style="stop-color:#C822FF"/>
</linearGradient>
<path style="fill:url(#SVGID_7__44859);" d="M36,30h-8v8h8V30z M34,36h-4v-4h4V36z"/>
<linearGradient id="SVGID_8__44859" gradientUnits="userSpaceOnUse" x1="32" y1="5.875" x2="32" y2="57.9477" spreadMethod="reflect">
	<stop offset="0" style="stop-color:#1A6DFF"/>
	<stop offset="1" style="stop-color:#C822FF"/>
</linearGradient>
<rect x="28" y="11" style="fill:url(#SVGID_8__44859);" width="8" height="2"/>
<linearGradient id="SVGID_9__44859" gradientUnits="userSpaceOnUse" x1="43" y1="53.375" x2="43" y2="56.88" spreadMethod="reflect">
	<stop offset="0" style="stop-color:#6DC7FF"/>
	<stop offset="1" style="stop-color:#E6ABFF"/>
</linearGradient>
<rect x="37" y="54" style="fill:url(#SVGID_9__44859);" width="12" height="2"/>
<linearGradient id="SVGID_10__44859" gradientUnits="userSpaceOnUse" x1="21" y1="53.375" x2="21" y2="56.88" spreadMethod="reflect">
	<stop offset="0" style="stop-color:#6DC7FF"/>
	<stop offset="1" style="stop-color:#E6ABFF"/>
</linearGradient>
<rect x="15" y="54" style="fill:url(#SVGID_10__44859);" width="12" height="2"/>
</svg>
