<?xml version="1.0" encoding="iso-8859-1"?>
<!-- Generator: Adobe Illustrator 20.1.0, SVG Export Plug-In . SVG Version: 6.00 Build 0)  -->
<svg xmlns="http://www.w3.org/2000/svg" xmlns:xlink="http://www.w3.org/1999/xlink" version="1.1" id="&#1057;&#1083;&#1086;&#1081;_1" x="0px" y="0px" viewBox="0 0 64 64" style="enable-background:new 0 0 64 64;" xml:space="preserve" width="64px" height="64px">
<linearGradient id="SVGID_1__44112" gradientUnits="userSpaceOnUse" x1="32" y1="9.9999" x2="32" y2="54.7506" spreadMethod="reflect">
	<stop offset="0" style="stop-color:#1A6DFF"/>
	<stop offset="1" style="stop-color:#C822FF"/>
</linearGradient>
<path style="fill:url(#SVGID_1__44112);" d="M32,53.001c-6.358,0-12.716-0.195-19.299-0.584c-4.96-0.293-8.961-4.242-9.308-9.187  c-0.521-7.452-0.521-15.009-0.001-22.46c0.348-4.945,4.349-8.895,9.309-9.188c13.167-0.778,25.433-0.778,38.598,0  c4.96,0.293,8.961,4.242,9.308,9.187c0.521,7.452,0.521,15.009,0.001,22.46c-0.348,4.945-4.349,8.895-9.309,9.188l0,0  C44.716,52.806,38.358,53.001,32,53.001z M51.182,50.421l0.059,0.998L51.182,50.421c3.959-0.234,7.153-3.386,7.431-7.331  c0.515-7.358,0.515-14.821-0.001-22.181c-0.276-3.944-3.471-7.096-7.43-7.33c-13.088-0.773-25.275-0.773-38.363,0  c-3.959,0.234-7.153,3.386-7.431,7.331c-0.515,7.358-0.515,14.821,0.001,22.181c0.276,3.944,3.471,7.096,7.43,7.33  C25.906,51.194,38.094,51.194,51.182,50.421z"/>
<linearGradient id="SVGID_2__44112" gradientUnits="userSpaceOnUse" x1="31.72" y1="24.2499" x2="31.72" y2="39.252" spreadMethod="reflect">
	<stop offset="0" style="stop-color:#6DC7FF"/>
	<stop offset="1" style="stop-color:#E6ABFF"/>
</linearGradient>
<polygon style="fill:url(#SVGID_2__44112);" points="25,39.84 25,24.16 38.44,32 "/>
<linearGradient id="SVGID_3__44112" gradientUnits="userSpaceOnUse" x1="32.2124" y1="9.9999" x2="32.2124" y2="54.7506" spreadMethod="reflect">
	<stop offset="0" style="stop-color:#1A6DFF"/>
	<stop offset="1" style="stop-color:#C822FF"/>
</linearGradient>
<path style="fill:url(#SVGID_3__44112);" d="M24,41.581V22.419L40.425,32L24,41.581z M26,25.901v12.197L36.456,32L26,25.901z"/>
</svg>
