<?xml version="1.0" encoding="iso-8859-1"?>
<!-- Generator: Adobe Illustrator 22.0.1, SVG Export Plug-In . SVG Version: 6.00 Build 0)  -->
<svg xmlns="http://www.w3.org/2000/svg" xmlns:xlink="http://www.w3.org/1999/xlink" version="1.1" id="Layer_1" x="0px" y="0px" viewBox="0 0 64 64" style="enable-background:new 0 0 64 64;" xml:space="preserve" width="64px" height="64px">
<linearGradient id="SVGID_1__69490" gradientUnits="userSpaceOnUse" x1="31.995" y1="10.01" x2="31.995" y2="49" spreadMethod="reflect">
	<stop offset="0" style="stop-color:#1A6DFF"/>
	<stop offset="1" style="stop-color:#C822FF"/>
</linearGradient>
<path style="fill:url(#SVGID_1__69490);" d="M56.99,34.14c0.01-0.22,0.02-0.43,0.02-0.64c0-4.75-3.5-8.68-8.05-9.39  c-0.45-6.84-6.09-14.1-13.5-14.1c-4.95,0-9.46,2.71-11.81,7.02C22.19,16.35,20.6,16,19,16c-6.07,0-11.01,4.93-11.01,11  c0,0.11,0,0.22,0.01,0.33c-4.11,1.11-6.99,4.85-6.99,9.18c0,5.25,4.25,9.49,9.49,9.49H17c0.09,0,0.17-0.03,0.26-0.05  C18.91,47.81,21.32,49,24,49h31.5c4.14,0,7.48-3.35,7.48-7.49C62.98,37.9,60.44,34.83,56.99,34.14z M16,44h-5.5  c-4.13,0-7.49-3.38-7.49-7.51c0-3.66,2.62-6.76,6.23-7.37c0.52-0.09,0.89-0.57,0.83-1.11c-0.04-0.33-0.06-0.67-0.06-1.01  c0-4.96,4.03-8.99,8.99-8.99c1.6,0,3.19,0.43,4.58,1.26c0.25,0.15,0.54,0.18,0.82,0.09c0.27-0.08,0.5-0.28,0.61-0.54  c1.85-4.14,5.97-6.81,10.49-6.81c6.23,0,10.96,6.15,11.44,12.01c-1.08,0.06-2.15,0.3-3.14,0.72C41.64,21.75,38.22,20,34.5,20  c-6.19,0-11.26,4.91-11.5,11.04c-4.5,0.5-7.98,4.33-7.98,8.95C15.02,41.43,15.38,42.88,16,44z M55.5,47H24  c-3.85,0-6.99-3.15-6.99-7.01c0-3.85,3.13-6.98,7.01-6.98c0,0,0,0,0.01,0c0.27,0,0.53-0.12,0.73-0.32c0.19-0.2,0.29-0.46,0.27-0.74  l-0.01-0.2c0-0.08-0.01-0.17-0.01-0.25c0-5.24,4.26-9.49,9.49-9.49c3.32,0,6.34,1.7,8.09,4.54c0.28,0.46,0.87,0.62,1.34,0.36  c1.09-0.59,2.32-0.9,3.57-0.9c4.13,0,7.49,3.36,7.49,7.49c0,0.42-0.04,0.86-0.13,1.33c-0.05,0.29,0.03,0.58,0.21,0.81  c0.17,0.23,0.44,0.36,0.73,0.38c2.91,0.16,5.19,2.56,5.19,5.47C60.99,44.52,58.53,47,55.5,47z"/>
<g>
	<linearGradient id="SVGID_2__69490" gradientUnits="userSpaceOnUse" x1="24.975" y1="12.01" x2="24.975" y2="44" spreadMethod="reflect">
		<stop offset="0" style="stop-color:#6DC7FF"/>
		<stop offset="1" style="stop-color:#E6ABFF"/>
	</linearGradient>
	<path style="fill:url(#SVGID_2__69490);" d="M46.94,24.02c-1.08,0.06-2.15,0.3-3.14,0.72C41.64,21.75,38.22,20,34.5,20   c-6.19,0-11.26,4.91-11.5,11.04c-4.5,0.5-7.98,4.33-7.98,8.95c0,1.44,0.36,2.89,0.98,4.01h-5.5c-4.13,0-7.49-3.38-7.49-7.51   c0-3.66,2.62-6.76,6.23-7.37c0.52-0.09,0.89-0.57,0.83-1.11c-0.04-0.33-0.06-0.67-0.06-1.01c0-4.96,4.03-8.99,8.99-8.99   c1.6,0,3.19,0.43,4.58,1.26c0.25,0.15,0.54,0.18,0.82,0.09c0.27-0.08,0.5-0.28,0.61-0.54c1.85-4.14,5.97-6.81,10.49-6.81   C41.73,12.01,46.46,18.16,46.94,24.02z"/>
</g>
</svg>
