<?xml version="1.0" encoding="UTF-8"?>
<svg xmlns="http://www.w3.org/2000/svg" xmlns:xlink="http://www.w3.org/1999/xlink" viewBox="0 0 48 48" version="1.1" width="48px" height="48px">
<g id="surface1">
<path style=" fill:#7E57C2;" d="M 7 41 L 7 7 C 7 4.789063 8.789063 3 11 3 L 37 3 C 39.210938 3 41 4.785156 41 6.992188 C 41 15.011719 41 32.984375 41 41.003906 C 41 43.214844 39.210938 45 37 45 L 11 45 C 8.789063 45 7 43.210938 7 41 Z "/>
<path style=" fill:#FFFFFF;" d="M 28.292969 39.222656 L 28.292969 22.539063 C 28.292969 22.539063 29.378906 18.550781 14.929688 24.175781 C 14.902344 24.246094 14.902344 8.75 14.902344 8.75 L 19.621094 8.722656 L 19.621094 18.648438 C 19.621094 18.648438 32.839844 13.441406 32.839844 22.597656 L 32.839844 39.21875 Z M 30.980469 14.730469 L 25.976563 14.730469 C 27.777344 12.527344 29.410156 8.75 29.410156 8.75 L 34.585938 8.75 C 34.585938 8.75 33.699219 11.210938 30.980469 14.730469 Z M 14.988281 39.191406 L 14.988281 29.695313 L 19.738281 34.445313 Z "/>
</g>
</svg>
