<?xml version="1.0" encoding="UTF-8" standalone="no"?>
<!DOCTYPE svg PUBLIC "-//W3C//DTD SVG 1.1//EN" "http://www.w3.org/Graphics/SVG/1.1/DTD/svg11.dtd">
<svg width="100%" height="100%" viewBox="0 0 212 61" version="1.1" xmlns="http://www.w3.org/2000/svg" xmlns:xlink="http://www.w3.org/1999/xlink" xml:space="preserve" xmlns:serif="http://www.serif.com/" style="fill-rule:evenodd;clip-rule:evenodd;stroke-linejoin:round;stroke-miterlimit:1.41421;">
    <path d="M64.373,1.482c-0.988,0.988 -1.482,2.201 -1.482,3.641c-0.001,1.441 0.494,2.665 1.481,3.672c0.987,1.01 2.202,1.512 3.642,1.512c1.44,0 2.664,-0.502 3.672,-1.512c1.008,-1.007 1.512,-2.231 1.512,-3.672c0,-1.44 -0.504,-2.653 -1.512,-3.641c-1.008,-0.988 -2.232,-1.482 -3.672,-1.482c-1.44,0 -2.654,0.494 -3.641,1.482Zm0.278,12.004c-0.927,0.925 -1.389,2.047 -1.389,3.364l0,24.996c0,0.659 0.123,1.286 0.369,1.882c0.247,0.598 0.587,1.111 1.02,1.543c0.431,0.432 0.935,0.772 1.511,1.02c0.576,0.246 1.193,0.369 1.852,0.369c1.316,0 2.448,-0.473 3.395,-1.419c0.945,-0.946 1.419,-2.078 1.419,-3.396l0,-24.996c0,-0.657 -0.123,-1.275 -0.37,-1.851c-0.247,-0.576 -0.587,-1.08 -1.018,-1.512c-0.432,-0.432 -0.948,-0.772 -1.544,-1.018c-0.597,-0.247 -1.225,-0.371 -1.882,-0.371c-1.317,0 -2.438,0.463 -3.363,1.389Z" style="fill:url(#_Linear1);fill-rule:nonzero;"/>
    <path d="M112.883,1.482c-0.988,0.988 -1.481,2.201 -1.481,3.641c0,1.441 0.493,2.665 1.481,3.672c0.988,1.01 2.201,1.512 3.641,1.512c1.44,0 2.664,-0.502 3.673,-1.512c1.007,-1.007 1.512,-2.231 1.512,-3.672c0,-1.44 -0.505,-2.653 -1.512,-3.641c-1.009,-0.988 -2.233,-1.482 -3.673,-1.482c-1.44,0 -2.653,0.494 -3.641,1.482Zm0.278,12.004c-0.926,0.925 -1.389,2.047 -1.389,3.364l0,24.996c0,0.659 0.123,1.286 0.371,1.882c0.247,0.598 0.586,1.111 1.018,1.543c0.431,0.432 0.935,0.772 1.512,1.02c0.576,0.246 1.193,0.369 1.851,0.369c1.317,0 2.448,-0.473 3.396,-1.419c0.945,-0.946 1.419,-2.078 1.419,-3.396l0,-24.996c0,-0.657 -0.123,-1.275 -0.371,-1.851c-0.247,-0.576 -0.586,-1.08 -1.018,-1.512c-0.432,-0.432 -0.947,-0.772 -1.542,-1.018c-0.597,-0.247 -1.225,-0.371 -1.884,-0.371c-1.317,0 -2.437,0.463 -3.363,1.389Z" style="fill:url(#_Linear2);fill-rule:nonzero;"/>
    <path d="M128.62,35.088c-0.74,0.308 -1.378,0.74 -1.913,1.296c-0.535,0.556 -0.957,1.194 -1.265,1.912c-0.308,0.721 -0.464,1.493 -0.464,2.316c0,1.687 0.576,3.116 1.729,4.29c1.151,1.172 2.572,1.758 4.258,1.758c1.687,0 3.118,-0.586 4.291,-1.758c1.171,-1.174 1.758,-2.603 1.758,-4.29c0,-0.823 -0.154,-1.595 -0.462,-2.316c-0.309,-0.718 -0.741,-1.356 -1.296,-1.912c-0.555,-0.556 -1.204,-0.988 -1.945,-1.296c-0.74,-0.308 -1.523,-0.464 -2.346,-0.464c-0.823,0 -1.604,0.156 -2.345,0.464Z" style="fill:url(#_Linear3);fill-rule:nonzero;"/>
    <path d="M141.705,1.482c-0.988,0.988 -1.482,2.201 -1.482,3.641c0,1.441 0.494,2.665 1.482,3.672c0.987,1.01 2.2,1.512 3.641,1.512c1.44,0 2.663,-0.502 3.673,-1.512c1.007,-1.007 1.511,-2.231 1.511,-3.672c0,-1.44 -0.504,-2.653 -1.511,-3.641c-1.01,-0.988 -2.234,-1.482 -3.673,-1.482c-1.441,0 -2.654,0.494 -3.641,1.482Zm0.278,12.004c-0.927,0.925 -1.389,2.047 -1.389,3.364l0,29.81c0,1.152 -0.166,2.047 -0.495,2.685c-0.33,0.638 -0.73,1.173 -1.202,1.605c-0.474,0.432 -0.988,0.781 -1.543,1.049c-0.556,0.267 -1.07,0.596 -1.544,0.988c-0.472,0.39 -0.874,0.884 -1.204,1.481c-0.327,0.595 -0.493,1.409 -0.493,2.438c0,1.316 0.484,2.314 1.45,2.993c0.968,0.679 2.13,1.019 3.488,1.019c1.522,0 2.962,-0.299 4.32,-0.896c1.357,-0.596 2.54,-1.481 3.55,-2.653c1.007,-1.173 1.798,-2.654 2.375,-4.445c0.577,-1.789 0.864,-3.878 0.864,-6.264l0,-29.811c0,-0.657 -0.123,-1.275 -0.371,-1.851c-0.246,-0.576 -0.585,-1.08 -1.017,-1.512c-0.432,-0.432 -0.948,-0.772 -1.544,-1.018c-0.596,-0.247 -1.225,-0.371 -1.882,-0.371c-1.318,0 -2.439,0.463 -3.363,1.389Z" style="fill:url(#_Linear4);fill-rule:nonzero;"/>
    <clipPath id="_clip5">
        <path d="M2.993,0.894c-0.678,0.351 -1.233,0.794 -1.666,1.328c-0.433,0.536 -0.762,1.122 -0.988,1.76c-0.226,0.637 -0.339,1.244 -0.339,1.82c0,0.617 0.082,1.173 0.247,1.666l10.972,34.856c1.761,-4.864 3.663,-10.15 5.619,-15.637l-6.346,-22.552c-0.329,-1.151 -0.967,-2.067 -1.914,-2.746c-0.946,-0.679 -2.016,-1.018 -3.209,-1.018c-0.905,0 -1.697,0.175 -2.376,0.523Z"/>
    </clipPath>
    <g clip-path="url(#_clip5)">
        <path d="M7.866,-1.57l18.329,36.341l-14.976,7.552l-18.329,-36.34l14.976,-7.553Z" style="fill:url(#_Linear6);fill-rule:nonzero;"/>
    </g>
    <clipPath id="_clip7">
        <path d="M26.879,1.327c-0.885,0.638 -1.554,1.554 -2.007,2.747l-8.023,22.651l-0.011,-0.038c-1.956,5.487 -3.858,10.772 -5.62,15.637l0.2,0.634c0.37,1.152 0.988,2.057 1.851,2.715c0.865,0.658 1.892,0.987 3.087,0.987c1.193,0 2.221,-0.318 3.085,-0.956c0.864,-0.637 1.502,-1.533 1.914,-2.685l8.703,-24.503l8.592,24.193c1.483,-4.971 3.072,-10.498 4.57,-16.112l-7.977,-22.523c-0.413,-1.193 -1.071,-2.109 -1.976,-2.747c-0.906,-0.637 -1.975,-0.956 -3.209,-0.956c-1.235,0 -2.294,0.319 -3.179,0.956Z"/>
    </clipPath>
    <g clip-path="url(#_clip7)">
        <path d="M1.72,7.835l33.771,-9.301l11.532,41.869l-33.772,9.301l-11.531,-41.869Z" style="fill:url(#_Linear8);fill-rule:nonzero;"/>
    </g>
    <clipPath id="_clip9">
        <path d="M51.536,1.389c-0.948,0.679 -1.584,1.595 -1.914,2.746l-6.357,22.59l-0.045,-0.128c-1.498,5.614 -3.087,11.141 -4.57,16.112l0.109,0.31c0.412,1.152 1.05,2.048 1.914,2.685c0.863,0.638 1.892,0.956 3.086,0.956c1.194,0 2.222,-0.329 3.087,-0.987c0.863,-0.658 1.48,-1.563 1.851,-2.715l11.172,-35.49c0.163,-0.493 0.246,-1.049 0.246,-1.666c0,-0.576 -0.114,-1.183 -0.339,-1.82c-0.227,-0.639 -0.556,-1.224 -0.988,-1.76c-0.431,-0.535 -0.987,-0.977 -1.666,-1.328c-0.679,-0.348 -1.472,-0.524 -2.377,-0.524c-1.193,0 -2.262,0.34 -3.209,1.019Z"/>
    </clipPath>
    <g clip-path="url(#_clip9)">
        <path d="M36.369,44.658l14.924,-45.791l10.647,3.47l-14.923,45.791l-10.648,-3.47Z" style="fill:url(#_Linear10);fill-rule:nonzero;"/>
    </g>
    <clipPath id="_clip11">
        <path d="M100.417,13.208l-12.84,10.307l0,8.892l11.667,12.525c0.534,0.577 1.162,1.009 1.882,1.297c0.72,0.288 1.43,0.431 2.13,0.431c0.452,0 0.945,-0.081 1.481,-0.246c0.535,-0.164 1.027,-0.432 1.482,-0.803c0.451,-0.37 0.832,-0.864 1.141,-1.481c0.308,-0.617 0.463,-1.358 0.463,-2.222c0,-0.617 -0.114,-1.235 -0.34,-1.852c-0.225,-0.616 -0.586,-1.151 -1.079,-1.604l-10.74,-10.37l10.863,-7.714c0.576,-0.411 0.988,-0.926 1.234,-1.543c0.247,-0.617 0.37,-1.255 0.37,-1.913c0,-0.865 -0.165,-1.605 -0.493,-2.222c-0.33,-0.618 -0.731,-1.121 -1.205,-1.512c-0.472,-0.391 -0.977,-0.669 -1.51,-0.834c-0.536,-0.164 -1.03,-0.246 -1.482,-0.246c-1.112,0 -2.12,0.37 -3.024,1.11Z"/>
    </clipPath>
    <g clip-path="url(#_clip11)">
        <path d="M107.98,46.688l-20.523,-0.106l0.179,-34.569l20.523,0.106l-0.179,34.569Z" style="fill:url(#_Linear12);fill-rule:nonzero;"/>
    </g>
    <path d="M16.85,26.725l-5.631,15.598l-1.315,-4.177l6.945,-11.421Z" style="fill-opacity:0.100006;fill-rule:nonzero;"/>
    <path d="M43.265,26.725l-4.615,15.984l-1.481,-4.169l6.096,-11.815Z" style="fill-opacity:0.100006;fill-rule:nonzero;"/>
    <path d="M87.641,23.454l2.951,12.181l-3.015,-3.228l0.063,-8.953Z" style="fill-opacity:0.100006;fill-rule:nonzero;"/>
    <clipPath id="_clip13">
        <path d="M79.462,1.759c-0.925,0.926 -1.389,2.047 -1.389,3.364l0,36.723c0,0.659 0.124,1.287 0.372,1.882c0.246,0.598 0.585,1.111 1.017,1.544c0.432,0.432 0.936,0.771 1.512,1.019c0.576,0.246 1.194,0.369 1.852,0.369c1.316,0 2.448,-0.473 3.395,-1.419c0.946,-0.946 1.419,-2.078 1.419,-3.395l0.001,-9.382l-0.001,-9.011l0.001,-18.33c-0.001,-0.657 -0.124,-1.275 -0.371,-1.852c-0.247,-0.575 -0.586,-1.08 -1.018,-1.512c-0.432,-0.432 -0.946,-0.772 -1.543,-1.018c-0.598,-0.247 -1.226,-0.37 -1.883,-0.37c-1.317,0 -2.438,0.463 -3.364,1.388Z"/>
    </clipPath>
    <g clip-path="url(#_clip13)">
        <path d="M72.542,45.379l6.075,-45.656l14.547,1.935l-6.076,45.657l-14.546,-1.936Z" style="fill:url(#_Linear14);fill-rule:nonzero;"/>
    </g>
    <clipPath id="_clip15">
        <path d="M155.746,34.162c-0.845,0.802 -1.266,2.027 -1.266,3.672c0,1.359 0.483,2.593 1.45,3.703c0.966,1.112 2.17,2.078 3.612,2.901c1.439,0.824 2.982,1.461 4.628,1.913c1.645,0.453 3.148,0.68 4.505,0.68c1.892,0 3.672,-0.247 5.34,-0.74c1.666,-0.495 3.136,-1.224 4.412,-2.193c0.477,-0.361 0.905,-0.768 1.306,-1.2c-0.632,-3.517 -3.216,-6.91 -9.367,-9.362c0.405,0.179 0.782,0.366 1.118,0.564c0.802,0.474 1.203,1.102 1.203,1.883c0,0.824 -0.392,1.409 -1.172,1.758c-0.782,0.351 -1.585,0.525 -2.407,0.525c-0.948,0 -1.822,-0.278 -2.623,-0.834c-0.803,-0.555 -1.585,-1.161 -2.346,-1.82c-0.761,-0.657 -1.554,-1.264 -2.376,-1.821c-0.824,-0.555 -1.688,-0.832 -2.592,-0.832c-1.441,0 -2.583,0.401 -3.425,1.203Z"/>
    </clipPath>
    <g clip-path="url(#_clip15)">
        <path d="M181.118,42.507l-17.52,11.303l-11.376,-17.633l17.52,-11.304l11.376,17.634Z" style="fill:#fff;fill-rule:nonzero;"/>
    </g>
    <path d="M179.734,42.896c-0.632,-3.518 -3.217,-6.91 -9.367,-9.363c0.404,0.18 0.781,0.367 1.117,0.565c0.188,0.11 0.35,0.232 0.494,0.36c0,0 -0.001,-0.001 -0.002,-0.001c0.001,0 0.002,0.001 0.003,0.001c0.019,0.017 0.036,0.034 0.055,0.051c3.752,3.316 5.765,6.485 6.569,9.439c0.405,-0.325 0.781,-0.677 1.131,-1.053" style="fill-opacity:0.100006;fill-rule:nonzero;"/>
    <clipPath id="_clip16">
        <path d="M162.874,12.529c-1.441,0.536 -2.645,1.275 -3.611,2.222c-0.967,0.947 -1.676,2.058 -2.129,3.333c-0.454,1.276 -0.68,2.676 -0.68,4.197c0,1.935 0.402,3.498 1.205,4.691c0.802,1.194 1.8,2.171 2.992,2.931c1.194,0.762 2.5,1.349 3.92,1.76c1.42,0.412 2.726,0.802 3.919,1.172c0.695,0.216 1.314,0.451 1.876,0.701c6.151,2.452 8.735,5.845 9.367,9.363c0.673,-0.721 1.255,-1.527 1.719,-2.442c0.74,-1.46 1.11,-3.178 1.11,-5.153c0,-2.056 -0.401,-3.713 -1.204,-4.969c-0.801,-1.255 -1.799,-2.253 -2.992,-2.994c-1.194,-0.74 -2.49,-1.305 -3.889,-1.696c-1.399,-0.391 -2.696,-0.761 -3.888,-1.112c-1.195,-0.349 -2.191,-0.76 -2.993,-1.233c-0.803,-0.473 -1.204,-1.183 -1.204,-2.13c0,-0.452 0.154,-0.802 0.463,-1.049c0.308,-0.247 0.688,-0.37 1.142,-0.37c0.781,0 1.45,0.154 2.006,0.462c0.555,0.309 1.119,0.639 1.697,0.988c0.575,0.35 1.203,0.679 1.882,0.987c0.679,0.309 1.513,0.464 2.5,0.464c1.151,0 2.129,-0.411 2.932,-1.235c0.775,-0.795 1.167,-1.729 1.193,-2.793l-4.978,0c-1.06,0 -1.926,-0.866 -1.926,-1.925l0,-4.358c-0.114,-0.03 -0.221,-0.062 -0.338,-0.09c-1.502,-0.349 -3.158,-0.524 -4.968,-0.524c-1.976,0 -3.683,0.268 -5.123,0.803Z"/>
    </clipPath>
    <g clip-path="url(#_clip16)">
        <path d="M187.616,15.656l-6.41,27.585l-28.535,-6.631l6.411,-27.585l28.534,6.631Z" style="fill:#fff;fill-rule:nonzero;"/>
    </g>
    <path d="M183.983,13.019c0,0.93 0.761,1.691 1.691,1.691l5.095,0c0.93,0 1.691,-0.761 1.691,-1.691l0,-5.094c0,-0.93 -0.761,-1.691 -1.691,-1.691l-5.095,0c-0.93,0 -1.691,0.761 -1.691,1.691l0,5.094Z" style="fill:url(#_Linear17);fill-rule:nonzero;"/>
    <path d="M197.928,14.796c0,0.93 0.761,1.691 1.691,1.691l2.633,0c0.93,0 1.692,-0.761 1.692,-1.691l0,-2.633c0,-0.93 -0.762,-1.691 -1.692,-1.691l-2.633,0c-0.93,0 -1.691,0.761 -1.691,1.691l0,2.633Z" style="fill:url(#_Linear18);fill-rule:nonzero;"/>
    <path d="M192.46,28.331c0,0.93 0.761,1.691 1.69,1.691l3.728,0c0.93,0 1.69,-0.761 1.69,-1.691l0,-3.727c0,-0.93 -0.76,-1.691 -1.69,-1.691l-3.728,0c-0.929,0 -1.69,0.761 -1.69,1.691l0,3.727Z" style="fill:url(#_Linear19);fill-rule:nonzero;"/>
    <path d="M207.224,21.359c0,0.929 0.761,1.69 1.691,1.69l0.72,0c0.93,0 1.691,-0.761 1.691,-1.691l0,-0.719c0,-0.93 -0.761,-1.691 -1.691,-1.691l-0.72,0c-0.93,0 -1.691,0.761 -1.691,1.691l0,0.719Z" style="fill:url(#_Linear20);fill-rule:nonzero;"/>
    <defs>
        <linearGradient id="_Linear1" x1="0" y1="0" x2="1" y2="0" gradientUnits="userSpaceOnUse" gradientTransform="matrix(2.85711e-15,46.6602,-46.6602,2.85711e-15,68.0447,4.17375e-05)"><stop offset="0" style="stop-color:#fff;stop-opacity:1"/><stop offset="1" style="stop-color:#cdcdcd;stop-opacity:1"/></linearGradient>
        <linearGradient id="_Linear2" x1="0" y1="0" x2="1" y2="0" gradientUnits="userSpaceOnUse" gradientTransform="matrix(2.85711e-15,46.6602,-46.6602,2.85711e-15,116.555,4.17375e-05)"><stop offset="0" style="stop-color:#fff;stop-opacity:1"/><stop offset="1" style="stop-color:#d0d0d0;stop-opacity:1"/></linearGradient>
        <linearGradient id="_Linear3" x1="0" y1="0" x2="1" y2="0" gradientUnits="userSpaceOnUse" gradientTransform="matrix(12.036,0,0,12.0353,124.978,40.6421)"><stop offset="0" style="stop-color:#fff;stop-opacity:1"/><stop offset="1" style="stop-color:#fff;stop-opacity:1"/></linearGradient>
        <linearGradient id="_Linear4" x1="0" y1="0" x2="1" y2="0" gradientUnits="userSpaceOnUse" gradientTransform="matrix(16.4175,0,0,60.918,134.113,30.459)"><stop offset="0" style="stop-color:#fff;stop-opacity:1"/><stop offset="1" style="stop-color:#f9f9f9;stop-opacity:1"/></linearGradient>
        <linearGradient id="_Linear6" x1="0" y1="0" x2="1" y2="0" gradientUnits="userSpaceOnUse" gradientTransform="matrix(9.62663,34.1535,-34.1535,9.62663,3.75,0.3705)"><stop offset="0" style="stop-color:#fff;stop-opacity:1"/><stop offset="1" style="stop-color:#b6b6b6;stop-opacity:1"/></linearGradient>
        <linearGradient id="_Linear8" x1="0" y1="0" x2="1" y2="0" gradientUnits="userSpaceOnUse" gradientTransform="matrix(18.9271,-5.21297,5.21297,18.9271,11.9136,27.6019)"><stop offset="0" style="stop-color:#fff;stop-opacity:1"/><stop offset="1" style="stop-color:#dcdcdc;stop-opacity:1"/></linearGradient>
        <linearGradient id="_Linear10" x1="0" y1="0" x2="1" y2="0" gradientUnits="userSpaceOnUse" gradientTransform="matrix(9.38332,-28.7917,28.7917,9.38332,46.0284,33.1474)"><stop offset="0" style="stop-color:#f5f5f5;stop-opacity:1"/><stop offset="1" style="stop-color:#d6d6d6;stop-opacity:1"/></linearGradient>
        <linearGradient id="_Linear12" x1="0" y1="0" x2="1" y2="0" gradientUnits="userSpaceOnUse" gradientTransform="matrix(-15.5656,-0.0806505,0.0806505,-15.5656,103.927,29.3817)"><stop offset="0" style="stop-color:#fff;stop-opacity:1"/><stop offset="1" style="stop-color:#ddd;stop-opacity:1"/></linearGradient>
        <linearGradient id="_Linear14" x1="0" y1="0" x2="1" y2="0" gradientUnits="userSpaceOnUse" gradientTransform="matrix(5.77437,-43.3879,43.3879,5.77437,80.1735,43.6473)"><stop offset="0" style="stop-color:#f3f3f3;stop-opacity:1"/><stop offset="1" style="stop-color:#cacaca;stop-opacity:1"/></linearGradient>
        <linearGradient id="_Linear17" x1="0" y1="0" x2="1" y2="0" gradientUnits="userSpaceOnUse" gradientTransform="matrix(28.2667,8.62012,-8.62012,28.2667,183.983,14.7097)"><stop offset="0" style="stop-color:#e7e7e7;stop-opacity:1"/><stop offset="1" style="stop-color:#f2f2f2;stop-opacity:1"/></linearGradient>
        <linearGradient id="_Linear18" x1="0" y1="0" x2="1" y2="0" gradientUnits="userSpaceOnUse" gradientTransform="matrix(28.2667,8.62012,-8.62012,28.2667,183.983,14.7097)"><stop offset="0" style="stop-color:#e7e7e7;stop-opacity:1"/><stop offset="1" style="stop-color:#f2f2f2;stop-opacity:1"/></linearGradient>
        <linearGradient id="_Linear19" x1="0" y1="0" x2="1" y2="0" gradientUnits="userSpaceOnUse" gradientTransform="matrix(28.2667,8.62012,-8.62012,28.2667,183.983,14.7097)"><stop offset="0" style="stop-color:#e7e7e7;stop-opacity:1"/><stop offset="1" style="stop-color:#f2f2f2;stop-opacity:1"/></linearGradient>
        <linearGradient id="_Linear20" x1="0" y1="0" x2="1" y2="0" gradientUnits="userSpaceOnUse" gradientTransform="matrix(28.2667,8.62012,-8.62012,28.2667,183.983,14.7097)"><stop offset="0" style="stop-color:#e7e7e7;stop-opacity:1"/><stop offset="1" style="stop-color:#f2f2f2;stop-opacity:1"/></linearGradient>
    </defs>
</svg>
